<?xml version="1.0" encoding="UTF-8"?>
<svg xmlns="http://www.w3.org/2000/svg" version="1.1" xmlns:xlink="http://www.w3.org/1999/xlink" viewBox="0 0 215.72 209.36">
  <!-- Generator: Adobe Illustrator 30.1.0, SVG Export Plug-In . SVG Version: 2.1.1 Build 136)  -->
  <defs>
    <style>
      .st0 {
        fill: #ff8585;
      }

      .st1 {
        fill: #ffcadb;
      }

      .st2 {
        fill: #fff;
      }

      .st3 {
        fill: #ffb6b6;
      }

      .st4 {
        fill: #a0e4f9;
      }

      .st5 {
        fill: none;
      }

      .st6 {
        fill: #1c7482;
      }

      .st7 {
        clip-path: url(#clippath-1);
      }

      .st8 {
        isolation: isolate;
      }

      .st9 {
        fill: #e4e6ed;
      }

      .st10 {
        fill: #ff95b3;
      }

      .st11 {
        fill: #f55;
      }

      .st12 {
        fill: #231006;
      }

      .st13 {
        fill: #dbdbdb;
      }

      .st14 {
        fill: snow;
      }

      .st15 {
        fill: #34213d;
        mix-blend-mode: darken;
        opacity: .2;
      }

      .st16 {
        fill: #ffe7ef;
      }

      .st17 {
        fill: #ccf5ff;
      }

      .st18 {
        fill: #e36d93;
      }

      .st19 {
        fill: #6ab5c6;
      }

      .st20 {
        fill: #ff7171;
      }

      .st21 {
        fill: #ed0a0a;
      }

      .st22 {
        clip-path: url(#clippath);
      }

      .st23 {
        fill: #380000;
      }

      .st24 {
        fill: #e01717;
      }
    </style>
    <clipPath id="clippath">
      <path class="st4" d="M34.25,122.98s14.22,41.4,19.66,60.82c0,0,8.52,25.29,54.09,23.51,39.18-1.53,46.69-24.4,46.69-24.4,0,0,19.35-55.73,19.02-58.39-.34-2.66-20.85-16.87-65.71-15.84s-64.06-.26-73.76,14.31Z"/>
    </clipPath>
    <clipPath id="clippath-1">
      <path class="st5" d="M100.29,92.09c-28.52.53-54.83,4.12-63.64,9.22-10.31,5.97-14.56,19.66-6.97,29.71,7.6,10.05,34.51,25.55,74.72,22.9,40.21-2.64,73.45-13.95,76.3-25.54,2.85-11.59-10.76-37.58-80.42-36.29Z"/>
    </clipPath>
  </defs>
  <g class="st8">
    <g id="Objects">
      <g>
        <path class="st14" d="M169.14,180.52c1.91,1.36.56,3.97-1.13,5.07-.73-1.95-1.88-3.83-3.41-5.62.33-.08.65-.16.97-.19,1.16-.12,2.57.03,3.57.74ZM156.32,171.74c.91-.32,1.97-.09,2.82.28,2.13.94,2.43,2.67,2.19,4.71-1.78-1.51-3.85-2.95-6.17-4.29.34-.28.7-.54,1.17-.7ZM37.44,181.64c.03-.15.07-.25.22-.59.25-.57.59-1,1.08-1.52.75-.81,1.8-1.34,2.82-1.38.16,0,.74.17.92.31.05.04.09.09.13.13-1.66,1.69-2.98,3.45-3.92,5.29-.31-.2-.62-.41-.89-.67-.36-.35-.41-.59-.44-1,0-.04,0-.06,0-.08.01-.16.05-.32.08-.48ZM33.2,191.95c.13-1.3.92-2.48,1.84-3.28.7-.6,1.46-.73,2.25-.89-.18.9-.29,1.81-.29,2.74,0,1.67.32,3.32.91,4.91-2.39.1-5.02-.51-4.71-3.48ZM41.69,204.35c-.98-.91-1.54-2.17-1.62-3.55-.02-.42.04-.79.15-1.13,1.52,2.09,3.54,4.09,6.01,5.95-1.5.45-3.05.12-4.55-1.26ZM162.99,207.15c-.51,1.34-1.88,2.33-3.25,2.19-1.01-.11-2.05-.92-3.02-1.69,2.4-1.51,4.49-3.12,6.23-4.82.44,1.35.65,2.7.04,4.32ZM170.14,196.81c-.85,2.11-2.36,2.64-3.96,2.18,1.66-2.5,2.6-5.13,2.73-7.86,1.34,1.54,2.22,3.23,1.23,5.67Z"/>
        <g>
          <g>
            <g>
              <path class="st4" d="M34.25,122.98s14.22,41.4,19.66,60.82c0,0,8.52,25.29,54.09,23.51,39.18-1.53,46.69-24.4,46.69-24.4,0,0,19.35-55.73,19.02-58.39-.34-2.66-20.85-16.87-65.71-15.84s-64.06-.26-73.76,14.31Z"/>
              <g class="st22">
                <path class="st17" d="M40.03,166.86s24.14,13.6,40.38,10.11,24.35-33.82,14.64-52.69c-9.71-18.87-63.28-25.34-67.64-16.88-4.36,8.46,2.08,37.44,12.62,59.46Z"/>
                <path class="st19" d="M138.65,111.27s-4.94,61.69-15.57,78.72c-10.63,17.03-48.92,12.19-69.33.36-20.42-11.84,33.43,47.57,75.75,22.76,42.33-24.81,62.19-84.83,56.84-107.72-5.35-22.89-38.86-14.33-47.69,5.88Z"/>
              </g>
            </g>
            <path class="st23" d="M34.29,120.65s-1.66,7.91,7.8,6.14c0,0-.25,10.74,9.34,4.87,0,0,2.48,8.35,11.72,4.18,0,0,3.87,9.45,12.94,3.02,0,0,5.5,9.81,15.45,1.94,0,0,5.82,8.08,14.52.37,0,0,8.72,8.9,13.32-.81,0,0,8.74,8.02,12.24-1.61,0,0,10.42,7.22,13.23-2.87,0,0,14.64,4.53,12.16-4.06,0,0,11.87,4.43,8.64-4.24,0,0,10.11,2.21,7.73-5.73,0,0-3.26-21.41-63.26-20.78-56.63.59-71.31,2.69-75.83,19.58Z"/>
            <g>
              <path class="st6" d="M97.29,180.01c-.68-7.15-1.39-13.82-2.18-19.5-1.52-11.37-2.79-18.92-2.79-18.92.02.41.05.83.07,1.25-.1-.8-.15-1.24-.15-1.24l.16,1.46c.31,6.19.86,12.74,1.52,19.17.75,6.93,1.43,13.71,2.2,19.67,1.08,8.7,2.1,15.63,2.58,18.74l.2,1.8c-.02-.33-.05-.68-.08-1.05.1.67.16,1.04.16,1.04-.41-7.64-1.01-15.28-1.69-22.43Z"/>
              <path class="st6" d="M106.14,143.42c-.02.38-.04.78-.06,1.16l-.02-1.16s0,.43.01,1.21c-.67,12.44-.46,26.65-.06,37.86.29,8.12.67,14.65.87,17.84.02.94.04,1.66.06,2.12l-.02-1.55c.06,1,.1,1.55.1,1.55.54-14.79.32-29.53-.03-40.59-.36-11.06-.85-18.43-.85-18.43Z"/>
              <path class="st6" d="M120.25,143.42s-.05.44-.13,1.25c-2.16,12.59-3.65,27.1-4.6,38.58-.67,8.15-1.08,14.77-1.27,18.12-.1,1.05-.17,1.86-.21,2.36l.16-1.59c-.06,1.03-.08,1.59-.08,1.59,2.31-15.01,3.86-30.07,4.84-41.39.97-11.32,1.37-18.91,1.37-18.91-.07.39-.13.79-.2,1.18l.12-1.19Z"/>
              <path class="st6" d="M131.45,142.69l.18-1.08s-.07.43-.21,1.21c-3.05,12.63-5.53,27.26-7.19,38.88-.43,3-.82,5.79-1.15,8.29-.28,2.52-.53,4.74-.74,6.59-.11,1.09-.21,2.04-.29,2.85-.19,1.32-.32,2.36-.39,3.02l.22-1.31c-.09.85-.14,1.32-.14,1.32.75-3.79,1.46-7.57,2.12-11.3.68-3.73,1.35-7.4,1.99-10.95,1.24-7.11,2.3-13.77,3.18-19.49,1.74-11.43,2.67-19.1,2.67-19.1-.09.35-.17.71-.26,1.06Z"/>
              <path class="st6" d="M144.43,137.34c-.1.34-.2.68-.31,1.02l.23-1.04s-.1.44-.29,1.24c-3.89,12.92-7.32,27.96-9.73,39.92-.6,3.09-1.15,5.97-1.65,8.55-.45,2.59-.84,4.88-1.17,6.79-.26,1.41-.4,2.63-.51,3.59-.2,1.11-.34,1.96-.39,2.5l.19-.84c-.07.55-.11.85-.11.85,1.67-7.82,3.72-15.56,5.36-22.88,1.7-7.31,3.2-14.15,4.45-20.03,2.49-11.76,3.94-19.65,3.94-19.65Z"/>
              <path class="st6" d="M157.22,134.72c-.12.31-.23.63-.35.95l.28-.98s-.13.43-.36,1.2c-4.59,12.43-8.84,26.98-11.88,38.58-.76,3-1.47,5.79-2.1,8.3-.58,2.52-1.09,4.75-1.51,6.6-.32,1.32-.51,2.47-.66,3.39-.27,1.13-.45,2-.53,2.54l.21-.75c-.08.49-.13.77-.13.77.55-1.9.98-3.8,1.58-5.67.56-1.88,1.12-3.74,1.68-5.59,1.12-3.7,2.22-7.35,3.25-10.89,2.09-7.07,3.96-13.7,5.52-19.39,3.13-11.39,5.01-19.05,5.01-19.05Z"/>
              <path class="st6" d="M167.93,131.7c-.15.34-.3.7-.45,1.05.24-.69.37-1.08.37-1.08l-.38,1.09c-8.6,20.09-16.46,46.42-18.34,52.9l-.51,1.46c.13-.35.28-.8.47-1.33-.25.87-.39,1.36-.39,1.36,11.05-27.14,19.23-55.45,19.23-55.45Z"/>
              <path class="st6" d="M81.5,160.36c-3.01-11.32-5.33-18.77-5.33-18.77.08.42.16.85.24,1.27-.21-.8-.32-1.25-.32-1.25l.44,1.88c1.16,6.1,2.54,12.52,4.02,18.8,1.65,6.93,3.26,13.7,4.81,19.63.39,1.48.76,2.91,1.12,4.28.33,1.38.65,2.69.94,3.93.61,2.48,1.15,4.68,1.59,6.5.15.57.28,1.09.41,1.59l1,4.24c-.06-.33-.12-.68-.18-1.03.17.65.26,1.02.26,1.02-2.29-15.53-6.02-30.76-9.01-42.08Z"/>
              <path class="st6" d="M70.75,157.63c-3.23-11.42-5.63-18.96-5.63-18.96.07.37.15.75.22,1.13-.19-.71-.3-1.11-.3-1.11l.32,1.21c2.6,13.16,6.51,27.88,9.83,39.45,2.55,8.9,4.73,15.92,5.68,18.93l.43,1.61c-.09-.37-.19-.76-.29-1.17.23.74.37,1.15.37,1.15-3.33-15.51-7.39-30.82-10.63-42.24Z"/>
              <path class="st6" d="M64.53,172.2c-1.86-6.9-3.71-13.31-5.27-18.82-3.17-11-5.52-18.25-5.52-18.25.07.36.15.73.22,1.1l-.3-1.07s.11.42.32,1.2c2.52,12.67,6.32,26.87,9.73,37.96,2.28,7.57,4.27,13.7,5.36,17,.31,1.06.59,1.97.81,2.7l-.39-1.43c.3.9.47,1.4.47,1.4-1.69-7.48-3.57-14.88-5.43-21.79Z"/>
              <path class="st6" d="M57.29,176.73c-.41-1.69-.82-3.38-1.25-5.03-.45-1.65-.9-3.27-1.34-4.87-1.79-6.39-3.66-12.28-5.33-17.3-3.34-10.04-5.9-16.61-5.9-16.61.08.35.17.71.26,1.06-.22-.67-.34-1.03-.34-1.03l.5,1.68c2.84,11.46,6.81,24.13,9.97,34.19.42,1.32.83,2.59,1.22,3.81.15.49.3.97.44,1.44l3.85,13.06c-.07-.36-.16-.73-.24-1.11.2.7.32,1.09.32,1.09-.64-3.49-1.29-7-2.15-10.37Z"/>
            </g>
          </g>
          <g>
            <g>
              <path class="st21" d="M163.8,157.37s-49.14,40.38-119.83,2.9c0,0-2.42,2.06,2.45,6.66,0,0,54.93,35.1,116.55-2.87,0,0,4.15-3.05.83-6.69Z"/>
              <path class="st0" d="M48.45,164.01c-.46-.2-.88-.47-1.35-.62-.25-.08-.49-.15-.75-.22-.29-.08-.7.14-.82.18-.34.12-.47.45-.47.78,0,1.06.88,1.66,1.73,2.18.93.57,2.46,1.44,3.36.32.98-1.23-.77-2.23-1.69-2.62Z"/>
              <path class="st0" d="M136.79,172.55c-1.98.18-3.81.86-5.71,1.43-2.91.87-5.92.9-8.83,1.66-3,.79-7.39.72-10.62,1.27-2.76.47-5.76.42-8.56.43-.48,0-.6.8-.14.94,6.78,2.04,12.72-1.89,19.45-1.43,4.23.29,11.44-.83,14.59-3.98.13-.13-.02-.34-.18-.32Z"/>
              <path class="st0" d="M160.13,162.6c-3.59,1.31-6.93,3.21-10.5,4.6-4.16,1.61-8.19,3.09-12.15,5.13-.16.08-.12.37.08.32,7.7-1.76,16.61-4.43,23.2-8.91.63-.43.07-1.4-.62-1.15Z"/>
            </g>
            <g>
              <path class="st21" d="M54.68,153.28c3.39-3.63,14.99,9.97,16.6,16.68,1.61,6.71-1.13,17.47-10.44,17.21s-5.24-16.5-5.24-16.5c0,0-7.47-10.38-.92-17.39Z"/>
              <path class="st21" d="M83.02,172.68c-2.08-1.61-8.81-6.27-11.74-2.73s-3.44,12.09,1.86,13.11,7.81,3.12,9.91.72,1.71-9.74-.04-11.1Z"/>
              <path class="st21" d="M100.74,160.46c-1.47-2.94-14.51.11-17.96,10.43s.94,15.08,4.85,17.18c3.91,2.1,10.13,6.89,13.63,2.7s-3.42-12.3-3.42-12.3c0,0,6.12-11.57,2.9-18.01Z"/>
              <path class="st0" d="M56.78,155.77c-3.96-.44-5.45,4.89-3.62,8.05s5.19,5.38,3.98,9.4-1.5,8.68,2,8.98,8.47-4.37,8.78-9.19c.31-4.82-7.54-16.84-11.13-17.24Z"/>
              <path class="st0" d="M76.59,171.7c-3.54-.05-6.78,2.69-6.77,4.22s3.01,6.54,5.97,5.3c0,0,4.51-.04,4.69-1.76s-1.78-7.72-3.89-7.76Z"/>
              <path class="st0" d="M96.55,162.95c-4.24-1.32-10.9,5.48-12.34,9.49s-1.14,9.78,3.01,11.96c4.15,2.18,8.41,4.27,9.81,2.05s-3.69-11.01-3.69-11.01c0,0,7.96-11.01,3.22-12.49Z"/>
            </g>
          </g>
        </g>
        <g>
          <g>
            <path class="st24" d="M170.4,80.42c-1.65,2.15-3.27,4.26-4.84,6.31,3.87,2.8,7.39,6.44,10.43,10.18,1.8-1.92,3.65-3.9,5.52-5.92-.91-1.04-1.83-2.02-2.63-2.89-2.38-2.59-5.33-5.59-8.48-7.69Z"/>
            <path class="st24" d="M160.96,92.72c-1.97,2.57-3.78,4.94-5.37,7.02,3.36,2.59,6.29,6.1,8.8,9.49,1.93-2.05,4.11-4.36,6.45-6.85-1.13-1.48-2.39-2.88-3.62-4.02-1.74-1.61-3.93-3.87-6.26-5.65Z"/>
            <path class="st13" d="M160.96,92.72c2.33,1.78,4.53,4.04,6.26,5.65,1.23,1.14,2.49,2.54,3.62,4.02,1.64-1.75,3.37-3.58,5.14-5.48-3.03-3.74-6.56-7.38-10.43-10.18-1.6,2.08-3.14,4.09-4.59,6Z"/>
            <path class="st24" d="M148.9,108.49c-7.63,9.98,4.32,12.71,6.91,9.83.34-.38,1.64-1.76,3.63-3.86-2.53-3.01-5.59-6.13-8.75-8.32-1.15,1.5-1.8,2.35-1.8,2.35Z"/>
            <path class="st13" d="M150.7,106.14c3.16,2.19,6.22,5.31,8.75,8.32,1.35-1.43,3.03-3.2,4.94-5.23-2.51-3.4-5.44-6.9-8.8-9.49-2.05,2.68-3.73,4.87-4.89,6.4Z"/>
            <path class="st24" d="M212.84,55.77c1.81-2.33,2.87-3.95,2.88-4.56.12-4.54-11.52-13.9-14.14-11.06-.35.38-1.56,1.89-3.38,4.21,2.24.96,4.55,2.36,6.25,3.49,3.21,2.13,6.07,4.83,8.39,7.92Z"/>
            <path class="st13" d="M204.97,65.18c3.25-3.72,5.98-6.96,7.87-9.4-2.32-3.09-5.18-5.79-8.39-7.92-1.71-1.13-4.01-2.53-6.25-3.49-1.85,2.36-4.33,5.55-7.21,9.28,2.62,1.24,5.21,2.48,7.45,4.56,2.39,2.23,4.5,4.55,6.53,6.98Z"/>
            <path class="st13" d="M186.06,60.04c-1.88,2.44-3.85,5-5.86,7.61,4.79,2.86,9.14,6.63,12.81,10.87,2.52-2.76,4.96-5.45,7.25-8.02-1.83-1.8-3.79-3.44-5.54-4.79-2.63-2.03-5.56-4.1-8.67-5.68Z"/>
            <path class="st24" d="M198.44,58.2c-2.23-2.08-4.83-3.31-7.45-4.56-1.55,2-3.2,4.14-4.93,6.39,3.1,1.57,6.04,3.65,8.67,5.68,1.75,1.35,3.71,2.99,5.54,4.79,1.66-1.85,3.23-3.63,4.71-5.32-2.03-2.43-4.13-4.75-6.53-6.98Z"/>
            <path class="st13" d="M175.05,74.36c-1.56,2.03-3.12,4.06-4.65,6.06,3.15,2.09,6.1,5.1,8.48,7.69.8.87,1.72,1.85,2.63,2.89,1.69-1.81,3.39-3.65,5.09-5.49-1.88-2.32-4.15-4.5-6.06-6.4-1.62-1.6-3.49-3.28-5.48-4.75Z"/>
            <path class="st24" d="M175.05,74.36c2,1.47,3.86,3.15,5.48,4.75,1.92,1.89,4.18,4.07,6.06,6.4,2.16-2.34,4.32-4.68,6.42-6.99-3.67-4.23-8.02-8.01-12.81-10.87-1.7,2.21-3.43,4.46-5.15,6.71Z"/>
            <path class="st11" d="M212.69,48.5c-1.71-3.37-5.79-7.05-9.78-7.13-1.13-.02-1.32,1.48-.63,2.1,1.19,1.07,2.62,1.89,3.82,2.97,1.23,1.11,2.18,2.53,2.97,3.98.32.59,1.23.95,1.87.85.38-.06.71-.13,1.01-.38.65-.54,1.16-1.55.73-2.39Z"/>
            <path class="st11" d="M199.83,62c-1.36-1.73-3.46-2.93-5.17-4.3-1.08-.86-3.69-2.71-4.88-.87-1.24,1.92.26,3.57,1.66,4.86,1.58,1.47,3.24,3.29,5.2,4.22,2.31,1.1,4.79-1.86,3.18-3.91Z"/>
            <path class="st11" d="M186.69,75.26c-1.08-1.27-2.37-2.62-4.01-3.15-1.64-.53-4.86-.46-4.6,2.08.21,2.03,2.95,3.14,3.96,4.41.97,1.22,2.69,1.6,4,.65,1.19-.86,1.67-2.81.65-4Z"/>
            <path class="st11" d="M173.25,85.17c-.81-.67-1.59-1.12-2.61-1.37-1.19-.29-2.3.36-2.6,1.54-.33,1.28.75,2.82,1.54,3.74,1.01,1.18,1.7,2.77,3.4,3.04,1.04.16,1.95-.39,2.42-1.3.95-1.86-.69-4.45-2.14-5.64Z"/>
            <path class="st11" d="M166.25,100.1c-.46-.74-1.26-1.19-1.92-1.74-.69-.57-1.42-1.12-2.19-1.55-1.35-.75-2.96.63-2.82,2.03.2,2.12,2.28,4.92,4.52,5.16,2.22.24,3.59-2.04,2.42-3.91Z"/>
            <path class="st2" d="M206.95,55.53c-.24-2.43-2.16-3.92-3.91-5.4-1.48-1.26-3.23-2.59-5.31-2.26-1.22.19-1.88.93-2.22,2.07-.67,2.24,1.01,4.23,2.48,5.68,1.56,1.53,2.75,3.07,4.93,3.67,2.2.6,4.24-1.71,4.03-3.77Z"/>
            <path class="st2" d="M195.51,70.61c-.11-2.1-2.15-3.54-3.63-4.82-1.48-1.28-3.42-2.36-5.44-2.12-1.85.23-2.66,2.22-1.7,3.74.8,1.27,2.12,2.23,3.22,3.24,1.28,1.18,2.3,2.99,4.21,3.08,1.89.08,3.44-1.11,3.34-3.12Z"/>
            <path class="st2" d="M182.94,84.24c-.6-3.49-4.99-7.63-8.44-7.06-1,.17-1.76.96-1.67,2.02.15,1.71,1.08,2.7,2.18,3.93,1.07,1.19,2.02,2.59,3.25,3.63,1.83,1.54,5.11-.02,4.69-2.52Z"/>
            <path class="st2" d="M171.21,94.78c0-1.22-.81-2.23-1.57-3.11-.85-.99-2.03-1.65-3.3-1.86-1.04-.18-2.16.97-1.66,2.02.41.85.87,1.63,1.42,2.4.69.95,1.36,1.95,2.44,2.48,1.39.69,2.67-.58,2.68-1.92Z"/>
            <path class="st2" d="M161.16,108.05c-.51-1.36-1.96-2.37-3.19-3.06-1.19-.67-2.94-1.38-3.77.17-.56,1.04.4,2.42.95,3.3.8,1.26,1.93,2.39,3.39,2.77,1.78.46,3.2-1.61,2.62-3.18Z"/>
          </g>
          <g>
            <path class="st9" d="M84.12,40.36c0,23.23-17.64,39.78-40.87,39.78S0,63.59,0,40.36,21.33,0,44.56,0s39.56,17.13,39.56,40.36Z"/>
            <path class="st21" d="M61.57,12.4c-5.31-3.55-11.09-5.35-17.19-5.35-12.12,0-24.41,7.32-32.07,19.11-4.94,7.61-6.69,16.14-4.92,24.04,2.27,10.12,11.95,16.94,20.53,19.21,3.2.85,6.39,1.28,9.45,1.28,8.43,0,15.72-3.21,21.07-9.29,6.84-7.76,8.73-19.78,4.59-29.21-3.09-7.05-10.46-11.42-19.22-11.42-4.06,0-7.96.97-11.29,2.81-6.14,3.39-10.09,9.15-10.56,15.4-.45,5.88,2.14,11.31,7.29,15.27,3.37,2.59,7.61,4.02,11.96,4.02,2.07,0,4.06-.33,5.93-.98,5.17-1.79,8.22-7.63,6.8-13.02-1.32-5.03-5.67-10.47-10.38-10.47-.57,0-1.14.08-1.69.24-6.86,1.96-7.43,5.55-7.15,7.51.49,3.52,4.37,6.66,7.07,6.66.21,0,.42-.02.62-.05,1.04-.19,1.61-.29,1.96-.89.33-.56.13-1.12-.08-1.71-.59-1.67-2.06-2.03-3.14-2.29-1.14-.28-1.45-.43-1.56-.98-.19-.9-.06-1.63.38-2.17.54-.66,1.53-1.04,2.73-1.04,1.31,0,2.62.46,3.51,1.24,1.79,1.56,2.39,2.68,3.17,4.35.99,2.13,1.05,3.91.17,5.29-1.29,2.02-4.78,3.33-8.89,3.33-1.79,0-3.49-.25-4.79-.72-4.8-1.71-8.43-6.47-9.03-11.85-.68-6.08,4.62-11.1,10.16-13.37,2.26-.93,4.56-1.4,6.82-1.4,8.71,0,15.64,7.03,16.12,16.35.31,6.02-1.66,11.44-5.69,15.69-4.52,4.75-11.14,7.48-18.17,7.48-.94,0-1.9-.05-2.83-.15-11.11-1.18-22.16-10.05-21.42-22.84.5-8.64,6.18-17.76,15.19-24.39,5.23-3.84,10.84-5.79,16.69-5.79,4.68,0,9.32,1.27,13.81,3.77,14.05,7.83,20.34,23.8,14.63,37.16-2.15,5.04-6.03,9.29-9.78,13.4-.96,1.05-1.91,2.1-2.83,3.15-.56.64-.67,1.5-.31,2.31.38.83,1.19,1.39,2.03,1.39.49,0,.95-.18,1.33-.53,11.52-10.44,17.03-20.22,17.36-30.76.39-12.61-9.66-23.91-18.38-29.75Z"/>
            <path class="st2" d="M38.41,3.52C25.64,1.33,14.78,11.6,8.36,21.57c-6.07,9.43-11.32,26.73-2.38,36.08.62.65,1.62-.07,1.57-.83-.17-2.96-1.26-5.71-1.73-8.64-.52-3.22-.28-6.59.2-9.8.82-5.48,3.31-10.74,6.27-15.38,5.98-9.37,15.5-15.92,26.18-18.77.37-.1.28-.65-.07-.71Z"/>
            <path class="st2" d="M40.1,16.02c-9.68-2.89-18.46,6.02-22.84,13.68-2.2,3.85-3.68,9.35-2.51,13.75,1.21,4.59,4.19,11.43,9.22,12.63.71.17,1.55-.56,1.4-1.31-.75-3.69-4.09-6.27-5.69-9.72-2.09-4.53-.68-9.4,1.41-13.62,3.71-7.48,11.4-12.17,19.07-14.71.39-.13.26-.61-.07-.71Z"/>
            <path class="st2" d="M44.19,28.93c-5.21-2.48-11.13,3.04-13.52,7.16-2.38,4.11-2.1,13.8,4.09,14.38.79.07,1.72-.54,1.56-1.45-.33-1.8-1.44-2.86-2.22-4.49-1.05-2.19-.45-4.59.55-6.65,2.05-4.21,6.26-4.77,9.72-7.12.68-.46.55-1.49-.17-1.83Z"/>
            <path class="st2" d="M46.51,43.23c-.51-1.17-1.44-1.92-2.45-2.63-.91-.64-2.14.37-1.47,1.35.48.7.91,1.47,1.24,2.25.37.87.06,1.86.91,2.5.45.34.94.33,1.42.06,1.24-.69.82-2.48.36-3.54Z"/>
            <path class="st2" d="M68.2,28.74c-2.89-5.27-11.09-14.96-17.95-11.72-.76.36-.55,1.48.32,1.45,6.24-.24,12.02,7.56,14.81,12.22,2.24,3.73,3,8.14,2.68,12.42-.28,3.67-2.57,6.6-2.76,10.18-.06,1.08,1.17,2.3,2.22,1.4,7.25-6.16,4.63-18.73.66-25.96Z"/>
            <path class="st2" d="M53.22,2.32c-2.98-.84-6.36-.29-9.29.44-.5.13-.33.81.08.92,2.4.59,4.85.79,7.27,1.33,1.41.31,2.75.82,3.95,1.63.99.67,1.54,1.4,2.79,1.15.43-.09.65-.31.78-.72.83-2.76-3.62-4.19-5.57-4.74Z"/>
            <path class="st2" d="M75.59,17.28c-2.78-4.41-7.66-9.45-13.32-8.95-.68.06-.71.9-.2,1.2,4.75,2.85,8.12,6.38,11.25,10.93,2.85,4.15,4.13,9.79,7.37,13.53.36.41,1.14.37,1.22-.28.67-5.37-3.58-12.09-6.32-16.44Z"/>
            <path class="st20" d="M49.71,10.05c-5.82-4.23-14.78-1.47-20.67,1.26-4.64,2.15-13.76,8.19-11.93,14.42.12.39.7.6,1.02.32,1.78-1.51,2.61-3.75,3.99-5.6,2.27-3.06,5.7-5.23,9.1-6.82,5.96-2.79,11.96-2.44,18.3-2.99.28-.02.42-.41.18-.59Z"/>
            <path class="st20" d="M19.38,59.96c-3.28-3.91-6.98-5.59-8.68-10.89-1.71-5.33-.47-11.86,1.45-16.94.2-.52-.53-1.06-.88-.55-3.54,5.17-5.14,10.83-4.12,17.07.86,5.27,5.2,12.67,11.09,13.12.9.07,1.86-.97,1.15-1.81Z"/>
            <path class="st20" d="M33.57,52.85c-1.09-2.69-4.24-4.44-5.88-6.92-2.46-3.72-2-7.05-1.83-11.19.02-.54-.55-1.09-1.07-.68-3.51,2.78-2.47,7.96-.97,11.55,1.32,3.17,4.95,8.84,8.89,8.61.64-.04,1.11-.77.87-1.37Z"/>
            <path class="st20" d="M47.11,36.26c-2.99-2.65-7.42-.85-9.59,1.89-1.06,1.34-1.79,3.25-1.31,4.96.48,1.73,2.26,3.62,4.19,2.97.51-.17.87-.84.63-1.35-.47-1.02-1.61-1.36-2.02-2.36-.4-.97.06-2.07.6-2.88.71-1.05,1.8-1.9,2.93-2.45,1.45-.7,2.6-.58,4.04.05.52.23.94-.47.52-.84Z"/>
            <path class="st20" d="M53.58,23.99c-8.29-4.04-20.34-.94-26.66,5.39-.69.69.34,1.55,1.07,1.16,6.98-3.72,13.82-6.56,21.86-4.66,3.71.88,6.6,3.39,8.65,6.5,3.72,5.66,1.92,11.47,1.49,17.61-.06.87,1.16,1.73,1.75.8,5.81-9.06,1.14-22.27-8.16-26.8Z"/>
            <path class="st20" d="M58.13,12.92c-.41-.2-.84.32-.57.69,3.77,5.23,9.33,8.9,13.34,13.99,4.93,6.25,5.01,12.36,5.15,19.93.02.83,1.22.96,1.54.26,6.08-13.51-8.15-29.35-19.46-34.87Z"/>
            <path class="st20" d="M52.58,62.87c-3.96,1.33-7.06,3.2-11.34,3.73-4.38.54-9.3-.2-13.63-.96-.44-.08-.63.57-.23.74,7.56,3.3,20.01,4.94,26.14-2.18.56-.65-.16-1.59-.94-1.33Z"/>
            <path class="st2" d="M58.81,44.5c-.26-4.88-2.87-10.41-7.09-13.04-.42-.26-.9.37-.61.74,5.68,7.26,5.64,15.21,1.63,23.15-.22.43.25.78.64.69,4.91-1.17,5.66-7.31,5.43-11.54Z"/>
            <path class="st3" d="M13.38,55.21c-.61-.98-1.39-1.83-2-2.82-.64-1.02-1.03-2.18-1.78-3.13-.14-.17-.44-.23-.59-.02-1.69,2.47.81,5.9,2.61,7.57,1.03.96,2.44-.5,1.75-1.61Z"/>
            <path class="st3" d="M9.09,43.53c-.18-.87-1.4-1-1.6-.06-.14.67-.07,1.36-.02,2.03.07.91,1.55,1,1.62.06.05-.67.13-1.36,0-2.03Z"/>
            <path class="st3" d="M33.81,10.55c-2.16-1.32-6.17,1.07-8.09,2.13-3.17,1.74-5.3,3.94-6.63,7.26-.16.4.35.73.64.4,1.97-2.26,4.71-4.3,7.26-5.84,1.29-.78,2.71-1.38,4.12-1.9,1.09-.41,2.1-.41,2.87-1.33.21-.25.08-.56-.17-.72Z"/>
            <path class="st3" d="M25.65,42.64c-.09-.33-.22-.64-.31-.97-.04-.14-.03-.29-.08-.43,0-.02-.01-.03-.02-.04.14-.29-.16-.59-.47-.57-.61-.15-1.04.43-1.19.97-.16.59.13,1.39.45,1.88.61.91,1.89.13,1.62-.84Z"/>
            <path class="st3" d="M28.62,48.71c-.38-.93-1.18-1.64-1.61-2.56-.48-1.02-1.89-.49-1.63.59.28,1.15.9,2.56,2.01,3.12.7.35,1.53-.42,1.24-1.15Z"/>
            <path class="st3" d="M38.23,24.01c-1.34-.67-3.4.46-4.73.89-1.73.56-2.96,1.43-4.23,2.71-.33.33.17.8.53.57,1.41-.89,3.21-1.35,4.81-1.81,1.32-.37,3.19-.36,3.89-1.68.14-.26-.02-.57-.26-.69Z"/>
            <path class="st3" d="M44.03,22.59c-.52-.13-1.04.05-1.56.11-.51.06-1,.13-1.5.22-.97.19-1.11,1.56-.06,1.77,1.19.23,2.76.38,3.71-.53.57-.55.04-1.41-.58-1.57Z"/>
          </g>
          <g class="st7">
            <g>
              <path class="st9" d="M177.28,114.47c-1.76-2.55-4.21-5.13-7.49-7.58-17.08.63-28.38-7.7-33.43-12.51-5.04-.85-10.61-1.49-16.73-1.88,9.18,8.46,34.18,28.62,57.66,21.98Z"/>
              <path class="st21" d="M41.68,99.15c-2.02.68-3.72,1.41-5.03,2.16-1.67.97-3.18,2.14-4.5,3.46.64,8.68,3.58,23.14,14.65,38.97,7.62,3.79,17.35,7.11,28.93,8.95-26.63-21.62-32.8-42.52-34.05-53.55Z"/>
              <path class="st9" d="M53.27,96.27c-4.54.86-8.46,1.82-11.59,2.88,1.24,11.02,7.41,31.92,34.05,53.55,7.48,1.19,15.73,1.76,24.68,1.43-30.15-17.52-42.58-44.38-47.14-57.86Z"/>
              <path class="st21" d="M169.79,106.88c-6.95-5.2-17.64-9.86-33.43-12.51,5.05,4.81,16.35,13.14,33.43,12.51Z"/>
              <path class="st9" d="M29.69,131.02c2.93,3.88,8.76,8.57,17.11,12.72-11.07-15.83-14.01-30.29-14.65-38.97-6.87,6.85-8.83,17.82-2.46,26.25Z"/>
              <path class="st9" d="M106.05,92.05c-1.88,0-3.79,0-5.76.04-2.49.05-4.97.12-7.41.21,7.6,12.11,29.22,37.86,78.77,45.58,5.07-3.02,8.26-6.25,9.06-9.5.17-.71.29-1.47.33-2.28-44.14-2.04-66.97-24.19-74.99-34.05Z"/>
              <path class="st21" d="M62.55,94.79c-3.3.45-6.41.94-9.27,1.48,4.56,13.48,16.98,40.34,47.14,57.86,1.32-.05,2.65-.11,4-.2,8.07-.53,15.85-1.42,23.18-2.58-45.57-14.75-60.43-43.12-65.04-56.56Z"/>
              <path class="st21" d="M177.28,114.47c-23.48,6.65-48.48-13.52-57.66-21.98-4.25-.27-8.76-.43-13.57-.44,8.02,9.86,30.85,32.01,74.99,34.05.17-3.34-.87-7.45-3.76-11.63Z"/>
              <path class="st21" d="M92.88,92.3c-6.92.26-13.63.7-19.88,1.29,8.75,12.17,32.79,39.01,81.26,51.67,7.02-2.21,12.94-4.71,17.4-7.38-49.55-7.72-71.18-33.48-78.77-45.58Z"/>
              <path class="st9" d="M72.99,93.59c-3.65.35-7.15.75-10.45,1.19,4.6,13.44,19.46,41.82,65.04,56.56,9.91-1.57,18.95-3.65,26.67-6.09-48.47-12.65-72.51-39.5-81.26-51.67Z"/>
              <path class="st2" d="M30.16,112.15c.08-2.19-4.59,10.03-.32,16.4s8.37,7.87,8.77,7.03-8.62-18.94-8.46-23.44Z"/>
              <path class="st20" d="M45.87,120.57c-3.2-4.21-8.29-1.71-7.25,2.63s4.78,14.57,9.08,16.58,11.06-2.24-1.83-19.21Z"/>
              <path class="st2" d="M71.66,134.25c-2.84-2.29-12.93-6.53-14.44-6.53s14.23,19.43,18.85,21.38,10.43-2.88-4.41-14.86Z"/>
              <path class="st20" d="M91.3,135.59c-2.5-1.22-10.39-3.04-11.86-2.9s9.43,12.09,14.03,12.71,10.04-3.87-2.17-9.81Z"/>
              <path class="st2" d="M117.39,133.55c-3.17,2.08-12.4,1.99-14.75,2.03s2.48,3.44,7.35,6.14c4.87,2.7,13.14,2.28,16.13.73s-2.65-6.93-8.72-8.91Z"/>
              <path class="st20" d="M131.83,128.24s-2.87,2.14-5.57,2.3-3.9,1.2-1.16,2.7,10.82,5.24,13.9,4.17,5-2.93,2.85-4.73-8.65-5.31-10.02-4.44Z"/>
              <path class="st2" d="M152.13,123.92c-3.03-.34-10.99.59-12.26,1.05s6.93,5.79,12.09,6.56,8.63-6.64.17-7.6Z"/>
              <path class="st15" d="M32.19,104.01c38.48-34.82,124.38-14.93,141.5-7.48,17.12,7.45,23.25,20.54,11.37,38.17-11.87,17.63-58.77,26.4-95.07,22.32-36.3-4.07-51.59-18.15-51.59-18.15,42.12,25.76,121.43,4.02,124.43-6.18s-5.38-3.63-5.38-3.63c-54.92,11.34-162.57,8.7-125.28-25.05Z"/>
            </g>
          </g>
          <g>
            <g>
              <g>
                <path class="st10" d="M118.82,125.48s7.27,4.22,21.87,3.63c14.6-.58,35.31-9.93,38.3-15.38s5.01-16.34,1.64-18.89-53.36,22.36-61.81,30.64Z"/>
                <path class="st10" d="M29.32,108.96c-8.11,2.59-13.17,5.78-11.82,9.25s19.14,14.34,39.63,7.27-27.81-16.51-27.81-16.51Z"/>
                <path class="st10" d="M39.74,91.35s-16.46,10.19-17.33,20.37c-.87,10.17,24.14,16.97,45.08,18.85,20.94,1.88,53.95,5.07,74.64-12.36,20.69-17.43-16.18-12.8-27.17-16.75s-75.21-10.1-75.21-10.1Z"/>
                <path class="st10" d="M86.4,104.67s5.64,9.17,28.55,12.95c22.91,3.78,43.9-.97,55.42-6.76,11.53-5.79,15.32-13.91,14.31-18.2-1.01-4.29-15.54-11.36-15.54-11.36l-82.75,23.37Z"/>
                <path class="st10" d="M42.5,66.79s-18.26,6.13-20.11,14.51c-1.84,8.38-.56,14.96,22.61,20.16,23.17,5.2,62.35,9.71,83.96,3.21s26.14-17.99,26.14-17.99c0,0-38.98-11.62-57.22-16.72-18.24-5.1-55.39-3.16-55.39-3.16Z"/>
                <path class="st10" d="M78.63,72.34c35.37,6.49,35.38,6.85,48.72,11.14,15.91,5.12,36.39,9.03,45.85-2.19s-1.07-29.74-18.1-33.21c-17.03-3.47-76.47,24.26-76.47,24.26Z"/>
                <path class="st10" d="M78.63,42.35s12.16,14.17,18.91,18.01c6.75,3.84,41.09,1.72,49.25-1.46s18.91-11.68,8.3-15.6-76.47-.95-76.47-.95Z"/>
                <path class="st10" d="M137.53,4.11s-19.99,18.61-35.67,16.49c-13.07-1.77-37.41-3.45-43.49,1.38-6.08,4.83,1.67,17.94,6.09,20.82,7.33,4.78,26.92,13.37,39.84,13.61,17.1.32,34.2-1.97,42.5-5.4,8.3-3.43,14.23-6.85,12.38-9.16s-11.54-8.23-14.24-12.49c-2.7-4.26-3.93-19.69-7.4-25.24Z"/>
                <path class="st10" d="M137.74,60.86s-5.49,7.77-16.34,10.24c-10.85,2.47-32.83,1.39-45.9,3.78-13.07,2.39-30.95-1.06-38.56-11.09-7.61-10.03-1.53-18.8,4.55-21.44s11.85-4.51,22.98-4.06c11.13.45,29.63,19.55,36.47,20.61s36.81,1.96,36.81,1.96Z"/>
              </g>
              <g>
                <g>
                  <path class="st1" d="M108.57,58.46s23.86-1.63,26.73-2.12,15.02-4.61,14.59-1.61-12.36,4.69-15.92,4.87-23.76.39-25.4-1.13Z"/>
                  <path class="st16" d="M125.33,58.16c-1.05-.43-2.17-.3-3.31-.32-1.66-.03-3.33,0-4.99.01-.83,0-.77,1.23.06,1.24,1.46,0,2.91.02,4.37.02,1.24,0,2.67.16,3.82-.31.26-.11.37-.51.05-.64Z"/>
                </g>
                <g>
                  <path class="st1" d="M132.1,11.06s-19.95,11.13-27.8,13.61-36.22-1.52-42.11.36-.49,10.52,0,11.38,14.54,2.14,26.91,10.78c4.97,3.47,14.34,7.12,28.41,6.11,14.07-1.01,19.28-3.75,20.22-7.77.94-4.02-6.15-9.07-7.84-17.32-1.69-8.25,2.21-17.15,2.21-17.15Z"/>
                  <path class="st16" d="M65.23,32.74c-4.7-.43,5.88-5.32,13.99-4.82s22.53,4.2,37.26-8.32c0,0-1.7,12.77-1.74,19.45-.04,6.67-12,11.67-19.87,7.05-7.87-4.62-24.58-12.9-29.64-13.37Z"/>
                  <path class="st2" d="M112.96,25.62c-2.8.01-4.86,1.56-7.38,2.58-3.74,1.51-8.4,2.13-12.39,2.64-6.55.85-12.78-2.9-19.27-.3-.72.29-.89,1.55.08,1.64,4.06.4,7.74.62,11.52,2.31,3.76,1.68,7.25,1.99,11.29,1.32,5.61-.94,16.2-1.93,17.4-8.78.13-.76-.43-1.42-1.24-1.42Z"/>
                </g>
                <g>
                  <path class="st1" d="M46.43,68.34c-6.26-3.64-10.01-12.86-8.19-18.56s20.13-9.82,25.66-8.07c5.54,1.75,24.59,16.7,31.62,19.51s17.07,4.16,15.43,6.42-50.38,8.92-64.52.69Z"/>
                  <path class="st16" d="M45.89,62.43c-4.04-6.15-5.32-13.33,2.87-16.32,8.19-2.99,13.05.41,21.09,6.39,8.04,5.97,11.14,12.39,6.89,13.92s-25.01,4.89-30.84-3.98Z"/>
                  <path class="st2" d="M55.25,46.54c-4.45-1-7.68,1.26-9.06,5.34-1.22,3.61.64,9.64,4.81,10.59,1.29.29,2.41-.75,2.41-1.96,0-2.3-1.64-4.29-1.79-6.61-.15-2.26,2.34-3.69,4.15-4.6,1.27-.64.71-2.48-.52-2.75Z"/>
                  <path class="st2" d="M58.15,63.86c-.29-.55-.8-.89-1.35-1.17-.76-.39-1.74-.19-2.3.42-.61.66-.59,1.51-.18,2.25.3.55.71.96,1.29,1.24.79.38,1.77.21,2.36-.43.63-.68.58-1.53.19-2.3Z"/>
                </g>
                <g>
                  <path class="st1" d="M25.88,88.38c-1.17-4.62,5.01-14.93,11.28-13.92s15.09,6.18,25.03,4.9c9.95-1.28,19.1-1.25,28.54.7,9.44,1.94,35.7,11.72,36.96,18.67,1.26,6.95-34.79,9.9-58.35,5.89-23.55-4.01-41.23-7.36-43.47-16.23Z"/>
                  <path class="st16" d="M56.04,99.03c-12.18-3.93-26.54-3.85-27.34-8.82-.8-4.97,4.43-13.47,9.08-12.49s15.72,4.69,19.81,4.47c4.09-.22,22.48-2.08,28.82,5.22s-3.02,20.44-30.36,11.62Z"/>
                  <path class="st2" d="M47.16,84.27c-1.78-2.55-4.6-2.96-7.56-2.49-1.93.31-7.15,1.34-5.93,4.39,1.02,2.56,3.74,2.96,6.25,2.69.98-.11,1.84.12,2.81.11,1.36-.02,2.4-.32,3.59-.95,1.32-.7,1.65-2.58.84-3.74Z"/>
                </g>
                <g>
                  <path class="st1" d="M110.94,76.84c-2.86-1.82,17.81-.86,22.6-4.42s10.29-8.4,17.67-10.71c7.38-2.31,21.93,15.73,14.01,22.17-7.92,6.44-22.16,2.61-29.93,0-7.77-2.61-20.8-4.77-24.36-7.04Z"/>
                  <path class="st16" d="M146.18,84.2c-9.33-.06-24.34-6.06-25.37-7.08s17.16-2.23,20.39-5.06,21.9,12.25,4.99,12.14Z"/>
                  <path class="st2" d="M136.56,76.38c-1.66-.13-3.2.16-4.85.14-1.55-.01-3.61.13-5.1-.22-.55-.13-.76.6-.32.86,1.62.96,2.91,1.88,4.68,2.65,1.7.74,3.27,1.43,5.13,1.69,3.84.54,4.32-4.81.45-5.12Z"/>
                </g>
                <g>
                  <path class="st1" d="M27.74,115.49c-3.1-2.77,1.51-12.94,4.89-13.27s34.7,7.78,41.5,7.8c6.8.03,17.27,2.3,22.67,7.37,5.4,5.07,2.52,11.04-10.39,11.48-12.91.44-41.26,2.18-58.67-13.38Z"/>
                  <path class="st16" d="M44.75,122.74c-6.89-2.08-16.67-7.8-16.05-10.79s3.08-5.96,9.08-6.87,34.86,7.9,37.14,11.5-7.74,12.94-30.17,6.16Z"/>
                  <path class="st2" d="M41.03,113.26s-.03-.05-.06-.09c-.25-.28-.42-.47-.51-.58h0c.05.05.11.12.2.22-.05-.06-.09-.14-.13-.2.23.32-.01-.34-.08-.29,0-.17,0-.34,0-.39.03-.14.07-.28.1-.42.01-.11.04-.23.06-.34.43-.95.78-1.88.17-2.86-1.01-1.62-3.01-1.36-4.48-.61-1.34.69-2.12,2.25-2.28,3.64-.33,2.92.92,6.39,4.25,7.02,3.14.59,4.81-2.99,2.76-5.11Z"/>
                </g>
                <g>
                  <path class="st1" d="M103.8,111.72c4.02,1.46,25.02,7.57,41.26,3.77,16.24-3.8,23.71-6.69,25.38-10.96s-12.14-13.64-15.87-10.42c-3.74,3.21-13.5,12.6-20.61,13.78-7.11,1.18-33.92,2.46-30.16,3.83Z"/>
                  <path class="st16" d="M112.58,112.79c4.2,2.35,25.99,3.49,33.47.54s6.69-8.49,4.55-10.13-10.27,5.49-14.98,6.82-26.97.57-23.04,2.77Z"/>
                  <path class="st2" d="M128.49,112.39c-1.69-3.01-7.75-1.25-10.34-.54-.88.24-.75,1.44.08,1.64,1.51.37,3.07.49,4.63.53,1.55.04,3.56.67,5.02.02.7-.31,1-.96.62-1.65Z"/>
                </g>
                <g>
                  <path class="st1" d="M137.74,125.49c-2.02-3.73,11.35-5.21,17.96-6.9s8.78.23,3.82,3.85-20.17,6.03-21.78,3.05Z"/>
                  <path class="st2" d="M148.34,122.12c-1.21-.83-2.28-.69-3.63-.27-1.06.32-2.09.74-3.14,1.08-1.7.55-1.31,3.22.55,3.05.97-.09,1.93-.22,2.9-.32,1.32-.14,2.44-.07,3.46-1.02.67-.62.63-1.98-.15-2.52Z"/>
                </g>
                <g>
                  <path class="st1" d="M28.39,120.68c-.26-.81-.97-1.41-1.6-1.95-.62-.53-1.42-.91-2.07-1.42-.75-.58-1.54-.97-2.4-1.35-.72-.32-1.65.16-1.59.99.15,1.8,1.17,2.9,2.56,3.98,1.29,1,3.09,2.13,4.74,1.26.5-.27.49-1.07.35-1.52Z"/>
                  <path class="st2" d="M25.42,118.48c-.36-.52-.78-.82-1.32-1.14-.02-.01-.03-.02-.07-.05-.12-.09-.24-.18-.36-.27-.19-.15-.38-.32-.57-.48-.58-.5-1.5-.45-2.01.11-.56.6-.41,1.39.11,1.95.37.4.75.79,1.18,1.14.73.58,1.43.77,2.36.58.81-.17,1.11-1.21.68-1.83Z"/>
                </g>
              </g>
              <g>
                <path class="st18" d="M64.4,38.47s.61.17,1.76.49c.58.16,1.28.36,2.12.6.42.1.86.26,1.32.45.46.18.95.37,1.47.58,2.1.76,4.52,1.97,7.25,3.42,2.71,1.49,5.68,3.31,8.84,5.39,3.17,2.08,6.53,4.37,10.15,6.71.92.53,1.86,1.07,2.81,1.62.47.27.95.55,1.43.83.5.24,1.01.47,1.52.71,1.02.47,2.03.99,3.09,1.43,1.08.4,2.16.8,3.26,1.21,4.44,1.46,9.2,2.56,14.15,2.96,1.23.14,2.48.12,3.73.2.62.02,1.25.07,1.88.07l1.89-.05c2.51-.01,5.07-.27,7.62-.14,0,0-.72.04-2.06.12-.67.03-1.48.16-2.43.27-.95.1-2.05.19-3.27.3-4.86.39-11.92.4-19.73-1.7-.49-.13-.99-.24-1.48-.38-.48-.17-.97-.34-1.46-.51-.98-.34-1.98-.69-2.99-1.05-.97-.44-1.96-.89-2.95-1.34-.5-.23-1-.46-1.5-.69-.48-.27-.96-.55-1.44-.82-.96-.56-1.94-1.12-2.92-1.68-.93-.62-1.87-1.24-2.82-1.86-1.89-1.25-3.75-2.57-5.63-3.87-3.74-2.64-7.56-5.21-11.46-7.57-3.91-2.34-8-4.22-12.15-5.66Z"/>
                <path class="st18" d="M78.22,75.03s.72,0,2.06.01c.67,0,1.51.02,2.48.03.97.08,2.1.17,3.35.27,2.51.25,5.53.73,8.96,1.48,3.41.79,7.23,1.83,11.31,3.18,8.19,2.59,17.45,6.41,27.82,8.8,1.3.28,2.6.6,3.94.79,1.33.21,2.67.49,4.03.59,2.71.37,5.49.36,8.28.44,5.59-.11,11.26-.9,16.91-1.88,0,0-.79.18-2.26.52-1.46.34-3.6.86-6.32,1.3-5.41.96-13.32,1.68-22.31.15-18.05-2.89-38.22-14.89-58.26-15.69Z"/>
                <path class="st18" d="M123.1,126.45s-.93-.41-2.55-1.11c-1.6-.75-3.84-1.9-6.53-3.2-.67-.31-1.38-.64-2.1-.97-.75-.33-1.53-.7-2.31-1.08-1.55-.77-3.16-1.61-4.82-2.47-1.66-.86-3.37-1.76-5.14-2.6-.88-.42-1.78-.83-2.7-1.17-.46-.17-.93-.33-1.4-.43-.47-.1-.97-.17-1.42-.02,0,0,.06-.03.18-.09.12-.05.31-.12.58-.15.53-.07,1.33,0,2.29.2,1.94.4,4.54,1.34,7.45,2.61,2.92,1.28,6.07,2.9,9.35,4.56,3.29,1.74,6.29,3.92,9.12,5.93Z"/>
                <path class="st18" d="M70.81,107.36s.57.09,1.64.25c.53.08,1.19.18,1.97.3.39.05.8.14,1.25.18.45.04.92.07,1.43.11,4.01.46,9.78.46,16.69.12,3.46-.17,7.2-.45,11.17-.72,3.99-.28,8.15-.45,12.42-.97,2.12-.32,4.29-.58,6.43-1.11,2.17-.41,4.28-1.06,6.35-1.91,2.07-.83,4.1-1.85,5.96-3.1,1.84-1.26,3.58-2.81,4.5-4.85,0,0-.06.15-.17.43-.06.14-.13.32-.21.53-.11.2-.24.43-.38.68-.62,1.01-1.74,2.39-3.52,3.73-1.76,1.36-4.08,2.74-6.89,3.94-1.4.58-2.94,1.18-4.58,1.56-.82.21-1.66.43-2.52.65-.86.2-1.75.34-2.65.51-1.8.37-3.68.55-5.61.8-1.93.18-3.93.35-5.93.47-4.01.26-8.19.54-12.42.7-8.44.31-17.26-.05-24.92-2.31Z"/>
                <path class="st18" d="M98.86,54.15s.4.15,1.16.44c.76.27,1.9.59,3.37.86,1.48.24,3.3.43,5.39.48,2.1.04,4.46-.06,7.04-.27,5.14-.43,11.15-1.39,17.57-2.34,3.2-.5,6.48-1.12,9.77-1.92,3.27-.87,6.53-1.97,9.66-3.45,0,0-.42.25-1.21.7-.39.23-.88.5-1.44.83-.57.33-1.26.6-2.02.96-3.03,1.41-7.56,2.9-12.93,3.98-2.68.57-5.57,1.02-8.56,1.48-2.99.45-6.12.86-9.31,1.07-3.19.21-6.44.24-9.62-.13-3.17-.35-6.31-1.17-8.86-2.68Z"/>
                <path class="st18" d="M111.92,116.83s.55.06,1.58.18c1.03.14,2.52.43,4.39.89,1.87.45,4.12,1.09,6.72,1.45.65.1,1.32.11,2.01.18.7.03,1.43,0,2.17,0,1.48.03,3.05-.1,4.68-.18,3.25-.28,6.9-.44,10.56-.85,3.69-.45,7.54-1.31,11.47-2.41,1.97-.55,3.96-1.15,5.97-1.78,2.02-.65,4.07-1.23,6.02-2.04,3.94-1.55,7.65-3.92,10.47-7.18,0,0-.37.48-1.06,1.38-.35.44-.85.93-1.41,1.53-.29.29-.63.57-.98.89-.35.32-.72.64-1.15.95-1.66,1.3-3.85,2.64-6.52,3.78-2.69,1.11-5.69,2.15-8.99,3.24-3.29,1.05-6.86,2.1-10.68,2.76-.95.17-1.93.29-2.9.43-.98.14-1.98.18-2.97.27-1.99.14-3.94.22-5.96.34-1,.06-2.01.1-3.03.11-1.02.02-2.03.06-3.05,0-2.02-.06-4.11-.18-6.08-.7-3.94-.97-7.51-2.56-11.26-3.25Z"/>
                <path class="st18" d="M43.31,69.58s.2.11.58.32c.39.2.92.57,1.73.87,1.54.71,3.95,1.44,7.08,2.03,1.57.28,3.32.54,5.23.7,1.91.17,4.01.19,6.22.31,4.44.1,9.43-.19,14.98-.42,2.75-.09,5.63-.09,8.57-.25,1.47-.06,2.97-.13,4.5-.19,1.51-.15,3.04-.31,4.59-.47,1.55-.11,3.12-.4,4.72-.66,1.59-.26,3.2-.53,4.83-.79,3.27-.52,6.6-1.05,9.99-1.6,3.4-.52,6.87-1.05,10.37-1.58.88-.13,1.72-.3,2.59-.44l1.29-.23.65-.11.63-.18c.84-.24,1.69-.49,2.53-.73.43-.1.84-.27,1.24-.44l1.23-.5c1.68-.59,3.19-1.53,4.78-2.34,1.47-.99,3.04-1.88,4.42-3.03,2.9-2.12,5.45-4.68,8.08-7.15,0,0-.18.18-.53.53-.34.36-.83.89-1.48,1.59-.64.7-1.43,1.55-2.43,2.48-.49.47-1.02.98-1.58,1.52-.6.5-1.23,1.04-1.9,1.6-2.7,2.18-6.19,4.7-10.74,6.44-1.14.41-2.34.76-3.56,1.16-1.23.35-2.54.55-3.86.83-2.63.49-5.35.94-8.19,1.43-5.67.96-11.74,2-18.03,3.07-3.12.62-6.43.82-9.73,1.16-3.3.11-6.65.26-9.99.26-3.35,0-6.69.12-10.04.19-3.39-.01-6.78.08-10.11-.29-3.34-.2-6.66-.63-9.84-1.42-3.17-.79-6.29-1.85-8.84-3.65Z"/>
              </g>
            </g>
            <g>
              <polygon class="st12" points="74.45 48.42 71.61 47.07 69.11 50.35 73.01 52.77 74.45 48.42"/>
              <polygon class="st12" points="124.31 48.42 120.03 43.19 124.4 39.91 129.23 47.09 124.31 48.42"/>
              <polygon class="st12" points="94.14 33.57 96.56 29.86 99.38 31.38 96.79 35.13 94.14 33.57"/>
              <polygon class="st12" points="93.76 67.43 89.53 62.74 92.32 60.81 95.68 64.63 93.76 67.43"/>
              <polygon class="st12" points="170.52 96.75 170.19 90.44 173.58 90.7 173.78 95.79 170.52 96.75"/>
              <polygon class="st12" points="54.02 97.34 53.26 93.45 56.13 92.54 56.49 97.34 54.02 97.34"/>
              <polygon class="st12" points="84.12 87.84 85.87 82.63 90.56 84.59 86.4 88.27 84.12 87.84"/>
              <polygon class="st12" points="139.24 78.17 137.53 73.89 141.19 71.37 144.11 76.24 139.24 78.17"/>
              <polygon class="st12" points="155.1 64.59 153.17 61.79 155.1 57.13 159.52 59.19 155.1 64.59"/>
              <polygon class="st12" points="141.98 104.41 139.51 101.72 144.11 99.01 147.14 101.28 141.98 104.41"/>
              <polygon class="st12" points="80.21 122.44 80.21 119.68 85.35 121.06 84.12 124.45 80.21 122.44"/>
              <polygon class="st12" points="36.06 81.48 34.08 79.41 37.77 77.03 40.54 78.17 36.06 81.48"/>
              <polygon class="st12" points="32.19 105.21 32.63 101.53 37.31 102.27 36.3 107.01 32.19 105.21"/>
              <polygon class="st12" points="43.31 55.74 40.4 55.36 39.69 50.55 43.62 49.35 43.31 55.74"/>
              <polygon class="st12" points="56.13 123.06 53.72 119.68 54.94 117.28 59.47 120.82 56.13 123.06"/>
              <polygon class="st12" points="76.8 21.85 72.1 25.93 75.24 28.03 79.04 24.19 76.8 21.85"/>
              <polygon class="st12" points="114.46 102.27 111.51 97.38 116.44 94.94 118.82 100.76 114.46 102.27"/>
              <polygon class="st12" points="103.44 122.78 102.25 119.1 104.23 119.1 106.74 121.82 103.44 122.78"/>
              <polygon class="st12" points="61.23 61.08 57.96 65.46 61.55 66.82 63.05 62.74 61.23 61.08"/>
            </g>
          </g>
        </g>
      </g>
    </g>
  </g>
</svg>