<?xml version="1.0" encoding="UTF-8"?>
<svg id="Camada_1" xmlns="http://www.w3.org/2000/svg" version="1.1" viewBox="0 0 944.05 939.63">
  <!-- Generator: Adobe Illustrator 30.1.0, SVG Export Plug-In . SVG Version: 2.1.1 Build 136)  -->
  <defs>
    <style>
      .st0 {
        fill: #ffbcee;
      }

      .st1 {
        fill: #691650;
      }

      .st2 {
        fill: #f29b30;
      }

      .st3 {
        fill: #fff;
      }

      .st4 {
        fill: #591c05;
      }

      .st5 {
        fill: #ed4299;
      }

      .st6 {
        fill: #ffe4ff;
      }

      .st7 {
        fill: #ffd392;
      }

      .st8 {
        fill: #d051a2;
      }

      .st9 {
        fill: #fe6dc9;
      }

      .st10 {
        fill: #8c4f2b;
      }

      .st11 {
        fill: #c1764b;
      }

      .st12 {
        fill: #c372dd;
      }
    </style>
  </defs>
  <circle class="st4" cx="457.38" cy="492.29" r="342.56"/>
  <g>
    <path class="st9" d="M769.99,440.81c6.02,2.6,11.46,6.68,16.02,11.99-20.03-162.98-159.32-289.61-327.63-289.61S143.06,296.94,129.36,466.46c3.43-2.84,6.79-4.2,9.34-4.85,9.27-2.36,18.98,1.39,26.62,10.27,7.59,8.82,12.34,21.89,13.35,36.8,1.16,17.02-2.53,36.27-10.69,55.66-6.76,16.08-4.78,29.54,5.58,37.91,11.9,9.61,32.4,10.42,44.77,1.78,10.98-7.68,13.69-20.8,7.84-37.95-11.03-32.32-17.35-74.06-2.02-94.27,5.89-7.77,14.58-11.84,25.21-11.84.79,0,1.6.02,2.41.07,15.41.86,28.4,8.88,36.58,22.59,7.11,11.92,10.37,27.63,9.44,45.45-.96,18.46-6.5,38.89-16,59.07-7.89,16.75-6.08,30.35,5.21,39.32,14.06,11.17,38.35,11.55,51.97.8,11.98-9.45,13.29-26,3.69-46.59-9.73-20.88-14.49-42.31-14.12-63.68.29-17.16,3.87-34.31,10.64-50.95,11.15-27.45,27.58-44.83,29.61-46.92,22.19-26.78,54.83-42.14,89.59-42.14,31.06,0,60.27,12.1,82.24,34.06,21.97,21.97,34.06,51.17,34.06,82.24,0,14.65-2.69,28.93-8,42.45-.5,1.27-1.02,2.55-1.57,3.81-6.45,16.96-3.9,31.61,7,40.21,10.66,8.41,26.45,9,37.55,1.4,14.52-9.94,18.03-31.34,9.63-58.73-6.3-20.54-7.84-39.05-4.59-55,2.83-13.88,9.4-25.21,18.5-31.92,10.41-7.67,22.84-8.37,32.44-1.82,6.87,4.68,11.56,12.53,13.56,22.71,2.13,10.78,1.21,23.74-2.73,38.5-9.27,34.71.12,56.35,10.98,64.33,5.78,4.25,12.22,4.9,17.24,1.73,4.05-2.56,7.09-7.39,8.79-13.98,2.15-8.34,2.02-19.31-.36-31.71-5.84-30.4.39-55.54,17.11-68.96,11.5-9.23,26.37-11.29,39.78-5.5Z"/>
    <path class="st5" d="M247.96,352.72h0c-2.28-2.28-2.28-5.98,0-8.26l30.83-30.83c2.28-2.28,5.98-2.28,8.26,0h0c2.28,2.28,2.28,5.98,0,8.26l-30.83,30.83c-2.28,2.28-5.98,2.28-8.26,0Z"/>
    <path class="st5" d="M688.79,415.87h0c-2.28-2.28-2.28-5.98,0-8.26l30.83-30.83c2.28-2.28,5.98-2.28,8.26,0h0c2.28,2.28,2.28,5.98,0,8.26l-30.83,30.83c-2.28,2.28-5.98,2.28-8.26,0Z"/>
    <path class="st5" d="M452.15,274.94h0c.35-3.21,3.23-5.52,6.44-5.17l43.35,4.72c3.21.35,5.52,3.23,5.17,6.44h0c-.35,3.21-3.23,5.52-6.44,5.17l-43.35-4.72c-3.21-.35-5.52-3.23-5.17-6.44Z"/>
    <path class="st7" d="M436.01,198.71h0c1.89-2.61,5.54-3.19,8.15-1.3l35.29,25.61c2.61,1.89,3.19,5.54,1.3,8.15h0c-1.89,2.61-5.54,3.19-8.15,1.3l-35.29-25.61c-2.61-1.89-3.19-5.54-1.3-8.15Z"/>
    <path class="st7" d="M636.18,290.24h0c1.89-2.61,5.54-3.19,8.15-1.3l35.29,25.61c2.61,1.89,3.19,5.54,1.3,8.15h0c-1.89,2.61-5.54,3.19-8.15,1.3l-35.29-25.61c-2.61-1.89-3.19-5.54-1.3-8.15Z"/>
    <path class="st7" d="M480.75,330.35h0c1.89-2.61,5.54-3.19,8.15-1.3l35.29,25.61c2.61,1.89,3.19,5.54,1.3,8.15h0c-1.89,2.61-5.54,3.19-8.15,1.3l-35.29-25.61c-2.61-1.89-3.19-5.54-1.3-8.15Z"/>
    <path class="st12" d="M212.87,424.61h0c-2.97,1.24-6.39-.16-7.64-3.13l-16.83-40.23c-1.24-2.97.16-6.39,3.13-7.64h0c2.97-1.24,6.39.16,7.64,3.13l16.83,40.23c1.24,2.97-.16,6.39-3.13,7.64Z"/>
    <path class="st12" d="M588.32,246.09h0c-2.97,1.24-6.39-.16-7.64-3.13l-16.83-40.23c-1.24-2.97.16-6.39,3.13-7.64h0c2.97-1.24,6.39.16,7.64,3.13l16.83,40.23c1.24,2.97-.16,6.39-3.13,7.64Z"/>
    <path class="st12" d="M286.16,257.21h0c-1.24-2.97.16-6.39,3.13-7.64l40.23-16.83c2.97-1.24,6.39.16,7.64,3.13h0c1.24,2.97-.16,6.39-3.13,7.64l-40.23,16.83c-2.97,1.24-6.39-.16-7.64-3.13Z"/>
    <path class="st12" d="M586.3,409.78h0c-1.24-2.97.16-6.39,3.13-7.64l40.23-16.83c2.97-1.24,6.39.16,7.64,3.13h0c1.24,2.97-.16,6.39-3.13,7.64l-40.23,16.83c-2.97,1.24-6.39-.16-7.64-3.13Z"/>
    <path class="st6" d="M582.86,346.55h0c-3.21-.35-5.52-3.23-5.17-6.44l4.72-43.35c.35-3.21,3.23-5.52,6.44-5.17h0c3.21.35,5.52,3.23,5.17,6.44l-4.72,43.35c-.35,3.21-3.23,5.52-6.44,5.17Z"/>
    <path class="st6" d="M411.01,343.59h0c-2.43,2.12-6.12,1.87-8.24-.56l-28.66-32.87c-2.12-2.43-1.87-6.12.56-8.24h0c2.43-2.12,6.12-1.87,8.24.56l28.66,32.87c2.12,2.43,1.87,6.12-.56,8.24Z"/>
    <path class="st6" d="M319.75,437.92h0c-3.21-.35-5.52-3.23-5.17-6.44l4.72-43.35c.35-3.21,3.23-5.52,6.44-5.17h0c3.21.35,5.52,3.23,5.17,6.44l-4.72,43.35c-.35,3.21-3.23,5.52-6.44,5.17Z"/>
    <path class="st2" d="M210.06,711.15c39.96,45.81,92.57,79.96,150.71,97.74,58.25,17.82,121.31,19.26,180.3,4.05,56.51-14.57,108.75-44.32,150.15-85.44,42.08-41.79,72.33-94.81,87.01-152.27,4.36-18.9,7.88-37.73,9.33-57.1.94-12.66,1.99-25.55-1.33-37.94-3.82-14.27-13.77-28.97-29.9-30.05-30.59-2.05-35.06,37.04-31.67,58.76,3,19.19,6.75,43.46-8.61,58.82-15.89,15.89-38.65,4.42-48.04-12.48-5.45-9.8-7.67-21.12-7.83-32.25-.25-16.38,5.64-31.27,7.26-47.33.93-9.28.74-20.64-5.36-28.34-7.33-9.24-19.22-5.37-25.98,2.47-15.93,18.49-11.07,47.81-4.89,68.98,7.7,26.38,8.96,62.38-20.41,76.04-24.52,11.41-56.01-2.2-61-29.62-12.42,15.79-28.95,28.23-47.56,35.81-33.99,13.85-73.6,10.66-104.85-8.63-31.79-19.62-52.65-54.08-55.08-91.37-.69,4.58-1.13,9.19-1.3,13.81-.72,19.56,3.5,38.96,11.28,56.86,6.3,14.48,12.19,29.86,7.62,45.79-4.53,15.76-18.52,25.78-34.13,28.89-31.04,6.2-66.88-13.93-60.43-48.99,1.63-8.86,5.89-16.63,9.23-24.9,3.46-8.55,6.26-17.37,8.18-26.39,3.16-14.84,4.22-30.89-.19-45.6-3.98-13.27-13.1-24.98-27.37-27.5-14.78-2.61-23.8,5.82-26.52,19.73-2.84,14.53-.62,30.12,2.42,44.44,3.28,15.44,11.04,30.73,10.45,46.74-1.24,33.56-40.08,46.81-67.44,33.38-12.9-6.33-21.69-18.4-22.51-32.88-.99-17.47,9.28-33.06,12.7-49.81,3.2-15.65,3.59-33.6-4.09-48.09-3.9-7.35-12.87-17.04-21.73-11.3-6.05,3.91-8.71,12.17-10.21,18.79.02,9.44.43,18.89,1.24,28.3,5.98,69.54,34.7,136.31,80.55,188.87Z"/>
    <path class="st0" d="M679.2,456.4c2.13,10.78,1.21,23.74-2.73,38.5-9.27,34.71.12,56.35,10.98,64.33,3.43,2.52,7.08,3.76,10.54,3.71-16.96-10.46-24.05-35.97-14.5-74.35,11.65-46.86-17.85-54.9-17.85-54.9,6.87,4.68,11.56,12.53,13.56,22.71Z"/>
    <path class="st8" d="M330.73,631.97c3.01-1.21,5.8-2.78,8.24-4.7,11.98-9.45,13.29-26,3.69-46.59-9.73-20.88-14.49-42.31-14.12-63.68.29-17.16,3.87-34.31,10.64-50.95,11.15-27.45,27.58-44.83,29.61-46.92,12.35-14.9,27.93-26.25,45.3-33.4-94.81,32.83-105.01,144.17-81.58,188.85,15.95,30.4,7.8,48-1.78,57.4Z"/>
    <path class="st0" d="M288.35,482.63c7.11,11.92,10.37,27.63,9.44,45.45-.96,18.46-6.5,38.89-16,59.07-7.89,16.75-6.08,30.35,5.21,39.32,3.84,3.06,8.46,5.3,13.4,6.73-18.39-14.05-12.1-36.33-.83-64.16,17.33-42.77,11.99-112.96-47.8-109,15.41.86,28.4,8.88,36.58,22.59Z"/>
    <path class="st8" d="M209.3,527.42c6.03,27.35,16.95,62.54,2.93,79.88,2.18-.88,4.24-1.96,6.11-3.27,10.98-7.68,13.69-20.8,7.84-37.95-11.03-32.32-17.35-74.06-2.02-94.27,5.89-7.77,14.58-11.84,25.21-11.84-37.58-7.71-47.53,33.6-40.07,67.45Z"/>
    <path class="st11" d="M661.53,505.15c.68-4.3,1.63-8.78,2.88-13.47,7.28-27.27,1.78-42.51-5.8-47.67-5.17-3.52-11.9-2.94-18,1.56-7.11,5.24-13.4,16-14.78,32.23,7.23-27.51,23.85-23.35,29.81-11.7,5.55,10.83,7.23,28.02,5.89,39.06Z"/>
    <path class="st11" d="M273.77,574.46c14.02-33.52,15.6-65.74,3.86-85.43-6.07-10.18-15.25-15.89-26.55-16.52-7.62-.43-13.17,1.82-16.98,6.85-2.71,3.57-4.5,8.34-5.52,13.94h0c29.54-32.43,63.82,33.84,45.19,81.16Z"/>
    <path class="st8" d="M736.99,381.43c8.29,20.59,2.12,44.03-14.87,58.32-22.22,18.69-25.19,48.24-17.95,71.67,7.46,24.11,4.15,40.52.59,49.48,4-2.57,7.01-7.38,8.69-13.91,2.15-8.34,2.02-19.31-.36-31.71-5.84-30.4.39-55.54,17.11-68.96,11.5-9.23,26.37-11.29,39.78-5.5,6.02,2.6,11.46,6.68,16.02,11.99-19.18-156.07-147.71-278.79-306.36-288.93,164.02,46.25,230.92,151.88,257.34,217.56Z"/>
    <path class="st0" d="M129.36,466.46c3.43-2.84,6.79-4.2,9.34-4.85,3.14-.8,6.34-.89,9.48-.33,12.58-157.07,132.91-246.32,132.92-246.33-84.72,54.15-143.2,145.88-151.74,251.51Z"/>
    <path class="st0" d="M566.68,535.74c-.5,1.27-1.02,2.55-1.57,3.81-6.45,16.96-3.9,31.61,7,40.21,2.85,2.25,6.07,3.93,9.46,5.06-7.44-8.89-15.04-25.1-3.92-49.12,16.96-36.66,8.92-146.09-104.37-157.76,25.42,3.23,48.92,14.7,67.34,33.12.83.83,1.64,1.67,2.44,2.53,2.8,2.71,5.28,5.64,7.49,8.76,15.65,20.24,24.13,44.94,24.13,70.95,0,14.65-2.69,28.93-8,42.45Z"/>
    <path class="st0" d="M138.69,461.61c9.27-2.36,18.98,1.39,26.62,10.27,7.59,8.82,12.34,21.89,13.35,36.8,1.16,17.02-2.53,36.27-10.69,55.66-6.76,16.08-4.78,29.54,5.58,37.91,4.73,3.82,10.82,6.25,17.22,7.25-35.51-22.16-8.04-31.93-5.32-90.38,1.78-38.1-27.78-95.78-56.11-52.66,0,0,0,0,0,0,3.43-2.84,6.78-4.2,9.34-4.85Z"/>
    <path class="st11" d="M549.81,565.2c-21.73,27.62-55.22,44.39-91.44,44.39-31.06,0-60.27-12.1-82.24-34.06-20.14-20.14-31.98-46.36-33.81-74.52-2.05,13.53-1.82,27.1.68,40.66,0,.02,0,.04.01.06.83,4.49,1.91,8.97,3.24,13.46,0,0,0,.01,0,.02.26.86.52,1.73.8,2.59.02.07.04.13.06.2.27.83.54,1.66.82,2.48.02.06.04.12.06.18.61,1.77,1.25,3.54,1.94,5.32,22.3,50.64,135.61,93.53,199.86-.76Z"/>
    <polygon class="st8" points="642.69 430.6 642.69 430.6 642.69 430.6 642.69 430.6"/>
    <path class="st8" d="M605.22,583.66c1.54-.7,3.03-1.53,4.43-2.5,14.52-9.94,18.03-31.34,9.63-58.73-6.3-20.54-7.84-39.05-4.59-55,2.83-13.88,9.4-25.21,18.5-31.92,1.34-.99,2.72-1.86,4.12-2.62-38.7,18.24-35.33,56.65-30.23,81.82,4.52,22.31,18.59,49.84-1.86,68.93Z"/>
    <path class="st11" d="M762.73,559.5c-15.95,75.88-79.41,214.28-254.29,260.11,129.32-19.71,236.66-114.67,269.79-244.37,0-.04.02-.07.03-.11,6.76-26.51,10.2-53.95,10.23-81.58-1.69-20.53-10.22-35.57-23.44-41.27-9.09-3.92-19.19-2.51-27.02,3.78-12.99,10.43-17.61,31.16-12.67,56.87,12.67-56.87,54.07-32.86,37.37,46.58Z"/>
    <path class="st1" d="M774.04,359.94c-26.31-62.21-71.2-116-127.63-153.1-60.22-39.59-132.27-59.08-204.23-55.75-70.58,3.26-139.38,28.78-194.97,72.4-54.13,42.48-94.85,100.95-115.6,166.58-22.29,70.49-20.93,147.92,3.74,217.6,21.85,61.71,61.6,116.52,113.35,156.59,54.28,42.04,120.79,66.99,189.33,71.03,71.78,4.23,144.05-14.39,204.64-53.15,58.7-37.55,105.34-92.93,132.11-157.28,28.03-67.37,33.71-143.47,16.13-214.28-4.29-17.28-9.95-34.23-16.89-50.63ZM458.38,163.19c168.31,0,307.61,126.63,327.63,289.61-6.82-7.94-16.24-13.61-26.73-14.93-16.63-2.09-32.05,7.38-40.18,21.56-8.06,14.04-9.24,31.11-7.39,46.89,1.87,15.89,8.79,38.95-4.2,52.29-11.12,11.42-25.07-1.57-29.97-12.26-6.68-14.59-5.66-31.84-2.16-47.09,4.07-17.79,8.87-37.65-.32-54.81-8.67-16.18-28.13-19.47-42.48-8.46-13.55,10.4-18.81,28.4-19.47,44.81-.39,9.64.73,19.3,2.77,28.72,2.08,9.61,5.56,18.84,7.01,28.59,2.07,13.94,1.01,30.55-10.16,40.63-11.49,10.37-30.36,10.23-41.89-.04-10.46-9.32-10.78-23.97-6.68-36.48,2.67-8.14,6.07-15.81,7.89-24.25,2.08-9.65,2.92-19.56,2.52-29.42-.7-17.66-5.43-35.09-13.86-50.63-17.34-31.94-49.45-54.52-85.44-59.72-34.57-5-70.25,5.96-95.89,29.72-39.05,36.19-59.73,91.61-46.85,144.18,2.42,9.87,5.98,19.3,10.13,28.57,3.65,8.15,6.66,16.88,6.33,25.93-.58,15.79-12.85,25.64-27.75,27.93-14.22,2.18-32.12-1.9-40.36-14.72-10.24-15.91,2.15-33.71,7.66-48.82,11.29-31.01,18.07-78.3-11.77-101.68-12.04-9.43-31.3-13.22-44.91-4.62-19.66,12.43-18.12,42.33-15.27,62.23,1.27,8.85,3.19,17.6,5.59,26.21,2.34,8.42,6.01,16.69,6.83,25.45,1.44,15.39-7.72,27.29-22.77,30.53-14.31,3.08-32.98-1.47-39.72-15.7-7.96-16.81,5.07-35.54,8.98-51.72,4.36-18.02,5.26-37.85-1.68-55.37-5.55-14.01-18.91-29.24-35.66-24.57-3.23.9-6.23,2.57-8.81,4.71,13.7-169.52,156.04-303.27,329.02-303.27ZM553.61,534.7c-17.27,39.66-58.56,64.89-101.72,62.21-39.56-2.45-75.12-28.27-89.89-65.03-17.24-42.92-3.04-93.57,33.82-121.46,34.79-26.32,83.85-27.73,120.09-3.51,41.24,27.55,57.6,82.15,37.7,127.79,0,0,0,0,0,0ZM778.23,575.24c-14.68,57.46-44.92,110.47-87.01,152.27-41.4,41.12-93.64,70.87-150.15,85.44-58.99,15.21-122.05,13.76-180.3-4.05-58.14-17.78-110.75-51.93-150.71-97.74-45.85-52.56-74.57-119.33-80.55-188.87-.81-9.41-1.22-18.85-1.24-28.3,1.5-6.62,4.16-14.88,10.21-18.79,8.86-5.74,17.83,3.95,21.73,11.3,7.68,14.49,7.29,32.44,4.09,48.09-3.42,16.75-13.69,32.34-12.7,49.81.82,14.48,9.61,26.55,22.51,32.88,27.36,13.43,66.2.18,67.44-33.38.59-16.01-7.17-31.3-10.45-46.74-3.04-14.31-5.27-29.9-2.42-44.44,2.72-13.91,11.74-22.34,26.52-19.73,14.26,2.52,23.39,14.23,27.37,27.5,4.41,14.71,3.35,30.76.19,45.6-1.92,9.02-4.73,17.84-8.18,26.39-3.34,8.26-7.6,16.04-9.23,24.9-6.45,35.06,29.39,55.18,60.43,48.99,15.61-3.12,29.6-13.14,34.13-28.89,4.58-15.93-1.32-31.31-7.62-45.79-7.78-17.9-12-37.3-11.28-56.86.17-4.63.61-9.24,1.3-13.81,2.42,37.29,23.29,71.75,55.08,91.37,31.25,19.29,70.86,22.48,104.85,8.63,18.61-7.58,35.13-20.02,47.56-35.81,4.99,27.42,36.48,41.03,61,29.62,29.37-13.67,28.11-49.66,20.41-76.04-6.18-21.17-11.04-50.5,4.89-68.98,6.75-7.84,18.65-11.71,25.98-2.47,6.1,7.69,6.3,19.06,5.36,28.34-1.62,16.07-7.51,30.96-7.26,47.33.17,11.13,2.39,22.45,7.83,32.25,9.39,16.9,32.15,28.37,48.04,12.48,15.36-15.36,11.61-39.63,8.61-58.82-3.39-21.71,1.08-60.81,31.67-58.76,16.13,1.08,26.07,15.78,29.89,30.05,3.32,12.39,2.28,25.28,1.33,37.94-1.44,19.37-4.97,38.2-9.33,57.1Z"/>
  </g>
  <path class="st3" d="M730.51,596.72c-40.71,112.38-148.51,192.89-274.76,192.89s-233.06-79.77-274.19-191.33l-20.46-.35c2.38,6.97,5.02,13.88,7.9,20.71,7.8,18.44,17.45,36.23,28.69,52.87,11.13,16.48,23.91,31.97,38,46.05,14.08,14.08,29.57,26.86,46.05,38,16.64,11.24,34.42,20.89,52.87,28.69,38.37,16.23,79.13,24.46,121.14,24.46s82.76-8.23,121.14-24.46c18.44-7.8,36.23-17.45,52.87-28.69,16.48-11.13,31.97-23.91,46.05-38s26.86-29.57,38-46.05c11.24-16.64,20.89-34.42,28.69-52.87,3.3-7.8,6.27-15.7,8.91-23.69l-20.89,1.77Z"/>
  <path class="st3" d="M429.4,780.29c-2.68-.21-5.09-.91-7.22-2.1-2.13-1.19-3.77-2.89-4.93-5.1-1.16-2.2-1.62-4.95-1.36-8.23.2-2.61.79-4.8,1.76-6.58.97-1.77,2.22-3.17,3.73-4.19,1.52-1.02,3.19-1.73,5.01-2.12,1.82-.39,3.67-.52,5.54-.37,1.24.1,2.51.28,3.82.56,1.31.28,2.71.71,4.19,1.28l-1.24,3.58c-1.41-.64-2.67-1.06-3.79-1.25-1.12-.19-2.18-.33-3.17-.4-1.77-.14-3.49.07-5.19.61-1.69.54-3.13,1.54-4.31,3-1.18,1.45-1.87,3.52-2.08,6.21-.19,2.51.14,4.57,1.01,6.18.87,1.61,2.11,2.84,3.71,3.67,1.6.83,3.41,1.33,5.43,1.48,1.31.1,2.54.13,3.7.1,1.16-.03,2.5-.26,4.02-.67l.31,3.54c-1.49.45-2.96.73-4.41.83s-2.96.09-4.55-.03Z"/>
  <path class="st3" d="M458.77,780.74c-2.34.07-4.44-.45-6.3-1.58-1.86-1.13-3.36-2.74-4.49-4.85-1.13-2.11-1.74-4.61-1.84-7.51-.09-2.9.35-5.44,1.32-7.62.97-2.17,2.36-3.89,4.17-5.16,1.8-1.26,3.87-1.93,6.21-2.01,2.41-.08,4.56.46,6.46,1.6,1.9,1.14,3.41,2.77,4.54,4.88,1.13,2.11,1.74,4.61,1.84,7.52.09,2.9-.36,5.44-1.35,7.62-.99,2.18-2.4,3.89-4.22,5.13-1.82,1.25-3.93,1.91-6.34,1.98ZM458.7,776.92c2.41-.08,4.32-1.07,5.72-2.97,1.41-1.91,2.06-4.5,1.96-7.8-.11-3.29-.93-5.86-2.48-7.71-1.55-1.85-3.53-2.73-5.93-2.65-2.34.07-4.2,1.08-5.59,3.02-1.39,1.94-2.03,4.56-1.93,7.85.11,3.29.93,5.84,2.48,7.65s3.47,2.68,5.77,2.6Z"/>
  <path class="st3" d="M480.61,778.84l-3.8-26.5c1.79-.76,3.53-1.35,5.22-1.79,1.69-.44,3.18-.75,4.48-.94,2.28-.33,4.3-.23,6.05.29,1.76.52,3.2,1.56,4.34,3.14,1.14,1.57,1.91,3.8,2.32,6.67l2.31,16.14-4.1.59-2.19-15.3c-.36-2.52-.95-4.36-1.76-5.52-.81-1.15-1.78-1.86-2.91-2.13-1.13-.27-2.36-.31-3.69-.12-.88.13-1.8.31-2.76.56-.97.25-1.89.52-2.78.83l3.37,23.51-4.1.59Z"/>
  <path class="st3" d="M517.83,772.25l-6.01-23.19-5.5,1.43-.89-3.45,5.5-1.43-.69-2.67c-.7-2.71-.78-4.95-.23-6.72.55-1.77,1.51-3.18,2.88-4.23,1.37-1.05,2.94-1.8,4.68-2.26,1.37-.36,2.77-.55,4.21-.6,1.43-.04,2.8-.03,4.1.04l.16,3.8c-.95-.27-2.09-.38-3.44-.34-1.34.04-2.68.23-4.02.58-1.1.28-2.06.76-2.89,1.44-.83.67-1.4,1.6-1.7,2.77-.3,1.18-.21,2.67.26,4.49l.69,2.67,10.7-2.77.89,3.45-10.7,2.77,6.01,23.19-4.01,1.04Z"/>
  <path class="st3" d="M555.15,761.17c-3.01,1.15-5.71,1.49-8.11,1.02-2.4-.47-4.45-1.55-6.16-3.25-1.71-1.7-3.03-3.77-3.97-6.22-.87-2.28-1.28-4.4-1.23-6.35.05-1.95.45-3.71,1.2-5.26.75-1.56,1.73-2.88,2.95-3.97,1.21-1.09,2.57-1.92,4.05-2.49,3.34-1.28,6.36-1.21,9.06.2,2.7,1.41,4.9,4.34,6.59,8.77.05.13.13.33.23.6.1.27.2.51.28.74l-18.91,7.23c1.39,2.84,3.19,4.7,5.4,5.58,2.21.88,4.82.74,7.83-.41,1.69-.65,3.04-1.31,4.07-2.01,1.02-.69,1.74-1.25,2.15-1.67l1.8,3.07c-.28.45-1.1,1.12-2.44,2.01-1.35.89-2.94,1.69-4.8,2.4ZM539.99,748.71l14.64-5.6c-.62-1.62-1.43-2.88-2.44-3.79-1.01-.9-2.13-1.47-3.35-1.7-1.23-.23-2.48-.1-3.77.39-1.49.57-2.66,1.44-3.52,2.62-.86,1.18-1.41,2.49-1.65,3.93-.25,1.44-.21,2.82.1,4.14Z"/>
  <path class="st3" d="M587.9,746.09c-2.02,1.04-3.77,1.48-5.26,1.34-1.49-.15-2.83-.82-4-2.03-1.18-1.2-2.34-2.91-3.47-5.11l-6.23-12.09-7.22,3.73-1.63-3.16,10.81-5.58,7.74,15.01c.93,1.79,1.8,3.09,2.63,3.88s1.65,1.19,2.47,1.2c.82.01,1.68-.21,2.56-.66,1.13-.58,2.06-1.24,2.78-1.97.72-.73,1.2-1.28,1.45-1.65l2.17,2.94c-.03.1-.25.39-.65.87-.41.49-.96,1.03-1.67,1.64-.7.6-1.53,1.15-2.47,1.63ZM565.98,720.64c-.88.45-1.8.54-2.74.25-.95-.29-1.68-.94-2.2-1.94-.54-1.04-.64-2.02-.32-2.94.32-.92.92-1.61,1.8-2.07.91-.47,1.82-.56,2.73-.27.91.29,1.63.95,2.16,1.99.52,1.01.64,1.97.36,2.89-.28.92-.88,1.62-1.79,2.09Z"/>
  <path class="st3" d="M615.05,729.47c-2.39,1.59-4.43,2.38-6.13,2.38-1.7,0-3.21-.58-4.54-1.74-1.32-1.16-2.61-2.69-3.87-4.57l-7.35-11.06-4.69,3.12-1.97-2.96,4.69-3.12-4.38-6.59,3.04-2.91,4.79,7.21,9.73-6.47,1.97,2.96-9.73,6.47,7.38,11.11c1.08,1.62,2.08,2.78,3,3.46.92.68,1.88.95,2.86.81s2.11-.64,3.38-1.48c1.18-.78,2.04-1.52,2.59-2.2.55-.68,1.01-1.32,1.38-1.91l2.47,2.57c-.16.27-.59.91-1.28,1.91-.7,1-1.82,2-3.35,3.02Z"/>
  <path class="st3" d="M637.39,712.4c-1.09.91-2.24,1.72-3.46,2.44-1.22.72-2.48,1.21-3.77,1.45-1.29.25-2.58.16-3.86-.27-1.28-.43-2.5-1.34-3.66-2.72-1.34-1.6-1.96-3.25-1.86-4.96.1-1.7.67-3.34,1.7-4.92,1.03-1.58,2.28-2.98,3.75-4.21.79-.66,1.6-1.25,2.42-1.78.83-.53,1.66-1.01,2.5-1.44l-.95-1.14c-.75-.9-1.61-1.66-2.57-2.28-.96-.63-2.04-.9-3.25-.82-1.2.08-2.54.73-4,1.96-1.36,1.14-2.45,2.22-3.27,3.25-.82,1.03-1.38,1.84-1.69,2.41l-2.65-2.42c.28-.6.93-1.49,1.94-2.65,1.01-1.17,2.21-2.33,3.59-3.49,2.06-1.73,3.98-2.75,5.74-3.07,1.76-.32,3.4-.1,4.9.65,1.5.75,2.9,1.9,4.2,3.45l11.17,13.37c-.79.93-1.79,2.08-3.02,3.43-1.23,1.35-2.53,2.6-3.92,3.76ZM634.83,709.84c1.03-.86,1.92-1.67,2.65-2.42.73-.75,1.29-1.37,1.66-1.87l-5.59-6.68c-.63.25-1.36.62-2.21,1.12-.85.5-1.7,1.11-2.54,1.81-.95.79-1.8,1.69-2.54,2.68-.74.99-1.19,2.01-1.33,3.05-.14,1.04.19,2.05,1.01,3.03,1.25,1.5,2.61,2.11,4.08,1.85s3.07-1.11,4.81-2.57Z"/>
  <path class="st3" d="M654.3,696.31l-18.85-18.1c.94-1.9,1.99-3.7,3.14-5.42,1.16-1.71,2.39-3.26,3.72-4.64.64-.66,1.22-1.24,1.73-1.73.52-.49,1.06-.95,1.63-1.39.57-.44,1.23-.93,2-1.47l2.05,3c-.79.47-1.45.9-1.98,1.3-.53.4-1.02.82-1.46,1.25-.44.44-.95.95-1.51,1.53-.91.95-1.75,1.95-2.51,3-.77,1.06-1.45,2.18-2.05,3.37l16.97,16.3-2.87,2.99Z"/>
  <path class="st3" d="M654.13,648.35c-.6.79-1.4,1.25-2.38,1.39-.98.14-1.92-.13-2.82-.83-.93-.71-1.44-1.55-1.54-2.53-.1-.97.15-1.85.75-2.64.63-.81,1.41-1.28,2.36-1.41.94-.12,1.88.17,2.8.88.9.69,1.42,1.51,1.55,2.47.14.96-.11,1.84-.73,2.65ZM684.78,662.09c-1.38,1.8-2.78,2.94-4.19,3.44-1.41.5-2.91.46-4.49-.13-1.58-.59-3.35-1.64-5.32-3.15l-10.78-8.29-4.96,6.44-2.82-2.17,7.42-9.64,13.39,10.3c1.6,1.23,2.94,2.03,4.02,2.39,1.08.36,2,.38,2.75.04.75-.34,1.43-.9,2.03-1.69.78-1.01,1.34-2,1.68-2.97.34-.97.55-1.67.62-2.11l3.22,1.74c.01.1-.06.46-.22,1.07-.16.61-.43,1.34-.81,2.19-.38.85-.9,1.69-1.54,2.53Z"/>
  <path class="st3" d="M700.14,639.08c-.74,1.21-1.56,2.35-2.49,3.43-.92,1.08-1.96,1.94-3.1,2.59-1.14.65-2.39.98-3.74.99-1.35,0-2.8-.46-4.34-1.39-1.79-1.08-2.9-2.45-3.36-4.09-.45-1.64-.44-3.38.02-5.21.47-1.83,1.2-3.56,2.19-5.19.53-.88,1.11-1.7,1.72-2.47.61-.77,1.25-1.49,1.91-2.17l-1.27-.77c-1-.61-2.05-1.05-3.17-1.33-1.11-.28-2.22-.19-3.34.27-1.11.47-2.16,1.51-3.16,3.15-.92,1.51-1.6,2.89-2.04,4.13-.44,1.24-.72,2.19-.82,2.83l-3.29-1.44c.07-.66.4-1.71.97-3.14.58-1.43,1.34-2.92,2.27-4.46,1.4-2.3,2.88-3.89,4.44-4.76,1.57-.87,3.18-1.2,4.85-.97,1.67.22,3.36.86,5.09,1.91l14.89,9.05c-.44,1.14-1.03,2.55-1.75,4.22-.73,1.67-1.56,3.28-2.49,4.82ZM696.89,637.48c.7-1.15,1.27-2.2,1.73-3.15.45-.95.77-1.72.96-2.3l-7.45-4.52c-.51.43-1.09,1.03-1.73,1.78-.64.75-1.25,1.59-1.82,2.53-.64,1.06-1.16,2.18-1.54,3.35-.38,1.18-.47,2.28-.27,3.31.2,1.03.85,1.88,1.94,2.54,1.66,1.01,3.15,1.16,4.46.44,1.31-.72,2.55-2.05,3.72-3.98Z"/>
  <path class="st3" d="M943.64,388.69c1.18-5.57-.22-11.38-3.8-15.81-3.59-4.43-8.98-7-14.67-7h-51.85c-3.14,0-6.13.77-8.77,2.16-6.74-2.66-14.79-3.96-24.35-3.96-24.41,0-45.72,8.63-63.35,25.65-16.07,15.52-28.29,34.65-36.32,56.85-1.91,5.28-3.59,10.53-5.04,15.73l31.01-145.61c1.28-6.01-.44-12.27-4.62-16.78-3.6-3.88-8.63-6.05-13.85-6.05-.84,0-1.69.06-2.53.17l-53.29,7.2c-7.9,1.07-14.28,6.98-15.94,14.77l-38.39,179.75c-1.75,5.93-4.32,10.5-7.85,13.96-.33.33-.65.62-.96.89l41.3-193.92c1.28-6.01-.44-12.27-4.62-16.78-3.6-3.88-8.63-6.05-13.85-6.05-.84,0-1.69.06-2.53.17l-53.29,7.2c-7.9,1.07-14.28,6.98-15.94,14.77l-38.39,179.74c-1.75,5.93-4.32,10.5-7.85,13.96-.33.33-.65.62-.96.89l25.82-121.93c1.04-4.89.08-9.96-2.59-14.12l75.17-201.44c2.16-5.8,1.35-12.29-2.18-17.37-3.53-5.08-9.33-8.12-15.52-8.12h-48.61c-8.07,0-15.25,5.13-17.87,12.76l-72.6,211.56c-2.25,2.43-3.89,5.48-4.61,8.91,0,0-.97,4.56-2.51,11.86l-30.95,90.2-4.67-318.76c-.14-9.76-7.71-17.81-17.44-18.56-12.69-.97-22.25-1.44-29.22-1.44-4.66,0-9.48-.16-14.58-.34-5.18-.18-10.54-.36-15.82-.36-18.72,0-39.7,2.13-53.39,17.97-10.18,11.77-13.71,28.03-10.76,49.68l3.59,153.17c-21.81,1.36-40.99,9.9-57.09,25.45-13.95,13.48-25.01,29.67-32.93,48.24l25.83-121.27c1.28-6.01-.44-12.27-4.62-16.78-3.6-3.88-8.63-6.05-13.85-6.05-.84,0-1.69.06-2.53.17l-53.29,7.2c-7.9,1.07-14.28,6.98-15.94,14.78l-10.64,49.93c-5.22-1.26-11.1-1.88-17.7-1.88-24.41,0-45.72,8.63-63.35,25.65-16.07,15.52-28.29,34.65-36.32,56.85-7.8,21.55-11.75,42.55-11.75,62.41,0,24.92,6.41,44.14,19.04,57.11,12.77,13.11,28.83,19.75,47.73,19.75,15.72,0,29.76-4.33,41.74-12.86,2.36-1.68,4.64-3.46,6.85-5.34,1.16,1.24,2.39,2.42,3.69,3.54,9.62,8.3,21.83,12.51,36.28,12.51s28.24-3.33,40.31-9.91c4.2-2.29,8.23-4.98,12.06-8.05.12.12.23.24.35.36,12.77,13.11,28.83,19.75,47.73,19.75,14.1,0,27.31-3.78,39.25-11.24,1.35-.84,2.68-1.74,4-2.68l2.63,112.41c.24,10.26,8.62,18.45,18.88,18.45h100c7.88,0,14.94-4.9,17.7-12.28l40.35-108.13c6.44,2.29,13.48,3.48,20.97,3.48,17.4,0,34.85-5.72,51.85-17.01.49-.32.97-.65,1.45-.99.48.53.96,1.04,1.46,1.55,10.58,10.76,24.88,16.45,41.37,16.45,17.4,0,34.85-5.72,51.85-17.01.48-.32.97-.65,1.45-.99.48.53.96,1.04,1.46,1.55,10.58,10.76,24.88,16.45,41.37,16.45,17.4,0,51.85-17.01,51.85-17.01,0,0,2.68-1.85,3.99-2.86.04.04.08.08.12.12,12.77,13.11,28.83,19.75,47.73,19.75,14.1,0,27.31-3.78,39.25-11.24,3.12-1.95,6.16-4.15,9.11-6.61,1.12,1.31,2.29,2.56,3.54,3.75,9.59,9.22,22.4,14.09,37.03,14.09,18.31,0,29.14-7.85,35-14.44,6.35-7.14,12.43-18.23,18.58-33.9,2.86-7.28.94-15.57-4.83-20.85-3.56-3.26-8.13-4.95-12.75-4.95-.99,0-1.98.08-2.96.23.07-.28.14-.56.2-.83l25.92-122.42ZM101.23,496.4c-.24,1.11-.37,2.23-.41,3.36-1.29,4.58-3.2,7.96-5.8,10.3-1.48,1.32-2.64,2.11-3.47,2.55-.26-1.83-.49-4.6-.49-8.66,0-10.25,1.95-22.56,5.81-36.58,3.74-13.62,8.91-25.27,15.35-34.63.91-1.32,2.16-3,3.6-4.53l-14.59,68.18ZM290.62,496.36c-1.33,6.05-3.58,10.62-6.67,13.59-1.43,1.37-2.57,2.18-3.38,2.64-.26-1.83-.49-4.6-.49-8.63,0-10.25,1.95-22.56,5.81-36.58,2.66-9.69,6.05-18.37,10.1-25.95l.63,26.72-5.99,28.22ZM728.79,506.7c-.81,1.09-1.68,2.1-2.63,3.03-.33.33-.65.62-.96.89l5.31-24.95c-1.04,7.13-1.62,14.15-1.72,21.04ZM830.37,496.36c-1.33,6.05-3.58,10.62-6.67,13.59-1.43,1.37-2.57,2.18-3.38,2.64-.26-1.83-.49-4.6-.49-8.63,0-10.25,1.95-22.56,5.81-36.58,3.74-13.62,8.91-25.27,15.35-34.63.97-1.41,2.35-3.25,3.93-4.86l-14.54,68.47Z"/>
  <path class="st2" d="M309.45,209.58c-8.24-56.59,37.73-46.53,75.7-46.53,6.48,0,15.73.47,27.78,1.39l6.25,427.1,145.84-425.02h48.61l-193.06,517.38h-100l-11.11-474.32Z"/>
  <path class="st3" d="M524.07,384.22c-12.9,0-24.49-4.78-33.53-13.82-9.03-9.02-13.81-20.61-13.81-33.51s4.73-24.42,13.67-33.56c9.05-9.25,20.69-14.13,33.66-14.13s24.53,4.84,33.69,13.99c9.16,9.17,14,20.82,14,33.7s-4.89,24.61-14.14,33.66c-9.14,8.94-20.74,13.67-33.56,13.67Z"/>
  <path class="st10" d="M524.07,365.33c7.92,0,14.7-2.76,20.34-8.28,5.64-5.52,8.46-12.24,8.46-20.16s-2.82-14.7-8.46-20.34c-5.64-5.64-12.42-8.46-20.34-8.46s-14.64,2.82-20.16,8.46c-5.52,5.64-8.28,12.42-8.28,20.34s2.76,14.64,8.28,20.16c5.52,5.52,12.24,8.28,20.16,8.28Z"/>
  <path class="st10" d="M901.22,528.98c-2.28-2.04-3.42-5.46-3.42-10.26,0-4.08.48-7.92,1.44-11.52l25.92-122.42h-51.85l-3.96,19.08v-2.52c0-5.52-2.4-9.96-7.2-13.32-4.8-3.36-12.12-5.04-21.96-5.04-19.44,0-36.18,6.78-50.23,20.34-14.04,13.56-24.61,30.13-31.68,49.69-7.08,19.57-10.62,38.23-10.62,55.99,0,1.02.02,2.03.04,3.02-2.28,4.25-5.05,7.99-8.32,11.2-6,5.88-12.48,8.82-19.44,8.82-5.28,0-9.06-1.02-11.34-3.06-2.28-2.04-3.42-5.46-3.42-10.26,0-4.08.48-7.92,1.44-11.52l41.41-194.43-53.29,7.2-38.53,180.38s0,0,0,0c-2.64,9.36-6.96,16.98-12.96,22.85-6,5.88-12.48,8.82-19.44,8.82-5.28,0-9.06-1.02-11.34-3.06-2.28-2.04-3.42-5.46-3.42-10.26,0-4.08.48-7.92,1.44-11.52l41.41-194.43-53.29,7.2-38.53,180.38s0,0,0,0c-2.64,9.36-6.96,16.98-12.96,22.86-6,5.88-12.48,8.82-19.44,8.82-5.28,0-9.06-1.02-11.34-3.06-2.28-2.04-3.42-5.46-3.42-10.26,0-4.08.48-7.92,1.44-11.52l25.92-122.42h-51.85l-24.48,115.58c-1.92,9.6-2.88,17.41-2.88,23.4,0,14.4,3.54,25.2,10.62,32.4,7.08,7.2,16.38,10.8,27.9,10.8,13.68,0,27.48-4.62,41.41-13.86,6.22-4.13,11.94-9.93,17.16-17.4,1.48,8.59,4.7,15.41,9.67,20.46,7.08,7.2,16.38,10.8,27.9,10.8,13.68,0,27.48-4.62,41.41-13.86,6.22-4.13,11.94-9.93,17.16-17.4,1.48,8.59,4.7,15.41,9.67,20.46,7.08,7.2,16.38,10.8,27.9,10.8,13.68,0,27.48-4.62,41.41-13.86,6.47-4.3,12.4-10.4,17.79-18.31,2.28,7.38,5.71,13.42,10.3,18.13,9.12,9.36,20.52,14.04,34.2,14.04,21.12,0,39-11.16,53.65-33.48,1.44,10.57,5.22,18.78,11.34,24.66,6.12,5.88,14.1,8.82,23.94,8.82,9.12,0,16.08-2.7,20.88-8.1,4.8-5.4,9.84-14.82,15.12-28.26-1.92.96-4.56,1.44-7.92,1.44-5.28,0-9.06-1.02-11.34-3.06ZM848.83,500.35c-2.16,9.85-6.18,17.59-12.06,23.22-5.88,5.64-11.83,8.46-17.82,8.46-5.04,0-9.3-1.68-12.78-5.04-3.48-3.36-5.22-11.04-5.22-23.04s2.16-25.86,6.48-41.59c4.32-15.72,10.32-29.16,18-40.33,7.68-11.16,16.32-16.74,25.92-16.74,5.04,0,8.76,1.5,11.16,4.5,2.4,3,3.6,6.06,3.6,9.18l-17.28,81.37Z"/>
  <path class="st10" d="M385.42,384.78h-51.85l-3.96,19.08v-2.52c0-5.52-2.4-9.96-7.2-13.32-4.8-3.36-12.12-5.04-21.96-5.04-19.44,0-36.18,6.78-50.23,20.34-14.04,13.56-24.61,30.13-31.68,49.69-7.08,19.57-10.62,38.23-10.62,55.99,0,1.15.02,2.28.05,3.4-2.06,4.22-4.42,7.89-7.07,11-4.92,5.76-10.75,8.64-17.46,8.64-5.28,0-9.06-1.02-11.34-3.06-2.28-2.04-3.42-5.46-3.42-10.26,0-4.08.48-7.92,1.44-11.52l41.41-194.43-53.29,7.2-17.64,82.81v-1.44c0-5.52-2.4-9.96-7.2-13.32-4.8-3.36-12.12-5.04-21.96-5.04-19.44,0-36.18,6.78-50.23,20.34-14.04,13.56-24.61,30.13-31.68,49.69-7.08,19.57-10.62,38.23-10.62,55.99,0,19.93,4.56,34.56,13.68,43.93,9.12,9.36,20.52,14.04,34.2,14.04,11.76,0,22.02-3.12,30.78-9.36,8.76-6.24,16.26-14.16,22.5-23.76,1.44,10.08,5.22,17.77,11.34,23.04,6.12,5.28,14.1,7.92,23.94,7.92,23.09,0,41.7-10.14,55.83-30.42,2.28,7.56,5.75,13.74,10.41,18.54,9.12,9.36,20.52,14.04,34.2,14.04,21.12,0,39-11.16,53.65-33.48,1.44,10.57,5.22,18.78,11.34,24.66,6.12,5.88,14.1,8.82,23.94,8.82,9.12,0,16.08-2.7,20.88-8.1,4.8-5.4,9.84-14.82,15.12-28.26-1.92.96-4.56,1.44-7.92,1.44-5.28,0-9.06-1.02-11.34-3.06-2.28-2.04-3.42-5.46-3.42-10.26,0-4.08.48-7.92,1.44-11.52l25.92-122.42ZM119.7,500.35v1.8c-2.16,9.36-6.18,16.69-12.06,21.96-5.88,5.28-11.7,7.92-17.46,7.92-5.04,0-9.3-1.68-12.78-5.04-3.48-3.36-5.22-11.04-5.22-23.04s2.16-25.86,6.48-41.59c4.32-15.72,10.32-29.16,18-40.33,7.68-11.16,16.32-16.74,25.92-16.74,7.68,0,12.6,4.2,14.76,12.6l-17.64,82.45ZM309.09,500.35c-2.16,9.85-6.18,17.59-12.06,23.22-5.88,5.64-11.83,8.46-17.82,8.46-5.04,0-9.3-1.68-12.78-5.04-3.48-3.36-5.22-11.04-5.22-23.04s2.16-25.86,6.48-41.59c4.32-15.72,10.32-29.16,18-40.33,7.68-11.16,16.32-16.74,25.92-16.74,5.04,0,8.76,1.5,11.16,4.5,2.4,3,3.6,6.06,3.6,9.18l-17.28,81.37Z"/>
  <path class="st9" d="M562.23,330.31c.73.32,1.4.81,1.95,1.46-2.44-19.86-19.42-35.3-39.93-35.3s-38.43,16.3-40.1,36.96c.42-.35.83-.51,1.14-.59,1.13-.29,2.31.17,3.24,1.25.93,1.08,1.5,2.67,1.63,4.49.14,2.07-.31,4.42-1.3,6.78-.82,1.96-.58,3.6.68,4.62,1.45,1.17,3.95,1.27,5.46.22,1.34-.94,1.67-2.53.96-4.63-1.34-3.94-2.11-9.03-.25-11.49.72-.95,1.78-1.44,3.07-1.44.1,0,.19,0,.29,0,1.88.1,3.46,1.08,4.46,2.75.87,1.45,1.26,3.37,1.15,5.54-.12,2.25-.79,4.74-1.95,7.2-.96,2.04-.74,3.7.63,4.79,1.71,1.36,4.67,1.41,6.33.1,1.46-1.15,1.62-3.17.45-5.68-1.19-2.54-1.77-5.16-1.72-7.76.04-2.09.47-4.18,1.3-6.21,1.36-3.35,3.36-5.46,3.61-5.72,2.7-3.26,6.68-5.14,10.92-5.14,3.79,0,7.35,1.47,10.02,4.15,2.68,2.68,4.15,6.24,4.15,10.02,0,1.79-.33,3.53-.97,5.17-.06.15-.12.31-.19.46-.79,2.07-.48,3.85.85,4.9,1.3,1.03,3.22,1.1,4.58.17,1.77-1.21,2.2-3.82,1.17-7.16-.77-2.5-.96-4.76-.56-6.7.35-1.69,1.15-3.07,2.25-3.89,1.27-.93,2.78-1.02,3.95-.22.84.57,1.41,1.53,1.65,2.77.26,1.31.15,2.89-.33,4.69-1.13,4.23.01,6.87,1.34,7.84.7.52,1.49.6,2.1.21.49-.31.86-.9,1.07-1.7.26-1.02.25-2.35-.04-3.87-.71-3.71.05-6.77,2.09-8.41,1.4-1.13,3.21-1.38,4.85-.67Z"/>
  <path class="st5" d="M498.6,319.58h0c-.28-.28-.28-.73,0-1.01l3.76-3.76c.28-.28.73-.28,1.01,0h0c.28.28.28.73,0,1.01l-3.76,3.76c-.28.28-.73.28-1.01,0Z"/>
  <path class="st5" d="M552.33,327.27h0c-.28-.28-.28-.73,0-1.01l3.76-3.76c.28-.28.73-.28,1.01,0h0c.28.28.28.73,0,1.01l-3.76,3.76c-.28.28-.73.28-1.01,0Z"/>
  <path class="st5" d="M523.49,310.1h0c.04-.39.39-.67.78-.63l5.28.57c.39.04.67.39.63.78h0c-.04.39-.39.67-.78.63l-5.28-.57c-.39-.04-.67-.39-.63-.78Z"/>
  <path class="st7" d="M521.52,300.81h0c.23-.32.68-.39.99-.16l4.3,3.12c.32.23.39.68.16.99h0c-.23.32-.68.39-.99.16l-4.3-3.12c-.32-.23-.39-.68-.16-.99Z"/>
  <path class="st7" d="M545.92,311.96h0c.23-.32.68-.39.99-.16l4.3,3.12c.32.23.39.68.16.99h0c-.23.32-.68.39-.99.16l-4.3-3.12c-.32-.23-.39-.68-.16-.99Z"/>
  <path class="st7" d="M526.97,316.85h0c.23-.32.68-.39.99-.16l4.3,3.12c.32.23.39.68.16.99h0c-.23.32-.68.39-.99.16l-4.3-3.12c-.32-.23-.39-.68-.16-.99Z"/>
  <path class="st12" d="M494.32,328.34h0c-.36.15-.78-.02-.93-.38l-2.05-4.9c-.15-.36.02-.78.38-.93h0c.36-.15.78.02.93.38l2.05,4.9c.15.36-.02.78-.38.93Z"/>
  <path class="st12" d="M540.08,306.58h0c-.36.15-.78-.02-.93-.38l-2.05-4.9c-.15-.36.02-.78.38-.93h0c.36-.15.78.02.93.38l2.05,4.9c.15.36-.02.78-.38.93Z"/>
  <path class="st12" d="M503.26,307.94h0c-.15-.36.02-.78.38-.93l4.9-2.05c.36-.15.78.02.93.38h0c.15.36-.02.78-.38.93l-4.9,2.05c-.36.15-.78-.02-.93-.38Z"/>
  <path class="st12" d="M539.84,326.53h0c-.15-.36.02-.78.38-.93l4.9-2.05c.36-.15.78.02.93.38h0c.15.36-.02.78-.38.93l-4.9,2.05c-.36.15-.78-.02-.93-.38Z"/>
  <path class="st6" d="M539.42,318.83h0c-.39-.04-.67-.39-.63-.78l.57-5.28c.04-.39.39-.67.78-.63h0c.39.04.67.39.63.78l-.57,5.28c-.04.39-.39.67-.78.63Z"/>
  <path class="st6" d="M518.47,318.46h0c-.3.26-.75.23-1-.07l-3.49-4.01c-.26-.3-.23-.75.07-1h0c.3-.26.75-.23,1,.07l3.49,4.01c.26.3.23.75-.07,1Z"/>
  <path class="st6" d="M507.35,329.96h0c-.39-.04-.67-.39-.63-.78l.57-5.28c.04-.39.39-.67.78-.63h0c.39.04.67.39.63.78l-.57,5.28c-.04.39-.39.67-.78.63Z"/>
  <path class="st2" d="M493.98,363.26c4.87,5.58,11.28,9.75,18.37,11.91,7.1,2.17,14.79,2.35,21.97.49,6.89-1.78,13.25-5.4,18.3-10.41,5.13-5.09,8.82-11.56,10.6-18.56.53-2.3.96-4.6,1.14-6.96.12-1.54.24-3.11-.16-4.62-.47-1.74-1.68-3.53-3.64-3.66-3.73-.25-4.27,4.51-3.86,7.16.37,2.34.82,5.3-1.05,7.17-1.94,1.94-4.71.54-5.85-1.52-.66-1.19-.93-2.57-.95-3.93-.03-2,.69-3.81.89-5.77.11-1.13.09-2.52-.65-3.45-.89-1.13-2.34-.65-3.17.3-1.94,2.25-1.35,5.83-.6,8.41.94,3.22,1.09,7.6-2.49,9.27-2.99,1.39-6.83-.27-7.43-3.61-1.51,1.92-3.53,3.44-5.8,4.36-4.14,1.69-8.97,1.3-12.78-1.05-3.87-2.39-6.42-6.59-6.71-11.14-.08.56-.14,1.12-.16,1.68-.09,2.38.43,4.75,1.37,6.93.77,1.77,1.49,3.64.93,5.58-.55,1.92-2.26,3.14-4.16,3.52-3.78.76-8.15-1.7-7.37-5.97.2-1.08.72-2.03,1.12-3.03.42-1.04.76-2.12,1-3.22.39-1.81.51-3.77-.02-5.56-.48-1.62-1.6-3.04-3.34-3.35-1.8-.32-2.9.71-3.23,2.4-.35,1.77-.08,3.67.3,5.42.4,1.88,1.35,3.75,1.27,5.7-.15,4.09-4.88,5.71-8.22,4.07-1.57-.77-2.64-2.24-2.74-4.01-.12-2.13,1.13-4.03,1.55-6.07.39-1.91.44-4.1-.5-5.86-.47-.9-1.57-2.08-2.65-1.38-.74.48-1.06,1.48-1.24,2.29,0,1.15.05,2.3.15,3.45.73,8.47,4.23,16.61,9.82,23.02Z"/>
  <path class="st0" d="M551.16,332.21c.26,1.31.15,2.89-.33,4.69-1.13,4.23.01,6.87,1.34,7.84.42.31.86.46,1.28.45-2.07-1.28-2.93-4.38-1.77-9.06,1.42-5.71-2.18-6.69-2.18-6.69.84.57,1.41,1.53,1.65,2.77Z"/>
  <path class="st8" d="M508.69,353.61c.37-.15.71-.34,1-.57,1.46-1.15,1.62-3.17.45-5.68-1.19-2.54-1.77-5.16-1.72-7.76.04-2.09.47-4.18,1.3-6.21,1.36-3.35,3.36-5.46,3.61-5.72,1.5-1.82,3.4-3.2,5.52-4.07-11.56,4-12.8,17.57-9.94,23.02,1.94,3.71.95,5.85-.22,7Z"/>
  <path class="st0" d="M503.52,335.41c.87,1.45,1.26,3.37,1.15,5.54-.12,2.25-.79,4.74-1.95,7.2-.96,2.04-.74,3.7.63,4.79.47.37,1.03.65,1.63.82-2.24-1.71-1.48-4.43-.1-7.82,2.11-5.21,1.46-13.77-5.83-13.28,1.88.1,3.46,1.08,4.46,2.75Z"/>
  <path class="st8" d="M493.89,340.87c.74,3.33,2.07,7.62.36,9.74.27-.11.52-.24.74-.4,1.34-.94,1.67-2.53.96-4.63-1.34-3.94-2.11-9.03-.25-11.49.72-.95,1.78-1.44,3.07-1.44-4.58-.94-5.79,4.1-4.88,8.22Z"/>
  <path class="st11" d="M549.01,338.16c.08-.52.2-1.07.35-1.64.89-3.32.22-5.18-.71-5.81-.63-.43-1.45-.36-2.19.19-.87.64-1.63,1.95-1.8,3.93.88-3.35,2.91-2.85,3.63-1.43.68,1.32.88,3.41.72,4.76Z"/>
  <path class="st11" d="M501.75,346.6c1.71-4.08,1.9-8.01.47-10.41-.74-1.24-1.86-1.94-3.24-2.01-.93-.05-1.61.22-2.07.83-.33.44-.55,1.02-.67,1.7h0c3.6-3.95,7.78,4.12,5.51,9.89Z"/>
  <path class="st8" d="M558.2,323.08c1.01,2.51.26,5.37-1.81,7.11-2.71,2.28-3.07,5.88-2.19,8.74.91,2.94.51,4.94.07,6.03.49-.31.85-.9,1.06-1.7.26-1.02.25-2.35-.04-3.87-.71-3.71.05-6.77,2.09-8.41,1.4-1.13,3.21-1.38,4.85-.67.73.32,1.4.81,1.95,1.46-2.34-19.02-18-33.98-37.34-35.21,19.99,5.64,28.14,18.51,31.36,26.52Z"/>
  <path class="st0" d="M484.15,333.44c.42-.35.83-.51,1.14-.59.38-.1.77-.11,1.16-.04,1.53-19.14,16.2-30.02,16.2-30.02-10.33,6.6-17.45,17.78-18.49,30.65Z"/>
  <path class="st0" d="M537.45,341.88c-.06.15-.12.31-.19.46-.79,2.07-.48,3.85.85,4.9.35.27.74.48,1.15.62-.91-1.08-1.83-3.06-.48-5.99,2.07-4.47,1.09-17.81-12.72-19.23,3.1.39,5.96,1.79,8.21,4.04.1.1.2.2.3.31.34.33.64.69.91,1.07,1.91,2.47,2.94,5.48,2.94,8.65,0,1.79-.33,3.53-.97,5.17Z"/>
  <path class="st0" d="M485.28,332.85c1.13-.29,2.31.17,3.24,1.25.93,1.08,1.5,2.67,1.63,4.49.14,2.07-.31,4.42-1.3,6.78-.82,1.96-.58,3.6.68,4.62.58.47,1.32.76,2.1.88-4.33-2.7-.98-3.89-.65-11.02.22-4.64-3.39-11.67-6.84-6.42,0,0,0,0,0,0,.42-.35.83-.51,1.14-.59Z"/>
  <path class="st11" d="M535.39,345.47c-2.65,3.37-6.73,5.41-11.14,5.41-3.79,0-7.35-1.47-10.02-4.15-2.45-2.45-3.9-5.65-4.12-9.08-.25,1.65-.22,3.3.08,4.96,0,0,0,0,0,0,.1.55.23,1.09.4,1.64,0,0,0,0,0,0,.03.11.06.21.1.32,0,0,0,.02,0,.02.03.1.07.2.1.3,0,0,0,.01,0,.02.07.22.15.43.24.65,2.72,6.17,16.53,11.4,24.36-.09Z"/>
  <polygon class="st8" points="546.71 329.07 546.71 329.07 546.71 329.07 546.71 329.07"/>
  <path class="st8" d="M542.14,347.72c.19-.09.37-.19.54-.3,1.77-1.21,2.2-3.82,1.17-7.16-.77-2.5-.96-4.76-.56-6.7.35-1.69,1.15-3.07,2.25-3.89.16-.12.33-.23.5-.32-4.72,2.22-4.31,6.9-3.68,9.97.55,2.72,2.27,6.07-.23,8.4Z"/>
  <path class="st11" d="M561.34,344.78c-1.94,9.25-9.68,26.12-30.99,31.7,15.76-2.4,28.84-13.98,32.88-29.78,0,0,0,0,0-.01.82-3.23,1.24-6.58,1.25-9.94-.21-2.5-1.25-4.33-2.86-5.03-1.11-.48-2.34-.31-3.29.46-1.58,1.27-2.15,3.8-1.54,6.93,1.54-6.93,6.59-4,4.56,5.68Z"/>
  <path class="st1" d="M562.72,320.46c-3.21-7.58-8.68-14.14-15.56-18.66-7.34-4.83-16.12-7.2-24.89-6.8-8.6.4-16.99,3.51-23.76,8.82-6.6,5.18-11.56,12.3-14.09,20.3-2.72,8.59-2.55,18.03.46,26.52,2.66,7.52,7.51,14.2,13.82,19.09,6.62,5.12,14.72,8.17,23.08,8.66,8.75.52,17.56-1.75,24.94-6.48,7.15-4.58,12.84-11.33,16.1-19.17,3.42-8.21,4.11-17.49,1.97-26.12-.52-2.11-1.21-4.17-2.06-6.17ZM524.25,296.48c20.51,0,37.49,15.43,39.93,35.3-.83-.97-1.98-1.66-3.26-1.82-2.03-.25-3.91.9-4.9,2.63-.98,1.71-1.13,3.79-.9,5.72.23,1.94,1.07,4.75-.51,6.37-1.36,1.39-3.06-.19-3.65-1.49-.81-1.78-.69-3.88-.26-5.74.5-2.17,1.08-4.59-.04-6.68-1.06-1.97-3.43-2.37-5.18-1.03-1.65,1.27-2.29,3.46-2.37,5.46-.05,1.17.09,2.35.34,3.5.25,1.17.68,2.3.85,3.48.25,1.7.12,3.72-1.24,4.95-1.4,1.26-3.7,1.25-5.11,0-1.28-1.14-1.31-2.92-.81-4.45.33-.99.74-1.93.96-2.96.25-1.18.36-2.38.31-3.59-.09-2.15-.66-4.28-1.69-6.17-2.11-3.89-6.03-6.64-10.41-7.28-4.21-.61-8.56.73-11.69,3.62-4.76,4.41-7.28,11.16-5.71,17.57.29,1.2.73,2.35,1.23,3.48.44.99.81,2.06.77,3.16-.07,1.92-1.57,3.13-3.38,3.4-1.73.27-3.91-.23-4.92-1.79-1.25-1.94.26-4.11.93-5.95,1.38-3.78,2.2-9.54-1.43-12.39-1.47-1.15-3.81-1.61-5.47-.56-2.4,1.51-2.21,5.16-1.86,7.59.15,1.08.39,2.15.68,3.19.29,1.03.73,2.03.83,3.1.18,1.88-.94,3.33-2.77,3.72-1.74.37-4.02-.18-4.84-1.91-.97-2.05.62-4.33,1.09-6.3.53-2.2.64-4.61-.2-6.75-.68-1.71-2.31-3.56-4.35-2.99-.39.11-.76.31-1.07.57,1.67-20.66,19.02-36.96,40.1-36.96ZM535.85,341.76c-2.1,4.83-7.14,7.91-12.4,7.58-4.82-.3-9.16-3.45-10.96-7.93-2.1-5.23-.37-11.4,4.12-14.8,4.24-3.21,10.22-3.38,14.64-.43,5.03,3.36,7.02,10.01,4.6,15.57,0,0,0,0,0,0ZM563.23,346.7c-1.79,7-5.48,13.46-10.6,18.56-5.05,5.01-11.41,8.64-18.3,10.41-7.19,1.85-14.88,1.68-21.97-.49-7.09-2.17-13.5-6.33-18.37-11.91-5.59-6.41-9.09-14.54-9.82-23.02-.1-1.15-.15-2.3-.15-3.45.18-.81.51-1.81,1.24-2.29,1.08-.7,2.17.48,2.65,1.38.94,1.77.89,3.95.5,5.86-.42,2.04-1.67,3.94-1.55,6.07.1,1.77,1.17,3.24,2.74,4.01,3.33,1.64,8.07.02,8.22-4.07.07-1.95-.87-3.82-1.27-5.7-.37-1.74-.64-3.64-.3-5.42.33-1.7,1.43-2.72,3.23-2.4,1.74.31,2.85,1.73,3.34,3.35.54,1.79.41,3.75.02,5.56-.23,1.1-.58,2.17-1,3.22-.41,1.01-.93,1.95-1.12,3.03-.79,4.27,3.58,6.73,7.37,5.97,1.9-.38,3.61-1.6,4.16-3.52.56-1.94-.16-3.82-.93-5.58-.95-2.18-1.46-4.55-1.37-6.93.02-.56.07-1.13.16-1.68.3,4.54,2.84,8.74,6.71,11.14,3.81,2.35,8.64,2.74,12.78,1.05,2.27-.92,4.28-2.44,5.8-4.36.61,3.34,4.45,5,7.43,3.61,3.58-1.67,3.43-6.05,2.49-9.27-.75-2.58-1.35-6.15.6-8.41.82-.96,2.27-1.43,3.17-.3.74.94.77,2.32.65,3.45-.2,1.96-.92,3.77-.89,5.77.02,1.36.29,2.74.95,3.93,1.14,2.06,3.92,3.46,5.85,1.52,1.87-1.87,1.41-4.83,1.05-7.17-.41-2.65.13-7.41,3.86-7.16,1.97.13,3.18,1.92,3.64,3.66.4,1.51.28,3.08.16,4.62-.18,2.36-.61,4.66-1.14,6.96Z"/>
</svg>