<?xml version="1.0" encoding="UTF-8"?>
<svg id="Camada_1" xmlns="http://www.w3.org/2000/svg" version="1.1" viewBox="0 0 944.05 559.32">
  <!-- Generator: Adobe Illustrator 30.1.0, SVG Export Plug-In . SVG Version: 2.1.1 Build 136)  -->
  <defs>
    <style>
      .st0 {
        fill: #ffbcee;
      }

      .st1 {
        fill: #691650;
      }

      .st2 {
        fill: #f29b30;
      }

      .st3 {
        fill: #fff;
      }

      .st4 {
        fill: #ed4299;
      }

      .st5 {
        fill: #ffe4ff;
      }

      .st6 {
        fill: #ffd392;
      }

      .st7 {
        fill: #d051a2;
      }

      .st8 {
        fill: #fe6dc9;
      }

      .st9 {
        fill: #8c4f2b;
      }

      .st10 {
        fill: #c1764b;
      }

      .st11 {
        fill: #c372dd;
      }
    </style>
  </defs>
  <path class="st3" d="M943.64,245.22c1.18-5.57-.22-11.38-3.8-15.81-3.59-4.43-8.98-7-14.67-7h-51.85c-3.14,0-6.13.77-8.77,2.16-6.74-2.66-14.79-3.96-24.35-3.96-24.41,0-45.72,8.63-63.35,25.65-16.07,15.52-28.29,34.65-36.32,56.85-1.91,5.28-3.59,10.53-5.04,15.73l31.01-145.61c1.28-6.01-.44-12.27-4.62-16.78-3.6-3.88-8.63-6.05-13.85-6.05-.84,0-1.69.06-2.53.17l-53.29,7.2c-7.9,1.07-14.28,6.98-15.94,14.77l-38.39,179.75c-1.75,5.93-4.32,10.5-7.85,13.96-.33.33-.65.62-.96.89l41.3-193.92c1.28-6.01-.44-12.27-4.62-16.78-3.6-3.88-8.63-6.05-13.85-6.05-.84,0-1.69.06-2.53.17l-53.29,7.2c-7.9,1.07-14.28,6.98-15.94,14.77l-38.39,179.74c-1.75,5.93-4.32,10.5-7.85,13.96-.33.33-.65.62-.96.89l25.82-121.93c1.04-4.89.08-9.96-2.59-14.12l75.17-201.44c2.16-5.8,1.35-12.29-2.18-17.37-3.53-5.08-9.33-8.12-15.52-8.12h-48.61c-8.07,0-15.25,5.13-17.87,12.76l-72.6,211.56c-2.25,2.43-3.89,5.48-4.61,8.91,0,0-.97,4.56-2.51,11.86l-30.95,90.2-4.67-318.76c-.14-9.76-7.71-17.81-17.44-18.56-12.69-.97-22.25-1.44-29.22-1.44-4.66,0-9.48-.16-14.58-.34-5.18-.18-10.54-.36-15.82-.36-18.72,0-39.7,2.13-53.39,17.97-10.18,11.77-13.71,28.03-10.76,49.68l3.59,153.17c-21.81,1.36-40.99,9.9-57.09,25.45-13.95,13.48-25.01,29.67-32.93,48.24l25.83-121.27c1.28-6.01-.44-12.27-4.62-16.78-3.6-3.88-8.63-6.05-13.85-6.05-.84,0-1.69.06-2.53.17l-53.29,7.2c-7.9,1.07-14.28,6.98-15.94,14.78l-10.64,49.93c-5.22-1.26-11.1-1.88-17.7-1.88-24.41,0-45.72,8.63-63.35,25.65-16.07,15.52-28.29,34.65-36.32,56.85-7.8,21.55-11.75,42.55-11.75,62.41,0,24.92,6.41,44.14,19.04,57.11,12.77,13.11,28.83,19.75,47.73,19.75,15.72,0,29.76-4.33,41.74-12.86,2.36-1.68,4.64-3.46,6.85-5.34,1.16,1.24,2.39,2.42,3.69,3.54,9.62,8.3,21.83,12.51,36.28,12.51s28.24-3.33,40.31-9.91c4.2-2.29,8.23-4.98,12.06-8.05.12.12.23.24.35.36,12.77,13.11,28.83,19.75,47.73,19.75,14.1,0,27.31-3.78,39.25-11.24,1.35-.84,2.68-1.74,4-2.68l2.63,112.41c.24,10.26,8.62,18.45,18.88,18.45h100c7.88,0,14.94-4.9,17.7-12.28l40.35-108.13c6.44,2.29,13.48,3.48,20.97,3.48,17.4,0,34.85-5.72,51.85-17.01.49-.32.97-.65,1.45-.99.48.53.96,1.04,1.46,1.55,10.58,10.76,24.88,16.45,41.37,16.45,17.4,0,34.85-5.72,51.85-17.01.48-.32.97-.65,1.45-.99.48.53.96,1.04,1.46,1.55,10.58,10.76,24.88,16.45,41.37,16.45,17.4,0,51.85-17.01,51.85-17.01,0,0,2.68-1.85,3.99-2.86.04.04.08.08.12.12,12.77,13.11,28.83,19.75,47.73,19.75,14.1,0,27.31-3.78,39.25-11.24,3.12-1.95,6.16-4.15,9.11-6.61,1.12,1.31,2.29,2.56,3.54,3.75,9.59,9.22,22.4,14.09,37.03,14.09,18.31,0,29.14-7.85,35-14.44,6.35-7.14,12.43-18.23,18.58-33.9,2.86-7.28.94-15.57-4.83-20.85-3.56-3.26-8.13-4.95-12.75-4.95-.99,0-1.98.08-2.96.23.07-.28.14-.56.2-.83l25.92-122.42ZM101.23,352.93c-.24,1.11-.37,2.23-.41,3.36-1.29,4.58-3.2,7.96-5.8,10.3-1.48,1.32-2.64,2.11-3.47,2.55-.26-1.83-.49-4.6-.49-8.66,0-10.25,1.95-22.56,5.81-36.58,3.74-13.62,8.91-25.27,15.35-34.63.91-1.32,2.16-3,3.6-4.53l-14.59,68.18ZM290.62,352.89c-1.33,6.05-3.58,10.62-6.67,13.59-1.43,1.37-2.57,2.18-3.38,2.64-.26-1.83-.49-4.6-.49-8.63,0-10.25,1.95-22.56,5.81-36.58,2.66-9.69,6.05-18.37,10.1-25.95l.63,26.72-5.99,28.22ZM728.79,363.23c-.81,1.09-1.68,2.1-2.63,3.03-.33.33-.65.62-.96.89l5.31-24.95c-1.04,7.13-1.62,14.15-1.72,21.04ZM830.37,352.89c-1.33,6.05-3.58,10.62-6.67,13.59-1.43,1.37-2.57,2.18-3.38,2.64-.26-1.83-.49-4.6-.49-8.63,0-10.25,1.95-22.56,5.81-36.58,3.74-13.62,8.91-25.27,15.35-34.63.97-1.41,2.35-3.25,3.93-4.86l-14.54,68.47Z"/>
  <path class="st2" d="M309.45,66.11c-8.24-56.59,37.73-46.53,75.7-46.53,6.48,0,15.73.47,27.78,1.39l6.25,427.1L565.02,23.05h48.61l-193.06,517.38h-100l-11.11-474.32Z"/>
  <path class="st3" d="M524.07,240.75c-12.9,0-24.49-4.78-33.53-13.82-9.03-9.02-13.81-20.61-13.81-33.51s4.73-24.42,13.67-33.56c9.05-9.25,20.69-14.13,33.66-14.13s24.53,4.84,33.69,13.99c9.16,9.17,14,20.82,14,33.7s-4.89,24.61-14.14,33.66c-9.14,8.94-20.74,13.67-33.56,13.67Z"/>
  <path class="st9" d="M524.07,221.87c7.92,0,14.7-2.76,20.34-8.28,5.64-5.52,8.46-12.24,8.46-20.16s-2.82-14.7-8.46-20.34c-5.64-5.64-12.42-8.46-20.34-8.46s-14.64,2.82-20.16,8.46c-5.52,5.64-8.28,12.42-8.28,20.34s2.76,14.64,8.28,20.16c5.52,5.52,12.24,8.28,20.16,8.28Z"/>
  <path class="st9" d="M901.22,385.51c-2.28-2.04-3.42-5.46-3.42-10.26,0-4.08.48-7.92,1.44-11.52l25.92-122.42h-51.85l-3.96,19.08v-2.52c0-5.52-2.4-9.96-7.2-13.32-4.8-3.36-12.12-5.04-21.96-5.04-19.44,0-36.18,6.78-50.23,20.34-14.04,13.56-24.61,30.13-31.68,49.69-7.08,19.57-10.62,38.23-10.62,55.99,0,1.02.02,2.03.04,3.02-2.28,4.25-5.05,7.99-8.32,11.2-6,5.88-12.48,8.82-19.44,8.82-5.28,0-9.06-1.02-11.34-3.06-2.28-2.04-3.42-5.46-3.42-10.26,0-4.08.48-7.92,1.44-11.52l41.41-194.43-53.29,7.2-38.53,180.38s0,0,0,0c-2.64,9.36-6.96,16.98-12.96,22.85-6,5.88-12.48,8.82-19.44,8.82-5.28,0-9.06-1.02-11.34-3.06-2.28-2.04-3.42-5.46-3.42-10.26,0-4.08.48-7.92,1.44-11.52l41.41-194.43-53.29,7.2-38.53,180.38s0,0,0,0c-2.64,9.36-6.96,16.98-12.96,22.86-6,5.88-12.48,8.82-19.44,8.82-5.28,0-9.06-1.02-11.34-3.06-2.28-2.04-3.42-5.46-3.42-10.26,0-4.08.48-7.92,1.44-11.52l25.92-122.42h-51.85l-24.48,115.58c-1.92,9.6-2.88,17.41-2.88,23.4,0,14.4,3.54,25.2,10.62,32.4,7.08,7.2,16.38,10.8,27.9,10.8,13.68,0,27.48-4.62,41.41-13.86,6.22-4.13,11.94-9.93,17.16-17.4,1.48,8.59,4.7,15.41,9.67,20.46,7.08,7.2,16.38,10.8,27.9,10.8,13.68,0,27.48-4.62,41.41-13.86,6.22-4.13,11.94-9.93,17.16-17.4,1.48,8.59,4.7,15.41,9.67,20.46,7.08,7.2,16.38,10.8,27.9,10.8,13.68,0,27.48-4.62,41.41-13.86,6.47-4.3,12.4-10.4,17.79-18.31,2.28,7.38,5.71,13.42,10.3,18.13,9.12,9.36,20.52,14.04,34.2,14.04,21.12,0,39-11.16,53.65-33.48,1.44,10.57,5.22,18.78,11.34,24.66,6.12,5.88,14.1,8.82,23.94,8.82,9.12,0,16.08-2.7,20.88-8.1,4.8-5.4,9.84-14.82,15.12-28.26-1.92.96-4.56,1.44-7.92,1.44-5.28,0-9.06-1.02-11.34-3.06ZM848.83,356.88c-2.16,9.85-6.18,17.59-12.06,23.22-5.88,5.64-11.83,8.46-17.82,8.46-5.04,0-9.3-1.68-12.78-5.04-3.48-3.36-5.22-11.04-5.22-23.04s2.16-25.86,6.48-41.59c4.32-15.72,10.32-29.16,18-40.33,7.68-11.16,16.32-16.74,25.92-16.74,5.04,0,8.76,1.5,11.16,4.5,2.4,3,3.6,6.06,3.6,9.18l-17.28,81.37Z"/>
  <path class="st9" d="M385.42,241.31h-51.85l-3.96,19.08v-2.52c0-5.52-2.4-9.96-7.2-13.32-4.8-3.36-12.12-5.04-21.96-5.04-19.44,0-36.18,6.78-50.23,20.34-14.04,13.56-24.61,30.13-31.68,49.69-7.08,19.57-10.62,38.23-10.62,55.99,0,1.15.02,2.28.05,3.4-2.06,4.22-4.42,7.89-7.07,11-4.92,5.76-10.75,8.64-17.46,8.64-5.28,0-9.06-1.02-11.34-3.06-2.28-2.04-3.42-5.46-3.42-10.26,0-4.08.48-7.92,1.44-11.52l41.41-194.43-53.29,7.2-17.64,82.81v-1.44c0-5.52-2.4-9.96-7.2-13.32-4.8-3.36-12.12-5.04-21.96-5.04-19.44,0-36.18,6.78-50.23,20.34-14.04,13.56-24.61,30.13-31.68,49.69-7.08,19.57-10.62,38.23-10.62,55.99,0,19.93,4.56,34.56,13.68,43.93,9.12,9.36,20.52,14.04,34.2,14.04,11.76,0,22.02-3.12,30.78-9.36,8.76-6.24,16.26-14.16,22.5-23.76,1.44,10.08,5.22,17.77,11.34,23.04,6.12,5.28,14.1,7.92,23.94,7.92,23.09,0,41.7-10.14,55.83-30.42,2.28,7.56,5.75,13.74,10.41,18.54,9.12,9.36,20.52,14.04,34.2,14.04,21.12,0,39-11.16,53.65-33.48,1.44,10.57,5.22,18.78,11.34,24.66,6.12,5.88,14.1,8.82,23.94,8.82,9.12,0,16.08-2.7,20.88-8.1,4.8-5.4,9.84-14.82,15.12-28.26-1.92.96-4.56,1.44-7.92,1.44-5.28,0-9.06-1.02-11.34-3.06-2.28-2.04-3.42-5.46-3.42-10.26,0-4.08.48-7.92,1.44-11.52l25.92-122.42ZM119.7,356.88v1.8c-2.16,9.36-6.18,16.69-12.06,21.96-5.88,5.28-11.7,7.92-17.46,7.92-5.04,0-9.3-1.68-12.78-5.04-3.48-3.36-5.22-11.04-5.22-23.04s2.16-25.86,6.48-41.59c4.32-15.72,10.32-29.16,18-40.33,7.68-11.16,16.32-16.74,25.92-16.74,7.68,0,12.6,4.2,14.76,12.6l-17.64,82.45ZM309.09,356.88c-2.16,9.85-6.18,17.59-12.06,23.22-5.88,5.64-11.83,8.46-17.82,8.46-5.04,0-9.3-1.68-12.78-5.04-3.48-3.36-5.22-11.04-5.22-23.04s2.16-25.86,6.48-41.59c4.32-15.72,10.32-29.16,18-40.33,7.68-11.16,16.32-16.74,25.92-16.74,5.04,0,8.76,1.5,11.16,4.5,2.4,3,3.6,6.06,3.6,9.18l-17.28,81.37Z"/>
  <path class="st8" d="M562.23,186.85c.73.32,1.4.81,1.95,1.46-2.44-19.86-19.42-35.3-39.93-35.3s-38.43,16.3-40.1,36.96c.42-.35.83-.51,1.14-.59,1.13-.29,2.31.17,3.24,1.25.93,1.08,1.5,2.67,1.63,4.49.14,2.07-.31,4.42-1.3,6.78-.82,1.96-.58,3.6.68,4.62,1.45,1.17,3.95,1.27,5.46.22,1.34-.94,1.67-2.53.96-4.63-1.34-3.94-2.11-9.03-.25-11.49.72-.95,1.78-1.44,3.07-1.44.1,0,.19,0,.29,0,1.88.1,3.46,1.08,4.46,2.75.87,1.45,1.26,3.37,1.15,5.54-.12,2.25-.79,4.74-1.95,7.2-.96,2.04-.74,3.7.63,4.79,1.71,1.36,4.67,1.41,6.33.1,1.46-1.15,1.62-3.17.45-5.68-1.19-2.54-1.77-5.16-1.72-7.76.04-2.09.47-4.18,1.3-6.21,1.36-3.35,3.36-5.46,3.61-5.72,2.7-3.26,6.68-5.14,10.92-5.14,3.79,0,7.35,1.47,10.02,4.15,2.68,2.68,4.15,6.24,4.15,10.02,0,1.79-.33,3.53-.97,5.17-.06.15-.12.31-.19.46-.79,2.07-.48,3.85.85,4.9,1.3,1.03,3.22,1.1,4.58.17,1.77-1.21,2.2-3.82,1.17-7.16-.77-2.5-.96-4.76-.56-6.7.35-1.69,1.15-3.07,2.25-3.89,1.27-.93,2.78-1.02,3.95-.22.84.57,1.41,1.53,1.65,2.77.26,1.31.15,2.89-.33,4.69-1.13,4.23.01,6.87,1.34,7.84.7.52,1.49.6,2.1.21.49-.31.86-.9,1.07-1.7.26-1.02.25-2.35-.04-3.87-.71-3.71.05-6.77,2.09-8.41,1.4-1.13,3.21-1.38,4.85-.67Z"/>
  <path class="st4" d="M498.6,176.11h0c-.28-.28-.28-.73,0-1.01l3.76-3.76c.28-.28.73-.28,1.01,0h0c.28.28.28.73,0,1.01l-3.76,3.76c-.28.28-.73.28-1.01,0Z"/>
  <path class="st4" d="M552.33,183.81h0c-.28-.28-.28-.73,0-1.01l3.76-3.76c.28-.28.73-.28,1.01,0h0c.28.28.28.73,0,1.01l-3.76,3.76c-.28.28-.73.28-1.01,0Z"/>
  <path class="st4" d="M523.49,166.63h0c.04-.39.39-.67.78-.63l5.28.57c.39.04.67.39.63.78h0c-.04.39-.39.67-.78.63l-5.28-.57c-.39-.04-.67-.39-.63-.78Z"/>
  <path class="st6" d="M521.52,157.34h0c.23-.32.68-.39.99-.16l4.3,3.12c.32.23.39.68.16.99h0c-.23.32-.68.39-.99.16l-4.3-3.12c-.32-.23-.39-.68-.16-.99Z"/>
  <path class="st6" d="M545.92,168.49h0c.23-.32.68-.39.99-.16l4.3,3.12c.32.23.39.68.16.99h0c-.23.32-.68.39-.99.16l-4.3-3.12c-.32-.23-.39-.68-.16-.99Z"/>
  <path class="st6" d="M526.97,173.38h0c.23-.32.68-.39.99-.16l4.3,3.12c.32.23.39.68.16.99h0c-.23.32-.68.39-.99.16l-4.3-3.12c-.32-.23-.39-.68-.16-.99Z"/>
  <path class="st11" d="M494.32,184.87h0c-.36.15-.78-.02-.93-.38l-2.05-4.9c-.15-.36.02-.78.38-.93h0c.36-.15.78.02.93.38l2.05,4.9c.15.36-.02.78-.38.93Z"/>
  <path class="st11" d="M540.08,163.11h0c-.36.15-.78-.02-.93-.38l-2.05-4.9c-.15-.36.02-.78.38-.93h0c.36-.15.78.02.93.38l2.05,4.9c.15.36-.02.78-.38.93Z"/>
  <path class="st11" d="M503.26,164.47h0c-.15-.36.02-.78.38-.93l4.9-2.05c.36-.15.78.02.93.38h0c.15.36-.02.78-.38.93l-4.9,2.05c-.36.15-.78-.02-.93-.38Z"/>
  <path class="st11" d="M539.84,183.06h0c-.15-.36.02-.78.38-.93l4.9-2.05c.36-.15.78.02.93.38h0c.15.36-.02.78-.38.93l-4.9,2.05c-.36.15-.78-.02-.93-.38Z"/>
  <path class="st5" d="M539.42,175.36h0c-.39-.04-.67-.39-.63-.78l.57-5.28c.04-.39.39-.67.78-.63h0c.39.04.67.39.63.78l-.57,5.28c-.04.39-.39.67-.78.63Z"/>
  <path class="st5" d="M518.47,175h0c-.3.26-.75.23-1-.07l-3.49-4.01c-.26-.3-.23-.75.07-1h0c.3-.26.75-.23,1,.07l3.49,4.01c.26.3.23.75-.07,1Z"/>
  <path class="st5" d="M507.35,186.49h0c-.39-.04-.67-.39-.63-.78l.57-5.28c.04-.39.39-.67.78-.63h0c.39.04.67.39.63.78l-.57,5.28c-.04.39-.39.67-.78.63Z"/>
  <path class="st2" d="M493.98,219.79c4.87,5.58,11.28,9.75,18.37,11.91,7.1,2.17,14.79,2.35,21.97.49,6.89-1.78,13.25-5.4,18.3-10.41,5.13-5.09,8.82-11.56,10.6-18.56.53-2.3.96-4.6,1.14-6.96.12-1.54.24-3.11-.16-4.62-.47-1.74-1.68-3.53-3.64-3.66-3.73-.25-4.27,4.51-3.86,7.16.37,2.34.82,5.3-1.05,7.17-1.94,1.94-4.71.54-5.85-1.52-.66-1.19-.93-2.57-.95-3.93-.03-2,.69-3.81.89-5.77.11-1.13.09-2.52-.65-3.45-.89-1.13-2.34-.65-3.17.3-1.94,2.25-1.35,5.83-.6,8.41.94,3.22,1.09,7.6-2.49,9.27-2.99,1.39-6.83-.27-7.43-3.61-1.51,1.92-3.53,3.44-5.8,4.36-4.14,1.69-8.97,1.3-12.78-1.05-3.87-2.39-6.42-6.59-6.71-11.14-.08.56-.14,1.12-.16,1.68-.09,2.38.43,4.75,1.37,6.93.77,1.77,1.49,3.64.93,5.58-.55,1.92-2.26,3.14-4.16,3.52-3.78.76-8.15-1.7-7.37-5.97.2-1.08.72-2.03,1.12-3.03.42-1.04.76-2.12,1-3.22.39-1.81.51-3.77-.02-5.56-.48-1.62-1.6-3.04-3.34-3.35-1.8-.32-2.9.71-3.23,2.4-.35,1.77-.08,3.67.3,5.42.4,1.88,1.35,3.75,1.27,5.7-.15,4.09-4.88,5.71-8.22,4.07-1.57-.77-2.64-2.24-2.74-4.01-.12-2.13,1.13-4.03,1.55-6.07.39-1.91.44-4.1-.5-5.86-.47-.9-1.57-2.08-2.65-1.38-.74.48-1.06,1.48-1.24,2.29,0,1.15.05,2.3.15,3.45.73,8.47,4.23,16.61,9.82,23.02Z"/>
  <path class="st0" d="M551.16,188.75c.26,1.31.15,2.89-.33,4.69-1.13,4.23.01,6.87,1.34,7.84.42.31.86.46,1.28.45-2.07-1.28-2.93-4.38-1.77-9.06,1.42-5.71-2.18-6.69-2.18-6.69.84.57,1.41,1.53,1.65,2.77Z"/>
  <path class="st7" d="M508.69,210.14c.37-.15.71-.34,1-.57,1.46-1.15,1.62-3.17.45-5.68-1.19-2.54-1.77-5.16-1.72-7.76.04-2.09.47-4.18,1.3-6.21,1.36-3.35,3.36-5.46,3.61-5.72,1.5-1.82,3.4-3.2,5.52-4.07-11.56,4-12.8,17.57-9.94,23.02,1.94,3.71.95,5.85-.22,7Z"/>
  <path class="st0" d="M503.52,191.94c.87,1.45,1.26,3.37,1.15,5.54-.12,2.25-.79,4.74-1.95,7.2-.96,2.04-.74,3.7.63,4.79.47.37,1.03.65,1.63.82-2.24-1.71-1.48-4.43-.1-7.82,2.11-5.21,1.46-13.77-5.83-13.28,1.88.1,3.46,1.08,4.46,2.75Z"/>
  <path class="st7" d="M493.89,197.4c.74,3.33,2.07,7.62.36,9.74.27-.11.52-.24.74-.4,1.34-.94,1.67-2.53.96-4.63-1.34-3.94-2.11-9.03-.25-11.49.72-.95,1.78-1.44,3.07-1.44-4.58-.94-5.79,4.1-4.88,8.22Z"/>
  <path class="st10" d="M549.01,194.69c.08-.52.2-1.07.35-1.64.89-3.32.22-5.18-.71-5.81-.63-.43-1.45-.36-2.19.19-.87.64-1.63,1.95-1.8,3.93.88-3.35,2.91-2.85,3.63-1.43.68,1.32.88,3.41.72,4.76Z"/>
  <path class="st10" d="M501.75,203.13c1.71-4.08,1.9-8.01.47-10.41-.74-1.24-1.86-1.94-3.24-2.01-.93-.05-1.61.22-2.07.83-.33.44-.55,1.02-.67,1.7h0c3.6-3.95,7.78,4.12,5.51,9.89Z"/>
  <path class="st7" d="M558.2,179.61c1.01,2.51.26,5.37-1.81,7.11-2.71,2.28-3.07,5.88-2.19,8.74.91,2.94.51,4.94.07,6.03.49-.31.85-.9,1.06-1.7.26-1.02.25-2.35-.04-3.87-.71-3.71.05-6.77,2.09-8.41,1.4-1.13,3.21-1.38,4.85-.67.73.32,1.4.81,1.95,1.46-2.34-19.02-18-33.98-37.34-35.21,19.99,5.64,28.14,18.51,31.36,26.52Z"/>
  <path class="st0" d="M484.15,189.97c.42-.35.83-.51,1.14-.59.38-.1.77-.11,1.16-.04,1.53-19.14,16.2-30.02,16.2-30.02-10.33,6.6-17.45,17.78-18.49,30.65Z"/>
  <path class="st0" d="M537.45,198.42c-.06.15-.12.31-.19.46-.79,2.07-.48,3.85.85,4.9.35.27.74.48,1.15.62-.91-1.08-1.83-3.06-.48-5.99,2.07-4.47,1.09-17.81-12.72-19.23,3.1.39,5.96,1.79,8.21,4.04.1.1.2.2.3.31.34.33.64.69.91,1.07,1.91,2.47,2.94,5.48,2.94,8.65,0,1.79-.33,3.53-.97,5.17Z"/>
  <path class="st0" d="M485.28,189.38c1.13-.29,2.31.17,3.24,1.25.93,1.08,1.5,2.67,1.63,4.49.14,2.07-.31,4.42-1.3,6.78-.82,1.96-.58,3.6.68,4.62.58.47,1.32.76,2.1.88-4.33-2.7-.98-3.89-.65-11.02.22-4.64-3.39-11.67-6.84-6.42,0,0,0,0,0,0,.42-.35.83-.51,1.14-.59Z"/>
  <path class="st10" d="M535.39,202.01c-2.65,3.37-6.73,5.41-11.14,5.41-3.79,0-7.35-1.47-10.02-4.15-2.45-2.45-3.9-5.65-4.12-9.08-.25,1.65-.22,3.3.08,4.96,0,0,0,0,0,0,.1.55.23,1.09.4,1.64,0,0,0,0,0,0,.03.11.06.21.1.32,0,0,0,.02,0,.02.03.1.07.2.1.3,0,0,0,.01,0,.02.07.22.15.43.24.65,2.72,6.17,16.53,11.4,24.36-.09Z"/>
  <polygon class="st7" points="546.71 185.6 546.71 185.6 546.71 185.6 546.71 185.6"/>
  <path class="st7" d="M542.14,204.26c.19-.09.37-.19.54-.3,1.77-1.21,2.2-3.82,1.17-7.16-.77-2.5-.96-4.76-.56-6.7.35-1.69,1.15-3.07,2.25-3.89.16-.12.33-.23.5-.32-4.72,2.22-4.31,6.9-3.68,9.97.55,2.72,2.27,6.07-.23,8.4Z"/>
  <path class="st10" d="M561.34,201.31c-1.94,9.25-9.68,26.12-30.99,31.7,15.76-2.4,28.84-13.98,32.88-29.78,0,0,0,0,0-.01.82-3.23,1.24-6.58,1.25-9.94-.21-2.5-1.25-4.33-2.86-5.03-1.11-.48-2.34-.31-3.29.46-1.58,1.27-2.15,3.8-1.54,6.93,1.54-6.93,6.59-4,4.56,5.68Z"/>
  <path class="st1" d="M562.72,176.99c-3.21-7.58-8.68-14.14-15.56-18.66-7.34-4.83-16.12-7.2-24.89-6.8-8.6.4-16.99,3.51-23.76,8.82-6.6,5.18-11.56,12.3-14.09,20.3-2.72,8.59-2.55,18.03.46,26.52,2.66,7.52,7.51,14.2,13.82,19.09,6.62,5.12,14.72,8.17,23.08,8.66,8.75.52,17.56-1.75,24.94-6.48,7.15-4.58,12.84-11.33,16.1-19.17,3.42-8.21,4.11-17.49,1.97-26.12-.52-2.11-1.21-4.17-2.06-6.17ZM524.25,153.01c20.51,0,37.49,15.43,39.93,35.3-.83-.97-1.98-1.66-3.26-1.82-2.03-.25-3.91.9-4.9,2.63-.98,1.71-1.13,3.79-.9,5.72.23,1.94,1.07,4.75-.51,6.37-1.36,1.39-3.06-.19-3.65-1.49-.81-1.78-.69-3.88-.26-5.74.5-2.17,1.08-4.59-.04-6.68-1.06-1.97-3.43-2.37-5.18-1.03-1.65,1.27-2.29,3.46-2.37,5.46-.05,1.17.09,2.35.34,3.5.25,1.17.68,2.3.85,3.48.25,1.7.12,3.72-1.24,4.95-1.4,1.26-3.7,1.25-5.11,0-1.28-1.14-1.31-2.92-.81-4.45.33-.99.74-1.93.96-2.96.25-1.18.36-2.38.31-3.59-.09-2.15-.66-4.28-1.69-6.17-2.11-3.89-6.03-6.64-10.41-7.28-4.21-.61-8.56.73-11.69,3.62-4.76,4.41-7.28,11.16-5.71,17.57.29,1.2.73,2.35,1.23,3.48.44.99.81,2.06.77,3.16-.07,1.92-1.57,3.13-3.38,3.4-1.73.27-3.91-.23-4.92-1.79-1.25-1.94.26-4.11.93-5.95,1.38-3.78,2.2-9.54-1.43-12.39-1.47-1.15-3.81-1.61-5.47-.56-2.4,1.51-2.21,5.16-1.86,7.59.15,1.08.39,2.15.68,3.19.29,1.03.73,2.03.83,3.1.18,1.88-.94,3.33-2.77,3.72-1.74.37-4.02-.18-4.84-1.91-.97-2.05.62-4.33,1.09-6.3.53-2.2.64-4.61-.2-6.75-.68-1.71-2.31-3.56-4.35-2.99-.39.11-.76.31-1.07.57,1.67-20.66,19.02-36.96,40.1-36.96ZM535.85,198.29c-2.1,4.83-7.14,7.91-12.4,7.58-4.82-.3-9.16-3.45-10.96-7.93-2.1-5.23-.37-11.4,4.12-14.8,4.24-3.21,10.22-3.38,14.64-.43,5.03,3.36,7.02,10.01,4.6,15.57,0,0,0,0,0,0ZM563.23,203.23c-1.79,7-5.48,13.46-10.6,18.56-5.05,5.01-11.41,8.64-18.3,10.41-7.19,1.85-14.88,1.68-21.97-.49-7.09-2.17-13.5-6.33-18.37-11.91-5.59-6.41-9.09-14.54-9.82-23.02-.1-1.15-.15-2.3-.15-3.45.18-.81.51-1.81,1.24-2.29,1.08-.7,2.17.48,2.65,1.38.94,1.77.89,3.95.5,5.86-.42,2.04-1.67,3.94-1.55,6.07.1,1.77,1.17,3.24,2.74,4.01,3.33,1.64,8.07.02,8.22-4.07.07-1.95-.87-3.82-1.27-5.7-.37-1.74-.64-3.64-.3-5.42.33-1.7,1.43-2.72,3.23-2.4,1.74.31,2.85,1.73,3.34,3.35.54,1.79.41,3.75.02,5.56-.23,1.1-.58,2.17-1,3.22-.41,1.01-.93,1.95-1.12,3.03-.79,4.27,3.58,6.73,7.37,5.97,1.9-.38,3.61-1.6,4.16-3.52.56-1.94-.16-3.82-.93-5.58-.95-2.18-1.46-4.55-1.37-6.93.02-.56.07-1.13.16-1.68.3,4.54,2.84,8.74,6.71,11.14,3.81,2.35,8.64,2.74,12.78,1.05,2.27-.92,4.28-2.44,5.8-4.36.61,3.34,4.45,5,7.43,3.61,3.58-1.67,3.43-6.05,2.49-9.27-.75-2.58-1.35-6.15.6-8.41.82-.96,2.27-1.43,3.17-.3.74.94.77,2.32.65,3.45-.2,1.96-.92,3.77-.89,5.77.02,1.36.29,2.74.95,3.93,1.14,2.06,3.92,3.46,5.85,1.52,1.87-1.87,1.41-4.83,1.05-7.17-.41-2.65.13-7.41,3.86-7.16,1.97.13,3.18,1.92,3.64,3.66.4,1.51.28,3.08.16,4.62-.18,2.36-.61,4.66-1.14,6.96Z"/>
</svg>