<?xml version="1.0" encoding="UTF-8"?>
<svg id="Objects" xmlns="http://www.w3.org/2000/svg" version="1.1" xmlns:xlink="http://www.w3.org/1999/xlink" viewBox="0 0 176.59 198.1">
  <!-- Generator: Adobe Illustrator 30.1.0, SVG Export Plug-In . SVG Version: 2.1.1 Build 136)  -->
  <defs>
    <style>
      .st0 {
        fill: #9b0f08;
      }

      .st1 {
        fill: #ce2e2e;
      }

      .st2 {
        fill: #bf1d1d;
      }

      .st3 {
        fill: #efbf6a;
      }

      .st4 {
        fill: #700000;
      }

      .st5 {
        fill: #4c0202;
      }

      .st6 {
        fill: #fff;
      }

      .st7 {
        fill: #f45151;
      }

      .st8 {
        fill: #ce2420;
      }

      .st9 {
        fill: #d1a246;
      }

      .st10 {
        fill: #ffe9e9;
      }

      .st11 {
        fill: #fff4d7;
      }

      .st12 {
        fill: #5b0806;
      }

      .st13 {
        fill: #f44a4a;
      }

      .st14 {
        fill: #8e651b;
      }

      .st15 {
        fill: #68450d;
      }

      .st16 {
        fill: #c7ecff;
      }

      .st17 {
        fill: #abd5ef;
      }

      .st18 {
        clip-path: url(#clippath);
      }

      .st19 {
        fill: #fffdf8;
      }

      .st20 {
        fill: #ffe8a8;
      }

      .st21 {
        fill: #f97373;
      }
    </style>
    <clipPath id="clippath">
      <path class="st9" d="M90.68,94c43.7-1.33,76.08,17.75,76.32,21.58s-5.96,16.55-9.01,26.97c-3.05,10.42-3.6,27.63-7.7,33.68-4.1,6.05-22.27,13.37-58.16,15.25-35.9,1.89-54.41-7.57-60.27-14.37-5.87-6.8-5.64-17.02-7.69-25.86-2.04-8.84-11.41-32.78-11.41-32.78,25.39-22.21,34.24-23.14,77.94-24.48Z"/>
    </clipPath>
  </defs>
  <g>
    <g>
      <g>
        <path class="st9" d="M90.68,94c43.7-1.33,76.08,17.75,76.32,21.58s-5.96,16.55-9.01,26.97c-3.05,10.42-3.6,27.63-7.7,33.68-4.1,6.05-22.27,13.37-58.16,15.25-35.9,1.89-54.41-7.57-60.27-14.37-5.87-6.8-5.64-17.02-7.69-25.86-2.04-8.84-11.41-32.78-11.41-32.78,25.39-22.21,34.24-23.14,77.94-24.48Z"/>
        <g class="st18">
          <path class="st14" d="M108.02,132.06s-1,36.38-6.55,47.79c-5.55,11.41-42.33,13.84-43.44,13.28s88.47,18.65,99.93-14.89c11.46-33.54,19.58-63.33,13.44-70.46s-51.59,9.67-63.37,24.28Z"/>
          <path class="st3" d="M45,115.88s-27.83-14.74-41.3-.66,13.1,50.38,27.55,58.48c14.46,8.1,35.45,7.37,38.59-5.18,3.14-12.55,3.26-26.87-.22-39.2s-7.13-13.2-24.62-13.45Z"/>
        </g>
      </g>
      <path class="st12" d="M14.16,113.25s-5.94,7.51,4.43,6.89c0,0,.21,14.94,13.65,5.92,0,0,4.32,16.47,15,2.11,0,0,5.8,17.69,15.94,2.18,0,0,8.45,17.65,20.06.78,0,0,8.16,14.36,15.71-.52,0,0,12.42,14.82,19.1-2.21,0,0,12.37,9.43,13.51-2.83,0,0,11.64,9.03,11.63-3.69,0,0,13.34,6.29,12.26-4.46,0,0,14.31,4.52,11.31-5.67-3-10.19-91.48-52.35-152.6,1.5Z"/>
      <g>
        <path class="st15" d="M99.03,130.91s-.67,7.02-1.36,17.55c-.71,10.53-1.4,24.55-1.88,38.65,0,0-.15-2.01-.39-5.39-.11-1.7-.25-3.74-.35-6.05-.03-2.31-.05-4.89-.08-7.66.05-11.07,1.08-25.22,4.06-37.1Z"/>
        <path class="st15" d="M83.19,134.82s.9,6.46,1.67,16.18c.39,4.86.73,10.54.9,16.62.05,3.05.14,6.19.04,9.39-.05,1.6-.1,3.21-.16,4.83-.13,1.62-.31,3.25-.48,4.86,0,0-.06-1.85-.15-4.97-.21-3.12-.5-7.51-.84-12.59-.68-10.17-1.41-23.12-.99-34.33Z"/>
        <path class="st15" d="M63.13,134.03s2.12,6.37,4.54,16.09c.61,2.43,1.24,5.06,1.82,7.87.61,2.8,1.21,5.76,1.7,8.84.25,1.54.5,3.1.76,4.69.18,1.59.36,3.21.54,4.83.44,3.24.4,6.59.45,9.89,0,0-.27-1.87-.71-5.04-.16-1.58-.6-3.46-.99-5.6-.2-1.07-.41-2.2-.63-3.38-.22-1.18-.51-2.41-.77-3.68-2.1-10.21-5.03-23.16-6.72-34.5Z"/>
        <path class="st15" d="M47.21,133.4s2.52,6.11,5.49,15.5c.37,1.17.75,2.4,1.14,3.66.36,1.27.73,2.59,1.11,3.95.37,1.36.75,2.75,1.14,4.18.36,1.43.68,2.9,1.03,4.4.33,1.5.68,3.01.99,4.56.25,1.55.5,3.13.76,4.71.6,3.15.64,6.44.83,9.67,0,0-.33-1.83-.9-4.91-.21-1.54-.72-3.37-1.21-5.44-.5-2.07-1.01-4.39-1.72-6.85-2.59-9.89-6.26-22.41-8.65-33.42Z"/>
        <path class="st15" d="M32.8,130.46s.82,1.45,2.13,4.02c1.31,2.57,3.12,6.28,5.06,10.81,1.93,4.53,4.02,9.88,5.72,15.75.86,2.93,1.57,6.01,2.11,9.17.4,3.16.74,6.44.1,9.64,0,0,0-.46-.01-1.31,0-.42-.01-.94-.02-1.54-.08-.6-.17-1.29-.27-2.05-.45-3.05-1.48-7.29-3.06-12.12-3.12-9.67-8.01-21.74-11.75-32.36Z"/>
        <path class="st15" d="M21.72,127.85s2.98,5.19,6.44,13.36c1.72,4.08,3.57,8.91,5.1,14.19,1.51,5.28,2.78,11.05,2.89,16.86,0,0-.08-.41-.24-1.16-.17-.75-.31-1.85-.69-3.2-.61-2.73-1.75-6.51-3.17-10.85-2.86-8.7-7.13-19.59-10.34-29.2Z"/>
        <path class="st15" d="M118.02,131.66s-1.22,6.8-3.17,16.96c-.49,2.54-1.02,5.29-1.58,8.2-.57,2.91-1.18,5.97-1.75,9.15-.31,1.59-.62,3.2-.94,4.83-.28,1.64-.55,3.29-.84,4.96-.69,3.33-.97,6.74-1.46,10.16,0,0,.02-1.96.04-5.28-.03-1.67.22-3.65.41-5.9.11-1.13.23-2.32.35-3.57.13-1.25.35-2.54.54-3.88,1.52-10.74,4.47-24.28,8.4-35.63Z"/>
        <path class="st15" d="M131.51,129.33s-1.25,6.68-3.12,16.68c-.94,5-2.03,10.82-3.2,17.07-.57,3.12-1.11,6.35-1.62,9.64-.43,3.29-.96,6.64-.91,10.02,0,0-.05-.48-.15-1.36-.04-.44-.13-.99-.15-1.63-.01-.64-.03-1.38-.04-2.19,0-3.27.29-7.87.99-13.16,1.41-10.58,4.29-23.91,8.21-35.06Z"/>
        <path class="st15" d="M143.1,126.69s-1.3,6.54-3.51,16.29c-1.11,4.87-2.43,10.55-3.88,16.63-.7,3.04-1.52,6.17-2.2,9.37-.35,1.6-.78,3.2-1.09,4.82-.3,1.63-.6,3.26-.9,4.9,0,0,.11-1.89.29-5.09.37-3.18.94-7.67,1.97-12.8,1.96-10.29,5.24-23.25,9.33-34.12Z"/>
        <path class="st15" d="M156.13,122.42s-.29.19-.56.89c-.28.67-.61,1.69-1,2.99-.77,2.61-1.76,6.37-2.92,10.89-1.17,4.52-2.53,9.79-3.99,15.43-.74,2.82-1.5,5.74-2.28,8.7-.76,2.97-1.58,5.97-2.15,9.02,0,0,.02-1.77.41-4.74.37-2.97,1.07-7.13,2.08-11.92,1.01-4.78,2.34-10.19,3.98-15.65.82-2.73,1.72-5.47,2.73-8.15.5-1.34,1.03-2.66,1.61-3.95.29-.64.59-1.28.91-1.9.16-.31.33-.61.52-.91.19-.27.37-.64.68-.73Z"/>
      </g>
    </g>
    <g>
      <path class="st17" d="M28.23,169.08s21.21,13.42,67.62,11.58c46.41-1.84,59.29-14.58,59.29-14.58,0,0,2.1,2.53-1.85,5.64,0,0-16.98,14.11-57.44,14.63-40.46.52-66.05-11.75-66.05-11.75-3.51-1.33-4.07-6.86-1.57-5.52Z"/>
      <path class="st17" d="M22.07,146.95s22.92,13.42,73.09,11.58c50.17-1.84,64.08-14.58,64.08-14.58,0,0,2.27,2.53-2,5.64,0,0-18.35,14.11-62.08,14.63s-71.39-11.75-71.39-11.75c-3.79-1.33-4.4-6.86-1.7-5.52Z"/>
      <path class="st17" d="M99.13,155.19s11.92-15.63,20.79-14.87,4.34,13.34.83,17.82c0,0,8.11,12.78,0,15.51s-16.26-3.85-19.86-10c-3.6-6.16-1.76-8.46-1.76-8.46Z"/>
      <path class="st17" d="M86.36,153.65s-14.16-14.06-24.19-9.21,4.96,13.7,4.96,13.7c0,0-8.55,14.23-1.13,16.92,7.42,2.69,23.5-5.04,25.86-11.92,2.36-6.88-5.49-9.49-5.49-9.49Z"/>
      <path class="st17" d="M94.26,151.56c-4.32-1.76-9.1-2.53-9.33,5.68-.23,8.21,3.5,9.47,8.59,8.2,0,0,10.78,1.78,10.82-5.81.06-13.16-10.08-8.07-10.08-8.07Z"/>
      <path class="st16" d="M68.48,146.12c-4.69-.38-7.68,4.08-1.59,9.35,6.09,5.27-.78,9.41-1.02,13.11s8.99,4.16,13.83-.43,2.03-20.96-11.22-22.04Z"/>
      <path class="st16" d="M97.7,154.49c-1.25-2.38-4.17.98-4.17.98,0,0-1.33-4.5-4.25-3.16s-3.96,8.68-.29,10.35c3.67,1.67,6.43-1.42,6.43-1.42,0,0,6.26.86,2.28-6.74Z"/>
      <path class="st16" d="M119.16,143.95c-2.3-2.26-12.87,4.8-14.82,8.35s-2.13,10.65,4.47,16.27c6.6,5.62,9.87.36,9.33-2.71s-2.01-5.19-2.19-7.72,7.53-9.94,3.21-14.19Z"/>
      <path class="st6" d="M72.69,151.92c-.48-.64-1.11-1.2-1.71-1.73-.54-.48-1.01-.9-1.68-1.2-.47-.21-.91-.28-1.41-.37-.97-.17-2.11.82-2.07,1.78.05,1.1.25,1.94.77,2.93.56,1.07,1.35,2.1,2.38,2.78.78.52,1.99.65,2.82.18.75-.42,1.12-.87,1.47-1.64.42-.93,0-1.98-.57-2.73Z"/>
      <path class="st6" d="M93.06,155.97c0-.75-.4-1.44-1.16-1.68-.66-.21-1.62.01-1.96.67-.67,1.29-1.17,3.42-.51,4.79.28.58.9.98,1.55,1.02.91.06,1.52-.49,1.88-1.24.28-.59.17-1.22.16-1.85,0-.57.05-1.13.04-1.69Z"/>
      <path class="st6" d="M95.65,155.73c-1.03-.06-1.58.79-1.52,1.69.04.65.2,1.14.78,1.54.46.32,1.02.2,1.44-.1.57-.4.63-1,.67-1.63.05-.77-.57-1.46-1.36-1.51Z"/>
      <path class="st6" d="M113.84,148.16c-2.61-2.15-6.05.55-7.5,2.74-1.75,2.64-1.97,6.92.78,8.94,1.18.86,2.71.08,3.21-1.09.68-1.59.52-3.36,1.11-4.97.59-1.63,1.74-2.55,2.77-3.88.45-.59.13-1.31-.37-1.72Z"/>
      <path class="st16" d="M64.69,160.33c-2.37-1.45-4.7-1.56-7.46-1.93-3.61-.48-7.05-1.63-10.65-2.09-3.55-.44-6.65-2.04-10.16-2.65-4.89-.85-9.21-2.25-13.57-4.6-.44-.23-1.03.32-.61.69,4.56,4.05,11.37,5.68,17.33,6.44,8.39,1.08,16.34,5.77,25.05,4.46.16-.02.2-.25.07-.33Z"/>
      <path class="st16" d="M70.39,182.61c-2.95-1.59-6.47-1.47-9.73-2.39-3.44-.97-7.11-1.37-10.6-2.2-3.73-.88-7.39-1.99-11.12-2.84-3.87-.88-7.27-3.07-10.92-4.49-.61-.24-1.04.52-.67.94,4.51,5.16,13.56,7.17,20.24,8.44,6.74,1.28,15.83,4.05,22.7,2.93.2-.03.27-.3.08-.4Z"/>
      <path class="st16" d="M80.25,183.26h-.83c-.07,0-.08.1,0,.1h.83c.07,0,.08-.1,0-.1Z"/>
      <path class="st16" d="M122.17,180.28c-3.24.03-6.35.98-9.56,1.41-5.33.7-10.6.93-15.99.96-7.22.05-16.39-2.16-23.2.35-.32.12-.24.53.05.63,4.01,1.37,8.37.86,12.58,1.09,4.85.27,9.7.52,14.56.52,6.56,0,16.39-.19,22.02-3.7.56-.35.17-1.27-.47-1.26Z"/>
      <path class="st16" d="M146.65,172.83c-1.72.24-3.03,1.15-4.57,1.88-2.29,1.09-4.73,1.95-7.19,2.63-3.1.85-7.46.51-10.06,2.27-.28.19-.2.6.06.76,2.87,1.74,7.79-.11,10.73-1.02,3.69-1.14,9.54-2.28,11.86-5.39.41-.55-.16-1.23-.82-1.13Z"/>
      <path class="st16" d="M147.3,151.16c-3.01-.55-7.76,2.41-10.44,3.47-4.4,1.74-8.27,2.34-12.8,3.03-.35.05-.52.45-.38.74,1.48,3.03,8.76.11,10.83-.55,3.72-1.2,10.69-2.65,13.26-5.76.32-.39-.07-.86-.48-.93Z"/>
    </g>
  </g>
  <g>
    <g>
      <path class="st0" d="M14.61,99.92s-8.05,5.26-10.09,8.83c-2.04,3.57-2.14,14.76,5.05,17.73s20.15.48,22.41,2.08c2.26,1.6,11.18,10.51,19.39,12.3,8.21,1.79,17.13-2.68,21.41-1.87s18.91,8.26,26.41,4.89,19.73-9.29,23.6-9.18c3.87.1,20.29,2.78,25.64-.34s12.25-7.66,15.22-9.31,11.9-2.95,12.61-7.3,1.33-11.46-9.32-16.82c-10.66-5.37-87.02-17.67-152.32-.99Z"/>
      <path class="st8" d="M21.8,121.77c-1.25-.76-2.8-.95-4.19-1.38-1.76-.55-3.4-1.42-4.88-2.51-1.22-.9-2.74-1.64-3.73-2.79-1.04-1.2-1.59-2.66-2.37-4.03-.24-.43-1.03-.49-1.31-.06-2.23,3.53.06,8.64,2.65,11.36,2.89,3.02,9.46,6.3,13.63,4.61,2.47-1,2.25-3.94.2-5.2Z"/>
      <path class="st8" d="M57.71,134.09c-1.47-1.97-2.92-2.01-5.3-2.32-3.24-.42-6.17-1.98-9.21-3.06-5.03-1.79-9.61-5.75-15.25-4.61-.68.14-1.02,1.15-.24,1.45,2.83,1.11,5.69,1.93,8.4,3.33,2.8,1.45,4.72,3.87,7.35,5.51,3.53,2.2,10.91,6.32,14.16,1.88.47-.64.59-1.51.09-2.18Z"/>
      <path class="st8" d="M63.96,131.69c-.57-.07-1.13-.09-1.71-.07-.8.02-1.39.83-1.32,1.59.08.87.79,1.3,1.59,1.32.46.01.89,0,1.34-.06,1.54-.19,1.73-2.58.1-2.78Z"/>
      <path class="st8" d="M110.78,134.55c-2.9-.85-5.95.63-8.82,1.25-4.24.91-7.98.74-12.23.13-5.76-.83-13.51-4.17-18.99-1.33-.46.24-.29.92.1,1.11,3.41,1.68,7.49,1.82,11.13,2.96,3.75,1.17,6.83,3.12,10.79,3.73,6.95,1.06,13.64-1.31,18.69-6.06.68-.64.02-1.59-.67-1.79Z"/>
      <path class="st8" d="M125.16,129.74c-1.67-.61-3.23-.58-4.98-.55-1.55.02-3.41.24-4.47,1.47-.36.42-.46,1.21-.07,1.65,1,1.15,2.38,1.37,3.84,1.54,1.82.21,3.82.17,5.54-.47,1.53-.56,1.81-3.02.14-3.64Z"/>
      <path class="st8" d="M155.65,120.15c-3.63,1.17-6.71,3.86-10.15,5.53-4.08,1.98-8.56,2.07-12.94,2.87-.91.17-1.19,1.36-.3,1.8,7.77,3.82,20.36-.64,25.32-7.44,1.02-1.4-.24-3.3-1.94-2.75Z"/>
      <path class="st7" d="M9.89,119.97c-.15-1.16-1-1.96-1.6-2.91-.58-.93-1.17-2.14-1.39-3.22-.2-.99-1.69-1.2-1.87-.07-.24,1.54-.27,2.91.39,4.35.6,1.31,1.54,2.89,3.08,3.15.74.12,1.5-.52,1.39-1.3Z"/>
      <path class="st7" d="M33.42,124.78c-1.45-.7-2.99-.84-4.52-.42-.74.2-.8,1.41-.06,1.67,1.41.49,2.81,1.09,4.16,1.73.77.36,2.55.95,2.81-.37.27-1.38-1.39-2.12-2.39-2.61Z"/>
      <path class="st7" d="M62.88,131.86c-.41.05-.73.17-1.08.39-.72.45-.44,1.36.16,1.74.26.16.52.25.83.29.66.08,1.29-.32,1.4-1,.13-.76-.53-1.5-1.31-1.41Z"/>
      <path class="st7" d="M93.35,139.26c-2.58-1.86-6.65-1.89-9.69-2.81-3.8-1.15-6.83-1.93-10.73-1.18-.61.12-.64.91-.04,1.07,3.98,1.05,7.96,2.44,11.88,3.71,2.73.88,5.91,2.16,8.52.55.45-.27.49-1.03.06-1.34Z"/>
      <path class="st7" d="M120.52,130.05c-1.21-.17-2.36.57-3.5.84-1.26.3-.89,2.14.22,2.35,1.41.27,3.07.12,4.14-.92.77-.75.13-2.14-.85-2.28Z"/>
      <path class="st7" d="M144.34,126.36c-.94.3-1.47.75-2.23,1.37-1.06.85-2.45.9-3.74.93-2.28.05-4.27-.35-6.52.19-.94.23-.57,1.45.15,1.66,3.85,1.1,12.78,2.95,14.1-2.69.24-1.01-.87-1.74-1.76-1.46Z"/>
      <path class="st7" d="M55.57,133.86c-1.57-1.32-3.73-.64-5.64-.99-1.89-.35-4.01-1.36-5.64-2.35-.95-.58-1.65.87-.97,1.55,1.76,1.76,3.22,3.27,5.55,4.27,2.14.92,5.13,1.71,6.9-.16.62-.65.44-1.77-.21-2.31Z"/>
    </g>
    <g>
      <path class="st4" d="M93.36,74.29c31.83.35,82.65-1.92,80.06,20.57-2.58,22.49-47.97,36.77-90.96,35.34C39.48,128.77.57,115.92.57,94.86c0-21.06,45.6-21.09,92.78-20.57Z"/>
      <path class="st2" d="M21.69,111.01c-1.21-1.11-2.81-1.36-4.32-1.92-2.4-.9-4.56-2.35-6.53-3.97-4.55-3.74-6.19-7.94-6.24-13.66,0-.79-1.01-.75-1.34-.22-3.06,4.97.7,11.85,4.1,15.63,2.83,3.15,9.68,8.99,14.23,6.27.79-.47.69-1.58.09-2.13Z"/>
      <path class="st2" d="M33.08,115.98c-.22-.59-.45-.74-1.05-.95-.8-.28-1.34-.89-2.13-1.22-1.46-.61-3.44-1.19-4.89-.36-.37.21-.43.77-.19,1.09.88,1.23,2.8,1.81,4.21,2.16.83.2,1.61.04,2.45.17.71.11,1.02.09,1.53-.42.12-.12.14-.32.08-.47Z"/>
      <path class="st2" d="M75.46,124.84c-1.38-2.09-3.88-2.19-6.16-2.63-3.59-.7-7.2-1.2-10.82-1.7-6.86-.95-13.07-2.87-19.69-4.63-1.15-.31-2.13,1.28-1.38,2.18,3.84,4.62,11.86,5.99,17.44,6.97,4.12.73,8.25,1.16,12.41,1.55,2.57.24,5.69,1.17,7.96-.43.43-.3.52-.88.23-1.31Z"/>
      <path class="st2" d="M83.65,123.93c-.62-.28-1.35-.18-2.02-.18-.64,0-1.27,0-1.91.01-1.43,0-1.2,2.19.2,2.19.56,0,1.12,0,1.68.01.63,0,1.38.12,1.97-.14.79-.36.94-1.5.07-1.9Z"/>
      <path class="st2" d="M134.87,118.79c-3.71,1.4-7.12,2.92-11.07,3.64-3.81.69-8.17.61-12.05.75-7.38.26-14.99-.68-22.3.51-1.26.2-1.49,2.19-.08,2.34,14.45,1.55,33.53,2.41,46.42-5.47.98-.6.13-2.16-.91-1.76Z"/>
      <path class="st13" d="M6.26,101.42c-1.27-2.19-1.94-4.71-2.69-7.11-.12-.37-.61-.26-.69.06-.65,2.64-.06,4.94.98,7.4.9,2.13,2.2,4.73,4.22,5.94.44.26,1.02-.21.96-.68-.28-2.03-1.76-3.85-2.78-5.6Z"/>
      <path class="st13" d="M15.22,109.03c-.92-.69-1.98-1.06-3.04-1.47-.75-.29-1.68.4-1.33,1.23.56,1.34,1.74,2.52,3.25,2.68.62.07,1.23-.21,1.49-.8.24-.54.11-1.28-.38-1.64Z"/>
      <path class="st13" d="M27.52,113.45s-.35-.15-.49-.21c0,0-.01,0-.02,0-.6-.72-1.73-.49-2,.51-.34,1.25.93,2.32,2.1,2.12,1.21-.2,1.61-1.85.4-2.41Z"/>
      <path class="st13" d="M56.64,121.9c-2.41-1.43-5.38-1.5-8.05-2.26-3.28-.93-6.4-2.34-9.73-3.08-.43-.09-.69.51-.35.77,4.19,3.34,12.53,9.28,18.06,6.42.81-.42.87-1.38.07-1.85Z"/>
      <g>
        <path class="st13" d="M79.88,123.49s0,0,0,0c-.01,0-.03,0-.05,0,0,0,0,0,0,0,.02,0,.04,0,.05,0Z"/>
        <path class="st13" d="M79.88,123.49c.11-.02-.01-.03,0,0h0Z"/>
        <path class="st13" d="M80.89,123.58c-.25-.07-.62-.16-.88-.12-.05,0-.09.02-.14.02,0,0,.02.02.05.03-.03-.01-.07-.01-.11-.02,0,0,0,0-.01,0,0,0,0,0,.01,0-.79-.2-1.81.51-1.38,1.4.18.38.39.71.73.96.62.44,1.25.4,1.95.23.56-.13.9-.81.85-1.34-.06-.62-.51-1.01-1.08-1.16Z"/>
      </g>
      <path class="st13" d="M101.32,124.76c-1.3-1.58-3.49-1.45-5.41-1.59-2.41-.18-4.69-.07-7.04.51-.58.14-.37.93.1,1.04,2.17.54,4.32.65,6.54.86,1.79.17,3.73,1.07,5.44.36.43-.18.71-.77.37-1.18Z"/>
      <path class="st13" d="M108.18,123.81c-.56-.15-1.22-.06-1.79-.05-.57,0-1.13.1-1.69.19-1.01.15-1.14,1.66-.07,1.83,1.18.18,2.57.41,3.74.09,1.14-.31.73-1.81-.19-2.05Z"/>
      <path class="st5" d="M168.63,93.75c-.5-1.13-1.67-1.77-2.88-1.35-1.8.63-2.63,2.68-3.89,3.99-.54.57-1.28.96-1.92,1.41-.06.04-.1.08-.15.12-.13.03-.27.07-.41.12-5.2,2.06-8.68,7.95-13.11,11.31-4.52,3.44-10.53,4.39-15.94,5.71-5.59,1.36-11.45,2.27-17.21,1.84-4-.3-7.38-1.67-10.69-3.49,2.95-1.87,5.55-4.05,7.09-6.38,1.09-1.65.25-4.75-2.24-4.26-4.52.9-8.1,4.11-12.02,6.41-5.14,3.01-10.8,4.2-16.65,4.9-6.47.78-15.97.93-21.33-3.9,1.09-.81,2.02-1.71,2.72-2.69.86-1.22.5-3.58-1.36-3.65-4.5-.17-8.25,2.32-12.44,3.81-5.72,2.04-11.47,1.88-17.19-.05-3.83-1.29-15.11-6.63-16.95-12.22,1.61-.7,2.26-3.27.67-4.49-1.07-.83-2.1-1.4-2.92-2.52-.89-1.22-.86-2.78-2.05-3.84-.59-.52-1.48-.51-2.11-.09-2.26,1.5-1.39,4.59-.36,6.56.49.95,1.17,1.83,1.97,2.57-2.59,4.76,10.08,15.05,12.71,16.72,5.78,3.68,12.11,5.36,18.92,5.44,3.56.04,8.47-.84,12.81-2.55,3.3,5.2,15.88,7.97,19.68,8.03,6.49.1,12.87-.77,19.13-2.47,2.14-.58,4.66-1.53,7.18-2.73,6.64,9.29,21.49,7.95,31.45,6.01,6.24-1.21,12.76-2.62,18.38-5.63,4.88-2.61,11.88-8.53,14.33-13.97.15-.04.29-.07.45-.12,1.05-.35,2.07-1.02,2.97-1.66,1.96-1.41,4.53-4.31,3.38-6.91Z"/>
    </g>
    <g>
      <g>
        <path class="st1" d="M32.41,55.13s-17.52-2.38-19.16,17.42c-1.64,19.8,29.08-5.18,19.16-17.42Z"/>
        <path class="st20" d="M140.29,55.56s27.13,2.86,33.91,11.42-2.14,31.05-23.92,39.98c0,0,13.29-17.85,8.07-29.98-5.22-12.14-13.78-20.35-18.07-21.42Z"/>
        <path class="st1" d="M134.58,53.78s21.06,3.57,25.7,12.14c4.64,8.57,7.14,35.69-16.78,46.4-23.92,10.71-48.54,4.64-43.9-2.5s28.2-12.49,34.62-16.06,23.56-24.63,1.43-32.84c-22.13-8.21-4.53-7.85-1.07-7.14Z"/>
        <path class="st20" d="M131.18,56.99c-1.24-3.56,17.32,7.5,18.04,17.13.71,9.64-6.78,20.7-16.42,23.92s-47.47,21.25-61.39,20.08c-13.92-1.17-14.99-5.81-14.28-9.02s23.2-18.81,35.34-23.32c12.14-4.52,42.46-18.08,38.72-28.79Z"/>
        <path class="st1" d="M116.96,47.03s14.64,6.77,16.85,13.18c2.2,6.41-17.87,20.84-37.06,27.03-19.19,6.19-31.77,26.86-57.83,24.72-26.06-2.14-29.27-13.56-29.98-15.71-.71-2.14,8.92-9.53,14.28-10.47s26.41-.84,39.98,0c13.56.84,71.26-23.02,53.77-38.75Z"/>
        <path class="st20" d="M109.24,68.15s-21.07,15.01-31.42,17.63-30.14,1.92-43.9,1.46c-13.76-.46-22.21,6.87-25.02,5.09S-.35,80.55,1.44,73.05c1.78-7.5,25.34-6.43,37.12-5.36,11.78,1.07,49.76,3.58,58.61,4.21,8.85.63,7.52-1.4,12.08-3.75Z"/>
        <path class="st11" d="M74.24,82.67c-9.11.77-17.86-.4-26.65-2.76-8.59-2.3-16.19-6.75-24.62-9.34-5.2-1.6-12.74-1.81-16.56,2.88-3.11,3.81-3.79,9.59-.72,13.68.69.91,2.29.92,2.74-.25,1.58-4.08.56-8.86,5.48-10.64,6.13-2.22,15.33,1.7,21.13,3.52,12.67,3.98,26.14,6.68,39.42,5.24,1.49-.16,1.28-2.44-.21-2.31Z"/>
        <path class="st11" d="M140.99,63.31c-.62-.85-2-.57-2.17.49-.56,3.36.56,6.63-.69,9.96-1.13,3.02-3.64,5.05-6.27,6.74-6.01,3.87-13.95,5.25-20.88,6.29-6.11.92-12.49,1.22-18.43,2.97-7.72,2.27-18.18,11.15-20.33,19.03-.43,1.58,1.47,2.95,2.87,2.39,4.81-1.91,7.79-6.91,11.55-10.3,3.82-3.45,8.09-5.27,13.09-6.23,6.88-1.31,13.74-2.52,20.5-4.4,6.43-1.79,13.17-4.54,17.73-9.63,3.76-4.21,6.74-12.23,3.05-17.3Z"/>
        <path class="st11" d="M164.03,62.35c-.92-.46-1.96.75-1.31,1.58,2.76,3.52,5.3,6.83,4.62,11.56-.57,4.01-3.73,7.16-3.92,11.12-.08,1.69,1.46,2.74,2.97,1.87,4.34-2.48,5.99-9.24,6.04-13.93.06-5.48-3.74-9.87-8.4-12.2Z"/>
        <path class="st21" d="M145.24,58.58c-.52-.1-.99.56-.63,1,3.05,3.74,6.05,6.49,7.49,11.28,1.51,5.04.07,10.41-1.86,15.1-2.1,5.12-5.66,8.95-10.21,11.98-5.4,3.6-12.08,4.85-16.8,9.4-1.58,1.53.23,3.69,1.95,3.7,7.52.06,15.72-4.99,21.62-9.3,5.06-3.7,8.61-9.36,10.41-15.27,2.93-9.58-.33-25.69-11.96-27.89Z"/>
        <path class="st21" d="M95.69,83.95c-13.15,3.34-26.45,6.85-39.75,9.61-6.84,1.42-13.97,1.99-20.94,1.58-5.63-.33-12.15-3.05-17.34-.18-1.06.59-1.26,2.26-.57,3.18,3.89,5.15,12.59,4.81,18.48,5.08,6.89.32,13.54-.53,20.24-2.04,14.3-3.22,26.51-11.59,40.3-16.1.75-.25.32-1.32-.41-1.13Z"/>
        <path class="st10" d="M44.38,98.83c-4.39-.68-9.11.43-13.59.09-4.42-.33-7.81-3.28-12.28-2.91-1.36.11-1.34,2.02-.08,2.3,7.53,1.69,18.87,6.37,26.26,1.86.56-.35.32-1.24-.3-1.34Z"/>
        <path class="st10" d="M74.12,89.71c-4.17,1.37-8.08,3.54-12.19,5.11-4.63,1.76-9.43,2.68-14.32,3.35-.78.11-.9,1.37-.05,1.43,9.17.66,19.73-3.55,27.17-8.72.63-.44.1-1.4-.6-1.16Z"/>
        <path class="st10" d="M153.11,88.49c-3.78,5.19-7.87,8.84-13.64,11.66-4.24,2.07-9.18,3.45-12.16,7.36-.53.7.14,1.88,1.05,1.49,5.22-2.26,10.23-5.57,15.32-8.19,5.06-2.6,8.7-6.18,10.68-11.54.28-.74-.73-1.49-1.25-.78Z"/>
        <path class="st19" d="M28.5,74.84c-3.71-3.64-9.76-4.77-14.64-3.29-5.54,1.67-7.15,6.54-8.45,11.51-.16.62.82.9,1.06.32,1.55-3.64,4.81-7.22,8.61-8.46,4.29-1.41,8.49.93,12.6,1.72,1.07.21,1.5-1.12.82-1.79Z"/>
        <path class="st19" d="M132.72,79.87c-6.22,2.03-11.15,5.73-17.84,6.64-5.95.81-11.89,1.98-17.7,3.51-10.86,2.85-16.44,9.37-23.35,17.66-.57.68.45,1.51,1.05.87,3.47-3.69,6.79-7.28,10.9-10.28,4.93-3.61,11.44-5.02,17.3-6.25,10.8-2.28,22.14-1.99,30.83-9.84,1.06-.95.3-2.78-1.19-2.29Z"/>
        <path class="st19" d="M170.59,71.52c-.23-.41-.87-.29-1.04.1-.87,1.92-.85,4.09-1.36,6.12-.63,2.53-2.08,4.7-2.96,7.11-.34.92.74,1.55,1.41.88,3.08-3.02,6.28-10.08,3.95-14.22Z"/>
      </g>
      <g>
        <path class="st20" d="M103.11,18.8s-2.44,14.63,6.13,14.63,26.41,7.85,31.05,13.92c4.64,6.07-3.98,24.2-16.09,21.92,0,0,4.31-19.78-3.9-22.99-8.21-3.21-24.75-7.85-17.19-27.48Z"/>
        <path class="st1" d="M106.16,11.66s-8.09,15.32-3.06,22.13c5.03,6.81,23.11,6.43,26.47,14.63,3.36,8.21-4.09,25.52-14.7,30.76,0,0-9.33-.78-11.77-5.42s5.06-14.63,2.91-18.2-16.99-24.99.14-43.9Z"/>
        <path class="st20" d="M84.96,4.52s12.02-7.85,18.15-2.86c6.13,5,6.01,8.21,0,18.56s.48,24.99,4.55,26.77c4.07,1.78,8.96,6.07,7.23,11.07-1.73,5-11.37,25.87-39.21,24.72,0,0-9.44-1.29-15.07-11.75-5.63-10.46,17.21-12.9,20.07-25.6,2.86-12.7,12.43-19.13,18.35-26.62,5.92-7.5,8.06-26.06-14.07-14.28Z"/>
        <path class="st20" d="M84.96,4.52s12.02-7.85,18.15-2.86c6.13,5,6.01,8.21,0,18.56s.48,24.99,4.55,26.77c4.07,1.78,8.96,6.07,7.23,11.07-1.73,5-11.37,25.87-39.21,24.72,0,0-9.44-1.29-15.07-11.75-5.63-10.46,17.21-12.9,20.07-25.6,2.86-12.7,12.43-19.13,18.35-26.62,5.92-7.5,8.06-26.06-14.07-14.28Z"/>
        <path class="st20" d="M37.49,70.91s-12.14-.36-14.63-6.78,3.36-13.94,7.32-15.68c10.89,0,26.59-1.91,38.37-7.03,11.78-5.12,16.74-11.89,16.74-11.89,0,0-5.8,14.28-9.95,20.7s-30.34,16.77-37.84,20.7Z"/>
        <path class="st1" d="M33.2,74.12c-4.08-1.36-2.86-14.57,14.28-17.82s25.7-7.88,32.84-20.02c7.14-12.14,16.84-15.29,16.84-15.29,0,0-10.42,9.58-12.2,18.14-1.78,8.57-3.21,20.26-15.35,27.8-12.14,7.54-23.56,11.47-36.41,7.18Z"/>
        <path class="st11" d="M97.1,30.47c2.74-5.88,6.84-11.53,6.71-18.11,0-.06-.09-.06-.1,0-3.48,12.43-18.56,17.73-17.48,31.79.54,7.06,1.72,12.88-4.43,17.97-4.64,3.84-11.22,4.11-15.87,7.8-1.48,1.17-1.74,4.13.45,4.82,13.22,4.22,27.63-7.99,29.61-20.62.57-3.62-.54-7.26-1.31-10.76-.56-2.52-1.31-5.1-.23-7.59.78-1.8,1.83-3.52,2.66-5.31Z"/>
        <path class="st11" d="M100.8,48.63c-.77-2.18-3.79-1.29-3.76.84.03,1.76.01,3.6-.15,5.36-.16,1.73-1.46,3.05-1.56,4.74-.07,1.31.76,2.31,2.12,2.28,2.83-.07,4.2-3.17,4.62-5.57.46-2.69-.38-5.17-1.26-7.65Z"/>
        <path class="st11" d="M137.46,51.11c-.43-3.44-3.88-6.37-6.45-8.32-5.29-4.01-15.72-8.46-22.52-7.71-.58.06-.62.77-.17,1.03,4.74,2.79,10.62,3.51,15.51,6.26,2.79,1.58,5.61,3.71,7.35,6.43,3.12,4.88-1.73,8.88-2.4,13.5-.27,1.84,1.66,2.84,3.15,1.99,4.4-2.5,6.13-8.38,5.53-13.18Z"/>
        <path class="st11" d="M76.3,37.94c-7,1.54-12.48,6.93-19.73,8.11-5.71.93-11.41,1.8-17.04,3.14-7.36,1.76-20.04,7.64-12.96,16.83.8,1.04,2.39.2,2.01-1.04-2.99-9.85,13.31-11.25,19.73-12.36,4.04-.7,8.09-1.3,12.07-2.3,5.73-1.45,13.58-5.7,16.87-10.57.46-.69.1-2.03-.95-1.8Z"/>
        <path class="st21" d="M84.95,31.23c-3.58,5.4-5.88,11.51-9.74,16.77-3.56,4.85-10.31,6.49-15.82,7.88-5.46,1.38-25.22,4.72-21.08,14.26.37.85,1.1,1.32,2.03,1.28,1.91-.07,3.14-.97,4.65-2.1,2.35-1.75,4.78-2.79,7.56-3.65,5.43-1.68,10.91-2.73,16.1-5.14,11.38-5.29,13.48-18.01,17.05-28.83.14-.43-.44-.91-.74-.46Z"/>
        <path class="st21" d="M123.07,52.35c-1.79-6.08-11.27-10.87-16.84-12.42-.52-.14-.67.54-.39.84,3.87,4.04,9.41,5.59,11.85,11.05,1.44,3.23,1.02,6.75-.19,9.99-1.34,3.59-5.11,5.35-6.35,8.87-.61,1.72.79,3.19,2.54,2.74,8.09-2.1,11.49-13.92,9.39-21.07Z"/>
        <path class="st10" d="M61.07,58.17c-4.68-.91-22.51,2.55-21.25,9.65.11.62.76.79,1.2.37,1.21-1.13,1.95-2.52,3.28-3.59,1.85-1.49,4.04-2.33,6.27-3.06,3.41-1.12,7.33-1.13,10.56-2.67.32-.15.31-.62-.06-.69Z"/>
        <path class="st10" d="M76.98,48.9c-.05-.29-.31-.59-.63-.53-1.66.32-2.73,1.96-3.94,3.04-1.48,1.33-3.09,2.4-4.53,3.78-.32.31.11.72.45.63,2.04-.52,3.69-1.28,5.46-2.43,1.45-.95,3.51-2.55,3.19-4.49Z"/>
        <path class="st10" d="M118.04,48.4c-1.73-2.48-4.24-4.37-7.05-5.39-.14-.05-.28.14-.15.24,2.07,1.5,4.12,3.28,5.47,5.47.73,1.18,1.4,2.34,1.93,3.63.49,1.18.66,2.42,1.33,3.52.32.53,1.24.32,1.3-.29.28-2.52-1.45-5.18-2.84-7.17Z"/>
        <path class="st10" d="M119.52,62.12c-1.4.32-2.21,2.04-3,3.1-1.01,1.34-1.99,2.86-3.28,3.96-.62.53-.16,1.68.7,1.34,1.6-.64,2.95-1.62,4.11-2.89,1.06-1.16,2.87-3.05,2.68-4.75-.07-.63-.64-.9-1.21-.76Z"/>
        <path class="st19" d="M38.89,52.11c-2.47-1.12-6.09.88-8.23,1.99-2.48,1.29-4.67,4.03-4.18,6.91.18,1.1,1.87,1.28,2.03.07.46-3.46,4.1-4.45,7-5.3.77-.23,6.19-2.41,3.38-3.68Z"/>
        <path class="st19" d="M49.8,48.38c-.9-.32-1.68.05-2.52.4-.91.38-1.8.82-2.73,1.15-1.2.42-.8,2.44.5,2.21.96-.17,1.95-.37,2.86-.72.86-.33,2.08-.76,2.39-1.72.16-.49.05-1.13-.5-1.33Z"/>
        <path class="st19" d="M92.96,29.56c-7.6,4.81-5.08,16.38-5.83,23.84-.99,9.91-11.18,13.72-18.28,18.28-.51.33-.22,1.3.43,1.16,7.15-1.53,15.14-6.78,18.86-13.18,2.16-3.74,3.4-7.66,3.8-11.95.27-2.93-.04-5.81.53-8.72.55-2.82,2.42-5.06,2.9-7.91.23-1.36-1.3-2.22-2.4-1.52Z"/>
        <path class="st19" d="M100.15,51.27c-.13-1.08-1.8-.93-1.68.15.14,1.22.04,2.37-.23,3.56-.25,1.13-.85,2.08-.88,3.25-.01.43.59.69.91.42,1.89-1.58,2.14-5.11,1.87-7.39Z"/>
        <path class="st19" d="M133.01,46.47c-3.72-4.55-9.9-7.47-15.42-9.07-1.09-.32-1.49,1.36-.55,1.83,4.15,2.08,8.39,3.89,11.89,7.02,2.09,1.87,3.55,4.35,4.09,7.11.45,2.29-.67,4.3,0,6.5.16.53.9.76,1.33.42,4.12-3.23,1.35-10.51-1.34-13.8Z"/>
      </g>
    </g>
  </g>
</svg>