<?xml version="1.0" encoding="UTF-8"?>
<svg id="Objects" xmlns="http://www.w3.org/2000/svg" version="1.1" xmlns:xlink="http://www.w3.org/1999/xlink" viewBox="0 0 167.41 209.72">
  <!-- Generator: Adobe Illustrator 30.1.0, SVG Export Plug-In . SVG Version: 2.1.1 Build 136)  -->
  <defs>
    <style>
      .st0 {
        fill: #ffb3b3;
      }

      .st1 {
        fill: #5eb73d;
      }

      .st2 {
        fill: #660808;
      }

      .st3 {
        fill: #700000;
      }

      .st4 {
        fill: #510000;
      }

      .st5 {
        fill: #fff;
      }

      .st6 {
        fill: #ff8d8d;
      }

      .st7 {
        fill: #f94b4b;
      }

      .st8 {
        fill: #a0e4f9;
      }

      .st9 {
        fill: #820000;
      }

      .st10 {
        fill: #ce2525;
      }

      .st11 {
        fill: #d60f0f;
      }

      .st12 {
        fill: #6ebcce;
      }

      .st13 {
        fill: #c12323;
      }

      .st14 {
        fill: #86e55e;
      }

      .st15 {
        fill: #3f8223;
      }

      .st16 {
        fill: #f22a2a;
      }

      .st17 {
        fill: #ffc0c0;
      }

      .st18 {
        fill: #e54a4a;
      }

      .st19 {
        fill: #ffdcdc;
      }

      .st20 {
        clip-path: url(#clippath);
      }

      .st21 {
        fill: #176977;
      }

      .st22 {
        fill: #f26b6b;
      }

      .st23 {
        fill: #380000;
      }

      .st24 {
        fill: #d2f7ff;
      }
    </style>
    <clipPath id="clippath">
      <path class="st8" d="M7.48,125.3s15.35,41.4,21.22,60.82c0,0,9.19,25.29,58.38,23.51,42.29-1.53,50.4-24.4,50.4-24.4,0,0,20.89-55.73,20.53-58.39s-22.51-16.87-70.93-15.84c-48.42,1.02-69.15-.26-79.61,14.31Z"/>
    </clipPath>
  </defs>
  <g>
    <g>
      <path class="st8" d="M7.48,125.3s15.35,41.4,21.22,60.82c0,0,9.19,25.29,58.38,23.51,42.29-1.53,50.4-24.4,50.4-24.4,0,0,20.89-55.73,20.53-58.39s-22.51-16.87-70.93-15.84c-48.42,1.02-69.15-.26-79.61,14.31Z"/>
      <g class="st20">
        <path class="st24" d="M13.71,169.18s26.05,13.6,43.58,10.11,26.29-33.82,15.81-52.69S4.8,101.26.09,109.71s2.24,37.44,13.62,59.46Z"/>
        <path class="st12" d="M120.16,113.59s-5.33,61.69-16.81,78.72c-11.48,17.03-52.8,12.19-74.83.36-22.04-11.84,36.08,47.57,81.76,22.76s67.13-84.83,61.35-107.72-41.95-14.33-51.47,5.88Z"/>
      </g>
    </g>
    <path class="st23" d="M7.52,122.98s-1.79,7.91,8.42,6.14c0,0-.27,10.74,10.08,4.87,0,0,2.68,8.35,12.65,4.18,0,0,4.17,9.45,13.97,3.02,0,0,5.93,9.81,16.68,1.94,0,0,6.28,8.08,15.67.37,0,0,9.41,8.9,14.38-.81,0,0,9.44,8.02,13.21-1.61,0,0,11.25,7.22,14.28-2.87,0,0,15.8,4.53,13.12-4.06,0,0,12.81,4.43,9.33-4.24,0,0,10.92,2.21,8.34-5.73,0,0-3.52-21.41-68.28-20.78-61.12.59-76.97,2.69-81.85,19.58Z"/>
    <g>
      <g>
        <path class="st21" d="M70.07,143.93s6.06,46.79,7.18,60.84"/>
        <path class="st21" d="M70.16,143.92s1.37,7.55,3.01,18.92c.86,5.68,1.62,12.35,2.35,19.5.73,7.15,1.38,14.79,1.82,22.43,0,0-1.48-8.63-3.08-20.53-.83-5.95-1.56-12.73-2.37-19.67-.78-6.94-1.41-14.04-1.73-20.65Z"/>
      </g>
      <g>
        <path class="st21" d="M84.99,145.75s.7,52.89.96,59.03"/>
        <path class="st21" d="M85.07,145.74s.53,7.37.92,18.43c.39,11.06.62,25.8.04,40.59,0,0-.65-8.38-1.09-19.96-.44-11.57-.68-26.35.13-39.07Z"/>
      </g>
      <g>
        <path class="st21" d="M100.31,145.75s-6.19,53.92-6.7,60.3"/>
        <path class="st21" d="M100.39,145.76s-.43,7.58-1.48,18.91c-1.05,11.33-2.72,26.39-5.22,41.39,0,0,.44-8.63,1.5-20.48,1.06-11.86,2.74-26.95,5.19-39.82Z"/>
      </g>
      <g>
        <path class="st21" d="M112.58,143.93s-9.96,53.43-10.76,60.84"/>
        <path class="st21" d="M112.66,143.95s-1.01,7.67-2.89,19.1c-.95,5.71-2.1,12.37-3.43,19.49-.7,3.55-1.42,7.22-2.15,10.95-.71,3.72-1.47,7.51-2.29,11.3,0,0,.24-2.19.65-5.88.22-1.85.49-4.07.8-6.59.35-2.51.77-5.3,1.24-8.29,1.85-11.99,4.64-27.18,8.07-40.08Z"/>
      </g>
      <g>
        <path class="st21" d="M126.32,139.64s-14.08,55.93-14.84,62.57"/>
        <path class="st21" d="M126.41,139.66s-1.56,7.9-4.25,19.65c-1.35,5.88-2.96,12.72-4.8,20.03-1.77,7.32-3.98,15.06-5.78,22.88,0,0,.08-.57.21-1.61.16-1.04.31-2.59.68-4.48.35-1.9.78-4.2,1.26-6.79.54-2.58,1.14-5.46,1.78-8.55,2.68-12.34,6.54-27.95,10.9-41.13Z"/>
      </g>
      <g>
        <path class="st21" d="M140.12,137.01s-17.36,53.96-18.39,60.61"/>
        <path class="st21" d="M140.2,137.04s-2.03,7.66-5.41,19.05c-1.69,5.69-3.7,12.32-5.96,19.39-1.11,3.54-2.3,7.19-3.51,10.89-.6,1.85-1.21,3.72-1.81,5.59-.64,1.87-1.11,3.77-1.7,5.67,0,0,.1-.55.29-1.57.21-1.01.43-2.53.91-4.37.46-1.85,1.01-4.08,1.63-6.6.68-2.5,1.45-5.3,2.27-8.3,3.39-11.97,8.15-27.08,13.29-39.75Z"/>
      </g>
      <g>
        <path class="st21" d="M151.68,133.99s-17.89,47.97-20.75,55.45"/>
        <path class="st21" d="M151.76,134.02s-8.83,28.31-20.75,55.45c0,0,9.91-32.3,20.75-55.45Z"/>
      </g>
      <g>
        <path class="st21" d="M52.64,143.93s12.64,45.25,15.48,60.84"/>
        <path class="st21" d="M52.72,143.91s2.5,7.45,5.75,18.77c3.23,11.31,7.26,26.54,9.73,42.08,0,0-.6-2.16-1.6-5.81-.48-1.82-1.06-4.02-1.72-6.5-.32-1.24-.66-2.56-1.02-3.93-.39-1.37-.79-2.8-1.21-4.28-1.68-5.93-3.41-12.7-5.2-19.63-1.77-6.93-3.41-14.05-4.73-20.7Z"/>
      </g>
      <g>
        <path class="st21" d="M40.71,141.02s13.91,47.4,17.55,61.2"/>
        <path class="st21" d="M40.79,141s2.59,7.53,6.08,18.96c3.49,11.42,7.88,26.73,11.47,42.24,0,0-2.99-8.58-6.68-20.52-3.69-11.94-8.07-27.22-10.87-40.68Z"/>
      </g>
      <g>
        <path class="st21" d="M28.42,137.48s13.97,48.38,17.51,58.86"/>
        <path class="st21" d="M28.51,137.46s2.54,7.25,5.96,18.25c1.68,5.51,3.68,11.91,5.69,18.82,2.01,6.9,4.03,14.31,5.86,21.79,0,0-3.01-8.2-6.75-19.67-3.79-11.45-8.04-26.21-10.76-39.18Z"/>
      </g>
      <g>
        <path class="st21" d="M17.34,135.27s13.91,39.35,17.25,54.17"/>
        <path class="st21" d="M17.42,135.24s2.76,6.56,6.37,16.61c1.8,5.02,3.82,10.91,5.76,17.3.48,1.6.96,3.22,1.45,4.87.47,1.65.91,3.34,1.35,5.03.93,3.38,1.63,6.89,2.32,10.37,0,0-.61-1.94-1.64-5.2-.47-1.64-1.2-3.57-1.92-5.78-.37-1.1-.75-2.27-1.16-3.49-.42-1.22-.86-2.49-1.31-3.81-3.58-10.56-8.13-24.01-11.22-35.9Z"/>
      </g>
    </g>
  </g>
  <g>
    <g>
      <path class="st3" d="M76.51,90.08c-30.38.34-78.88-1.83-76.42,19.63,2.47,21.47,45.79,35.1,86.82,33.73,41.03-1.36,78.16-13.63,78.16-33.73s-43.52-20.13-88.56-19.63Z"/>
      <path class="st4" d="M161.24,99.59c-.75-.53-1.96-.44-2.34.54-.34.88-.46,1.79-.51,2.7-.99.36-1.79,1.55-1.37,2.64,4.01,10.6-11.89,14.86-19.15,15.56-3.68.35-7.39.59-11.09.72-3.85.14-7.01-.61-10.59-1.46-.18-.62-.47-1.22-.91-1.81-.89-1.18-2.9-.85-3.13.71-.68,4.58-2.7,6.89-7.02,8.29-3.86,1.26-8.29.79-12.21.21-3.64-.54-7.22-1.57-10.66-2.84-2.83-1.04-5.39-2.71-8.33-3.42-1.03-.25-1.74.88-1.44,1.76-1.09.77-2.06,1.66-3.24,2.43-2.5,1.63-5.79,2.19-8.69,2.56-4.63.58-9.33.25-13.93-.45-4.84-.74-9.51-2.26-13.89-4.44-3.4-1.7-6.11-4.2-8.93-6.63-.18-.48-.57-.88-1.24-1.09-.04-.01-.07-.03-.1-.04-.08-.07-.16-.13-.24-.2-.31-.26-.65-.3-.95-.23-3.42-1.37-6.34-3.6-9-6.17-1.6-1.55-2.89-3.37-4.13-5.2-.91-1.35-1.47-2.79-2.81-3.78-.38-.28-1.03-.23-1.21.28-1.3,3.7,2.24,8.01,4.43,10.69,3.18,3.89,7.34,7.17,12.14,8.77.37.12.72.15,1.05.11,4.65,8,17.23,11.26,25.41,12.52,7.2,1.11,23.81,1.83,28.24-6.11,2.58,1.8,5.88,2.86,8.65,3.83,4.87,1.71,9.93,2.55,15.09,2.68,4.49.11,9.06-.94,12.76-3.55,1.58-1.12,3.04-2.73,3.86-4.51,3.7,2.09,8.95,1.86,12.91,1.73,5.6-.19,11.58-.36,17.03-1.75,7.04-1.79,20.03-10.62,16.2-18.89.49-.65.67-1.49.74-2.31.1-1.27-.27-3.06-1.39-3.85Z"/>
      <path class="st13" d="M35.93,132.12c-2.03-2.48-5.12-2.96-8.08-3.87-3.43-1.06-7.04-3.9-9.9-5.99-5.93-4.34-9.35-10.12-13.32-16.04-.38-.57-1.35-.51-1.61.15-2.48,6.41,4.72,13.87,9.69,16.93,3.89,2.4,7.86,4.81,11.93,6.9,3.53,1.81,6.36,5.4,10.67,3.87.74-.26,1.14-1.29.62-1.94Z"/>
      <path class="st13" d="M67.95,138.09c-3.93-1.9-9.18-1.45-13.46-2.58-4.72-1.25-10.25-3.06-15.16-2.84-1.31.06-1.27,1.68-.37,2.23,3.84,2.39,9.09,4.87,13.75,4.79,4.83-.08,10.98,2.67,15.41.24.75-.41.49-1.53-.17-1.85Z"/>
      <path class="st13" d="M76.62,138.66c-.64-.76-1.41-1.08-2.37-1.24-.38-.06-.77-.07-1.16-.07-.1,0-.2,0-.3.03.23-.04-.05-.02-.15-.04-1.35-.36-2.24,1.67-1.13,2.48.07.05.14.1.21.15.04.03.07.06.11.09-.19-.22-.12-.14.21.22.3.25.62.46.96.64.89.47,1.81.64,2.79.39,1.04-.27,1.53-1.82.84-2.64Z"/>
      <path class="st13" d="M109.36,136.67c-8.54-1.17-18.39-1.26-26.87.74-1.16.27-.69,1.78.19,2.03,8.47,2.48,18.57.45,26.76-1.94.42-.12.34-.78-.08-.84Z"/>
      <path class="st13" d="M130.94,132.66c-1.87-1.88-4.7-.84-6.94-.2-3.17.91-6.22,2.1-9.42,2.92-.85.22-.52,1.31.14,1.5,2.92.85,5.69.13,8.53-.68,2.49-.72,5.85-.78,7.79-2.59.29-.27.15-.72-.09-.95Z"/>
      <path class="st13" d="M139.67,130.73c-.35-.96-1.37-1.36-2.31-1.08-1.01.31-2.03.75-2.96,1.26-.84.46-.53,1.68.19,2.05,1.23.63,2.73.52,4,.09.93-.32,1.41-1.4,1.08-2.31Z"/>
      <path class="st13" d="M153.19,122.67c-.07-.45-.42-.76-.89-.74-1.66.09-2.87,2.02-4.14,2.94-1.47,1.07-3.07,1.96-4.61,2.93-.53.33-.17,1.11.4,1.08,2.07-.09,3.99-.71,5.75-1.81,1.42-.89,3.8-2.49,3.5-4.41Z"/>
      <path class="st13" d="M81.61,129.24c-2.03-.59-4.45-.31-6.34.63-1.15.58-1.96,2.05-1.03,3.24.71.9,1.56,1.68,2.72,1.88.53.27,1.1.46,1.69.53,2.44.29,4.35-1.25,4.89-3.58.31-1.35-.77-2.36-1.93-2.7Z"/>
      <path class="st18" d="M10.13,115.39c-.23-.76-.94-1.44-1.41-2.05-.72-.95-1.83-2.99-3.2-3.06-.46-.03-.91.13-1.11.59-.55,1.26.63,2.83,1.29,3.82.83,1.23,1.88,3.37,3.67,2.86.95-.27.98-1.41.75-2.15Z"/>
      <path class="st18" d="M14.25,119.7c-.29-.33-.57-.63-.93-.88-.64-.45-1.3-.6-2.03-.59-.73,0-1.04.92-.68,1.46.3.45.6.97,1,1.42.33.37.72.75,1.23.84.54.09,1.35-.18,1.53-.76.15-.48.26-1.05-.11-1.48Z"/>
      <path class="st18" d="M46.14,133.88c-1.61-.51-3.35-.9-5.03-.52-.68.16-.66,1.06-.25,1.45,1.09,1.05,2.68,1.31,4.07,1.76,1.28.41,2.55,1.37,3.94.96.38-.11.52-.49.53-.84.05-1.68-1.93-2.41-3.25-2.82Z"/>
      <path class="st18" d="M54.64,136.38c-.56-.73-1.38-.85-2.25-.73-1.24.17-1.39,2.04-.08,2.23.17.02.35.06.52.1,0,0,.38.1.18.03.19.07.33.09.52.13.94.2,1.7-.99,1.11-1.76Z"/>
      <path class="st18" d="M72.46,137.17c-.27.02-.51.08-.76.18-.87.34-1.04,1.71-.08,2.08.25.09.49.18.75.2.67.05,1.31-.31,1.43-1.02.13-.8-.54-1.5-1.34-1.44Z"/>
      <path class="st18" d="M77.81,130.97c-.27-.28-.58-.47-.92-.67-.52-.31-1.27-.06-1.63.38-.42.5-.38,1.13-.07,1.67.2.34.45.61.74.89.58.55,1.58.4,2.07-.19.56-.67.36-1.49-.19-2.07Z"/>
      <path class="st18" d="M92.51,137.14c-1.27-.82-2.87-.54-4.31-.51-1.74.04-3.32.11-4.68,1.32-.38.33-.28.89.23,1.02,1.6.41,3.07.55,4.72.57,1.4.02,3.29.07,4.15-1.26.21-.33.3-.87-.1-1.13Z"/>
    </g>
    <g>
      <g>
        <path class="st7" d="M137.55,69.78s16.73-2.27,18.29,16.62c1.56,18.9-27.75-4.94-18.29-16.62Z"/>
        <path class="st0" d="M34.58,70.19s-25.89,2.73-32.37,10.9c-6.47,8.18,2.04,29.64,22.83,38.16,0,0-12.69-17.04-7.71-28.62,4.98-11.58,13.16-19.42,17.25-20.44Z"/>
        <path class="st7" d="M40.03,68.49s-20.1,3.41-24.53,11.58-6.81,34.07,16.01,44.29,46.34,4.43,41.91-2.38-26.92-11.92-33.05-15.33-22.49-23.51-1.36-31.34c21.12-7.84,4.32-7.49,1.02-6.81Z"/>
        <path class="st0" d="M43.28,71.56c1.19-3.4-16.53,7.15-17.21,16.35-.68,9.2,6.47,19.76,15.67,22.83s45.31,20.28,58.6,19.17c13.29-1.11,14.31-5.54,13.63-8.61s-22.15-17.95-33.73-22.26-40.52-17.26-36.96-27.48Z"/>
        <path class="st7" d="M50.25,68.17s-7.38.35-9.48,6.47,17.06,19.89,35.38,25.8c18.32,5.91,30.32,25.64,55.19,23.59,24.87-2.04,27.94-12.95,28.62-14.99s-8.52-9.09-13.63-10-25.21-.8-38.16,0c-12.95.8-74.61-15.86-57.92-30.87Z"/>
        <path class="st0" d="M62.02,86.89s22.31,9.65,32.19,12.15,28.77,1.84,41.91,1.39c13.14-.44,21.2,6.56,23.89,4.86s8.82-11.24,7.12-18.4c-1.7-7.16-24.19-6.13-35.43-5.11s-44.02,7.58-52.47,8.18-12.85-.82-17.2-3.07Z"/>
        <path class="st6" d="M31.28,72.31c-2.4-1.41-9.95,1.63-15.34,9.26-3.71,5.26-3.35,23.98,5.39,31.77,5.74,5.11,22.88,9.18,24.59,5.92s-6.65-6.9-11.26-9.54-11.34-15.33-10.61-21.41c.87-7.25,11.52-13.48,7.23-15.99Z"/>
        <path class="st6" d="M71.91,97.12s14.42,5.19,19.7,9.12,22.53,15.03,31.29,15.68,20.01-1.5,23.44-6.13-1-8.49-6.13-10.24-33.2,2.86-42.5-1.81c-9.3-4.67-27.27-11.69-25.79-6.63Z"/>
        <path class="st17" d="M28.77,73.94c-.23-2.4-8.37,3.22-11.43,7.63s-2.71,20.92,1.73,27.13,12.11,7.35,13.31,6.04-4.06-2.95-6.33-6.04-6.35-11.63-6.02-18.13,9.02-13.74,8.74-16.62Z"/>
        <path class="st17" d="M136.54,111.78c-5.49.61-10.15,2.62-15.84,1.89-5.32-.68-10.58-2.22-15.61-4.02-9.96-3.57-18.67-9.89-29.02-12.49-.5-.12-.72.66-.26.85,11.23,4.6,21.5,11.22,32.74,15.85,9.12,3.76,20.06,6.41,29.19,1.23,1.63-.92.52-3.51-1.21-3.31Z"/>
        <path class="st19" d="M14.97,75.53c-3.21,1.07-9.22,2.57-12.08,7.94-1.92,3.59,1.05,19.09,6.82,22.09s.13-8.69,0-13.71,7.71-17.14,5.26-16.32Z"/>
        <path class="st19" d="M36.72,80.41c-2.8-2.42-9.99,6.82-6.79,15.81s16.9,15.52,35.68,20.53,26.58,1.49,25.99-1.52-10.95-12.16-17.28-13.83-25.71-10.71-37.61-20.99Z"/>
        <path class="st19" d="M159.81,96.74c-6.02-7.32-19.18-7.25-27.66-6.29-11.88,1.34-22.7,6.7-34.58,7.28-.5.02-.68.84-.17,1.01,9.77,3.12,20.26-.74,29.93-2.29,5.51-.89,11.33-1.46,16.88-.73,4.93.65,9.35,3.84,14.28,3.84,1.31,0,2.14-1.82,1.31-2.82Z"/>
        <path class="st5" d="M10.55,80.65c.13-.24.03-.57-.17-.73-3.19-2.7-5.91,2.93-6.38,5.31-.72,3.73-.38,8.68,1.97,11.79.82,1.09,2.74.52,2.56-.94-.34-2.7-.86-5.4-.93-8.13-.04-1.49.19-3.09.76-4.47.46-1.12,1.6-1.78,2.19-2.83Z"/>
        <path class="st5" d="M75.01,113.01c-7.89-4.78-17.27-6.7-25.42-11.07-3.35-1.8-6.43-4.29-9.26-6.8-3.66-3.25-4.88-6.61-4.35-11.39.09-.82-.87-1.62-1.61-1.02-7.42,6.09,1.64,15.47,6.74,19.44,9.23,7.17,21.58,11.67,33.01,13.78,1.86.34,2.3-2.09.89-2.94Z"/>
        <path class="st5" d="M101.04,104.58c-.06,0-.05.1,0,.1s.05-.1,0-.1Z"/>
        <path class="st5" d="M152,92.49c-6.99-2.9-14.61-1.31-21.76.25-4.07.89-8.08,2.08-12.11,3.13-4.92,1.28-9.96,1.36-14.9,2.39-.27.06-.29.41-.02.48,6.96,1.73,15.32-.91,22.16-2.38,8.92-1.92,17.1-3.02,26.24-2.56.73.04,1.17-.98.4-1.31Z"/>
        <path class="st5" d="M19.4,82.03c-3.75,3.45-4.42,10.04-1.91,14.5.17.31.69.17.73-.16.49-4.77-.47-9.37,2.01-13.82.3-.53-.46-.86-.83-.52Z"/>
        <path class="st5" d="M95.04,106.89c-1.32-1.24-3.03-2.1-4.6-2.98-1.71-.96-3.33-2.04-5.12-2.86-.37-.17-.84.31-.54.65,1.13,1.25,2.44,2.11,3.86,2.99,1.84,1.15,3.76,2.42,5.81,3.14.6.21,1.07-.5.59-.94Z"/>
        <path class="st5" d="M102.37,109.6c-1.11-1.04-2.97-1.49-4.41-1.86-.64-.16-.91.83-.33,1.09,1.38.62,2.86,1.87,4.45,1.73.49-.04.63-.64.3-.95Z"/>
        <path class="st5" d="M20.52,101.82c-.39-.84-.69-1.73-1.04-2.59-.25-.61-1.36-.65-1.39.13-.04,1.01.05,1.94.37,2.9.33.99.82,2.19,1.92,2.44.4.09.93-.25.95-.68.04-.86-.46-1.45-.81-2.2Z"/>
      </g>
      <g>
        <path class="st7" d="M70.07,35.1s2.33,13.97-5.85,13.97-25.21,7.5-29.64,13.29,3.8,23.1,15.36,20.92c0,0-4.12-18.88,3.72-21.94s23.62-7.5,16.41-26.23Z"/>
        <path class="st0" d="M65.25,28.29s9.63,14.62,4.83,21.12-22.06,6.13-25.27,13.97c-3.21,7.83,3.9,24.36,14.03,29.36,0,0,13.63,0,15.96-4.43s-9.55-14.71-7.51-18.12c2.04-3.41,14.31-23.85-2.04-41.91Z"/>
        <path class="st7" d="M87.39,21.47s-11.47-7.5-17.32-2.73-5.74,7.84,0,17.72-.46,23.85-4.34,25.55-8.55,5.79-6.9,10.56,10.85,24.69,37.42,23.59c0,0,9.01-1.23,14.39-11.22s-16.43-12.31-19.16-24.44c-2.73-12.13-11.86-18.26-17.52-25.41s-7.7-24.87,13.43-13.63Z"/>
        <path class="st7" d="M132.7,84.85s11.58-.34,13.97-6.47c2.38-6.13-3.2-13.31-6.98-14.97-10.39,0-25.38-1.82-36.63-6.71s-15.97-11.35-15.97-11.35c0,0,5.53,13.63,9.5,19.75s28.96,16.01,36.11,19.75Z"/>
        <path class="st0" d="M136.79,87.91c3.89-1.3,2.73-13.91-13.63-17.01-16.35-3.1-24.53-7.52-31.34-19.11-6.81-11.58-16.08-14.59-16.08-14.59,0,0,9.94,9.14,11.65,17.32s3.07,19.34,14.65,26.53c11.58,7.2,22.49,10.94,34.75,6.86Z"/>
        <path class="st6" d="M65.72,50.32c.37-.76-14.37,2.49-18.94,4.32s-11.67,6.97-12.11,10.04,2.2,13.01,5.2,13.43,1.13-3.85,1.09-8.16,2.53-8.96,5.06-10.73c5.03-3.52,17.78-4.94,19.7-8.89Z"/>
        <path class="st6" d="M70.83,35.07s5.4,11.35,2.27,19.56-10.67,12.28-10.82,15.06,6.33,17.58,17.12,20.87c10.79,3.29,14.11-.34,12.21-4.16s-11.93-13.34-13.12-20.57,2.68-19.04-7.66-30.76Z"/>
        <path class="st6" d="M97.7,57.52s9.18,9.28,19.03,10.65,19.36,5.42,21.92,10.18,4.07.17,4.16-2.77-2.48-7.6-8.29-9.35-18.38,2.12-36.82-8.71Z"/>
        <path class="st17" d="M54.08,53.24c-5.27,2.08-10.82,3.04-15.01,7.17-3.88,3.83-4.21,10.99-.43,14.92.47.49,1.27-.05,1.22-.64-.26-2.96-1.78-5.23-1.31-8.4.43-2.89,2.7-4.97,4.92-6.61,3.28-2.42,7.28-4.01,10.74-6.18.14-.09.02-.32-.14-.26Z"/>
        <path class="st17" d="M81.34,86.28c-1.9-2.8-4.99-4.53-7.46-6.8-4.22-3.89-5.07-9.16-2.8-14.32,3.24-7.35,6.42-14.68,3.21-22.58-.04-.1-.22-.07-.2.04,1.2,6.42.24,12.01-2.81,17.75-2.22,4.17-5.35,7.24-5.65,12.18-.43,7,8.01,14.48,14.19,16.13,1.35.36,2.2-1.38,1.51-2.4Z"/>
        <path class="st17" d="M132.3,67.87c-8.54-2.53-18.61-1.24-26.52-5.53-.21-.11-.35.18-.2.33,3.32,3.24,8.29,3.99,12.69,4.73,5.79.98,20.35,1.54,21.06,9.27.14,1.56,2.19,1.45,2.57.09,1.52-5.43-5.71-7.74-9.6-8.89Z"/>
        <path class="st19" d="M68,53.51c-9.04,2.59-18.18,4.03-20.4,14.7-1.58,7.57,5.76,20.21,13.76,21,1.31.13,2.35-1.02,1.93-2.32-1.04-3.2-4.04-4.83-6.25-7.25-3-3.28-4.57-7.34-3.87-11.75,1.27-8.05,11.43-7.74,15.65-13.23.46-.6-.12-1.36-.82-1.16Z"/>
        <path class="st19" d="M126.45,79.98c-6.3-.59-11.63-.75-17.47-3.57-4.54-2.19-8.26-5.9-11.14-9.97-5.69-8.05-8.08-19.31-16.27-25.39-.48-.35-1.21.23-.8.74,3.97,4.96,7.11,9.79,9.13,15.88,1.81,5.45,2.87,10.14,6.21,14.98,6.38,9.25,19.16,14.25,30.15,12.58,2.84-.43,3.33-4.96.19-5.25Z"/>
        <path class="st5" d="M62.97,56.51c-5.46-.5-12.23,3.94-13.79,9.33-1.67,5.75,1.11,13.26,5.79,16.93.72.56,1.59-.15,1.38-.97-1.01-3.84-3.58-6.97-4.35-10.94-1.31-6.76,5.97-10.76,11.09-13.13.52-.24.58-1.15-.11-1.22Z"/>
        <path class="st5" d="M119.91,82.67c-3.36-2.15-7.34-3.23-10.96-4.9-4.61-2.12-7.9-5.27-10.78-9.38-2.39-3.4-4.55-7.3-6-11.18-1.22-3.27-1.89-6.06-4.66-8.36-.24-.2-.53.1-.39.35,2.19,3.86,2.58,8.58,4.4,12.64,1.67,3.74,3.63,7.27,6.07,10.57,4.73,6.4,13.64,11.03,21.39,12.32,1.07.18,1.96-1.4.94-2.05Z"/>
        <path class="st5" d="M45.95,56.41c-1.47.32-2.64.92-3.82,1.86-.92.73-2.13,1.81-2.15,3.06,0,.3.36.39.58.27.98-.58,1.58-1.87,2.46-2.64.93-.81,2.06-1.46,3.1-2.12.19-.12.08-.49-.16-.44Z"/>
        <path class="st5" d="M72.23,60.17c-2.61,3.63-6.04,8.98-5.72,13.63.02.27.39.32.5.08,1.04-2.2,1.45-4.66,2.39-6.91.94-2.25,2.29-4.31,3.21-6.57.09-.23-.23-.46-.39-.24Z"/>
        <path class="st5" d="M69.98,77.89c-.46-.73-.67-1.6-1.19-2.28-.37-.49-1.03-.28-1.18.27-.26.91.1,1.88.46,2.71.35.81,1.03,2.02,2.01,2.1.53.04.95-.32.93-.87-.03-.72-.66-1.35-1.03-1.94Z"/>
      </g>
    </g>
    <g>
      <g>
        <path class="st1" d="M90.84,42.56s4.04-20.93,17.96-32.77c0,0,2.11-.33,2.79,2.86,0,0,1.17-8.65,12.91-10.75,0,0,1.91.73,1.38,3.08,0,0,8.89-9.02,24.38-2.77,0,0,3.25,12.56-1.53,21.3,0,0,3.42.59,4.14,1.57s-5.3,13.95-10.03,18.74c0,0,4.49.66,4.84,2.61s-13,12.12-24.76,14.79-35.4,2.55-32.08-18.66Z"/>
        <g>
          <path class="st15" d="M96.34,54.64s.1-.54.28-1.55c.1-.51.33-1.1.54-1.82.27-.7.59-1.5,1.02-2.36,1.71-3.47,5.13-7.85,9.71-12.5,2.27-2.35,4.84-4.77,7.34-7.44,1.29-1.35,2.62-2.74,3.98-4.16,1.38-1.4,2.87-2.76,4.36-4.16,1.5-1.39,3.13-2.69,4.73-4.06,1.63-1.33,3.38-2.57,5.09-3.85,3.49-2.45,7.26-4.88,11.47-6.12,0,0-.55.28-1.58.8-1.04.46-2.44,1.37-4.16,2.52-1.68,1.22-3.68,2.71-5.81,4.58-1.07.92-2.21,1.89-3.39,2.9-1.14,1.06-2.34,2.18-3.57,3.33-1.25,1.13-2.44,2.42-3.73,3.67-1.29,1.24-2.53,2.6-3.82,3.96-.65.68-1.3,1.37-1.96,2.06-.67.71-1.35,1.41-2.05,2.1-1.4,1.37-2.83,2.72-4.26,4.06-2.87,2.69-5.74,5.42-8.31,8.33-1.28,1.46-2.46,2.98-3.51,4.58-1,1.62-1.85,3.32-2.38,5.14Z"/>
          <path class="st15" d="M129.25,6.98s-.09.53-.31,1.45c-.22.92-.65,2.2-1.25,3.66-.61,1.47-1.37,3.1-2.24,4.81-.82,1.73-1.69,3.5-2.44,5.53,0,0-.09-.59-.15-1.65-.03-1.04.12-2.55.61-4.18.47-1.64,1.26-3.4,2.26-5.04,1.01-1.65,2.17-3.18,3.51-4.58Z"/>
          <path class="st15" d="M112.87,14.62s-.02.14-.07.41c-.04.27-.14.63-.18,1.12-.14.96-.21,2.31-.15,3.92.07,1.62.27,3.5.43,5.58.15,2.08.23,4.4-.21,6.69,0,0-.19-.63-.51-1.69-.31-1.05-.76-2.51-1.15-4.25-.39-1.74-.72-3.79-.54-5.95.14-2.14.97-4.37,2.38-5.84Z"/>
          <path class="st15" d="M141.88,23.53s-.62.37-1.73.95c-.55.3-1.24.63-2.04.98-.4.18-.83.36-1.28.56-.47.17-.96.34-1.47.52-.52.17-1.04.38-1.63.51-.58.12-1.19.25-1.81.39-1.24.27-2.7.28-4.09.09-1.41-.21-2.76-.64-4.08-1.13-1.31-.49-2.61-.98-3.98-1.41,0,0,.2-.01.58-.03.38-.02.94-.05,1.63,0,1.39.04,3.35.39,5.46.55,1.06.1,2.16.05,3.28-.07.56-.05,1.17-.22,1.76-.3.6-.1,1.21-.18,1.83-.34.62-.14,1.24-.26,1.87-.37.63-.13,1.26-.27,1.89-.38,1.27-.21,2.55-.43,3.82-.51Z"/>
          <path class="st15" d="M131.05,45.3s-.19.06-.54.17c-.18.05-.41.13-.68.18-.27.03-.59.05-.94.09-1.41.06-3.43-.23-5.66-1.03-2.24-.8-4.71-2.06-7.09-3.8-1.18-.88-2.35-1.86-3.41-3-1.05-1.13-2.08-2.39-2.7-3.85,0,0,.16.16.46.44.27.3.75.67,1.3,1.14,1.16.9,2.86,2.05,4.88,3.27,2.02,1.21,4.34,2.54,6.76,3.75,1.21.6,2.44,1.2,3.69,1.69,1.26.47,2.51.93,3.92.97Z"/>
          <path class="st15" d="M116.12,55.69s-.16-.01-.45-.03c-.29-.02-.72-.06-1.26-.16-1.08-.17-2.61-.51-4.35-1.2-1.74-.68-3.71-1.71-5.55-3.23-.9-.78-1.78-1.66-2.51-2.69-.72-1.03-1.3-2.2-1.59-3.43,0,0,.12.14.33.39.2.25.51.61.94,1.01.83.82,2.07,1.83,3.6,2.84,3.07,2.05,7.17,4.1,10.83,6.5Z"/>
          <path class="st15" d="M101.27,26.92s.15.56.27,1.56c.13,1,.2,2.44.16,4.12-.03,1.68-.16,3.61-.26,5.63-.07,2.02-.13,4.12.38,6.34,0,0-.1-.13-.29-.36-.19-.24-.46-.59-.72-1.09-.55-.98-1.1-2.52-1.31-4.34-.23-1.82-.16-3.89.18-5.92.33-2.04.9-4.01,1.58-5.94Z"/>
        </g>
        <path class="st14" d="M120.36,20.84s-4.7,4.68-5.28,3.76-1.96-10.89-.86-13.25,8.07-8.02,8.66-6.25-2.45,12.82-2.53,15.73Z"/>
        <path class="st14" d="M129.25,14.31s1.9-10.97,3.21-11.24,12.44-1.03,13.32,0-13.67,7.37-16.53,11.24Z"/>
        <path class="st14" d="M126.75,23.48c-.94-.09,18.6-15.31,21.54-15.06s-1.36,11.41-2.47,12.84-16.15,2.49-19.07,2.21Z"/>
        <path class="st14" d="M116.12,35.75c-1.31-1.52,6.13-7.59,6.75-7.46s8.49,1.24,12.8-.38,10.02-2.69,12.79-1.34-5.48,15.43-8.7,16.39-18.01-.69-23.64-7.21Z"/>
        <path class="st14" d="M103.02,38.35c.04,1.15,7.09-5.45,7.42-6.47s-2.24-12.43-2.02-14.72.94-3.96-.16-4.18-4.72,7.9-5.25,9.27-.12,12.82,0,16.11Z"/>
        <path class="st14" d="M94.85,52.21c1.85-2.28,4.56-7.15,4.52-7.8s-1.83-5.56-1.67-8,1.47-9.15.65-9.3-6.28,12.45-6.24,17,1.83,9.21,2.73,8.1Z"/>
        <path class="st14" d="M103.72,45.74c-1.25-.68,5.57-6.84,6.71-6.62s11.68,9.24,16.28,8.73,15.03-2.59,16.1-1.23-9.08,8.86-15.1,9.84-19.34-8.22-23.99-10.74Z"/>
        <path class="st14" d="M97.7,56.69c-1.28-.8,1.99-6.42,2.71-6.58s8.7,6.03,11.32,6.36,8.4.68,8.53,2.06-12.63,4.34-22.56-1.84Z"/>
      </g>
      <g>
        <path class="st1" d="M62.02,53.07s6.29-37.38-42.77-33.63c0,0-4.55,52.16,42.77,33.63Z"/>
        <g>
          <path class="st15" d="M21.34,22.39s.32.11.93.31c.3.1.68.23,1.11.38.43.18.92.39,1.47.62,2.18.97,5.23,2.63,8.43,5.22,4.02,3.2,7.27,6.81,9.84,9.9,1.63,1.95,3.24,4.02,4.85,6.12,1.59,2.09,3.37,4.26,4.43,6.81,0,0-.24-.31-.67-.88-.23-.28-.46-.64-.8-1.02-.34-.37-.74-.8-1.17-1.28-.92-.92-2.02-2.03-3.27-3.28-1.23-1.27-2.59-2.71-4.03-4.26-2.88-3.09-6.12-6.6-9.64-9.9-3.51-3.33-7.41-6.34-11.47-8.73Z"/>
          <path class="st15" d="M34.69,22.79s.23.23.57.7c.33.47.74,1.19,1.02,2.1.6,1.81.74,4.44-.56,6.79,0,0-.15-.36-.32-.95-.19-.59-.42-1.39-.62-2.3-.2-.91-.37-1.93-.4-2.98-.03-1.07.05-2.12.32-3.36Z"/>
          <path class="st15" d="M24.05,38.06s.56-.03,1.46-.02c.44.04,1.01-.07,1.63-.11.62-.02,1.32-.13,2.09-.22,3.06-.35,7.1-1.02,11.45-1.02,0,0-.54.31-1.48.77-.94.44-2.3,1-3.93,1.46-.81.24-1.71.4-2.63.57-.94.11-1.91.22-2.91.19-1.97-.02-4.11-.51-5.68-1.62Z"/>
          <path class="st15" d="M51.05,29s-.03,2.17-.61,5.29c-.53,3.1-1.82,7.3-4.51,10.74,0,0,.07-.63.25-1.64.16-1.03.52-2.39.81-4.01.17-.8.37-1.65.62-2.52.23-.88.48-1.79.8-2.69.64-1.8,1.49-3.62,2.63-5.17Z"/>
          <path class="st15" d="M38.67,50.66s.08-.04.24-.11c.16-.08.38-.15.65-.31.55-.26,1.27-.7,2.13-1.23.86-.53,1.87-1.18,3.14-1.72.63-.26,1.33-.5,2.1-.6.76-.1,1.59-.07,2.32.23,0,.02-.44.13-1.03.47-.6.33-1.34.87-2.21,1.5-.88.62-1.94,1.34-3.22,1.8-1.26.47-2.86.6-4.1-.03Z"/>
        </g>
        <path class="st14" d="M45.13,37.2c-.79,1.59-5.73-5.34-6.69-6.58s-.18-7.74,0-7.83,9.82,2.34,10.23,4.31-2.29,7.58-3.54,10.1Z"/>
        <path class="st14" d="M54.28,51.09c-1.61-2.28-4.75-6.78-4.65-7.87s2.88-11.29,3.69-11.33,6.94,15.71,6.24,18.44-4.68,1.61-5.28.77Z"/>
        <path class="st14" d="M44.03,45.34c1.8-.29-4.34-5.12-5.36-5.23s-11.55-.03-12.65.83,3.24,9,6.62,10.15,9.48-5.45,11.39-5.75Z"/>
        <path class="st14" d="M33.36,34.04c.34-1.5-10.73-9.1-12.03-9.32s-.49,9.4,1.14,10.38,10.44.9,10.89-1.06Z"/>
        <path class="st14" d="M32.37,26.92c-.09,1.68-8.75-4.97-9.08-5.65s7.56-1.27,8.27,0,.88,4.43.81,5.65Z"/>
        <path class="st14" d="M51.99,53.48c-.23-2.24-2.94-4.36-5.21-3.37s-8.72,3.83-6.8,4.53,12.28,1.45,12.01-1.16Z"/>
      </g>
      <g>
        <path class="st2" d="M110.18,56.03c-.79-4.49-6.15-7.43-10.42-7.66-1.75-.1-3.43,1.38-4.51,2.53-3.43,3.64-5.3,3.41-10.11,1.94-3.88-1.19-7.83-2.3-11.94-2.34-4.5-.05-11.02,1.78-14.92-1.02-4.04-2.9-7.66-.22-8.43,2.98-.21.17-.39.39-.49.63-.13.32-.27.64-.4.97-.48,1.16-.47,2.76.69,3.6,1.51,1.08,2.8,1.54,4.26,1.62,2.31,3.38,5,4.06,8.79,3.72,2.71,4.55,8.85,5.14,13.87,3.15,3.89,3.09,7.74,4.92,13.22,3.63.92-.22,1.77-.59,2.54-1.07,4.91,1.34,9.86-1.12,11.81-5.81,3.54-.84,6.79-2.52,6.03-6.85Z"/>
        <path class="st11" d="M80.79,62.4s-13.04,5.36-17.11-4.04c0,0-6.61,1.2-8.13-3.39,0,0-3.78,2.6-6.1,0s-1.9-6.29,1.23-6.86c-2.97-5.69,3.3-11.66,7.57-12.52-5.03-7.4.7-9.39,4.23-9.67-3.15-9.1,7.89-11.38,11.08-8.25,3.19-6.54,11.81-3.13,13.31.85,6.44-6.26,17.18,1.71,13.7,9.39,7.55-2.28,11.91,7.97,6.1,12.8,7.55,1.99,3.19,12.59-.29,14.26,4.64,1.22,3.78,7.67-3.19,5.95-2.9,7.1-10.16,5.96-13.65,2.97-2.91,3.56-7.61,2.56-8.74-1.49Z"/>
        <path class="st16" d="M83.06,21.18c-.11-1.57-.98-2.98-2.43-3.7-1.64-.81-4.18-.58-5.33.98-.04.06-.08.11-.12.17-.25.2-.5.42-.71.66-.33.37-.58.79-.77,1.23-.33-.7-.78-1.32-1.37-1.98-.6-.68-1.74-1.07-2.58-1.32-.96-.3-1.9-.12-2.84.09-1.95.42-3.16,2.24-3.68,3.97-.69,2.31.43,5.67,2.86,6.57,1.34.5,2.3.57,3.7.3.21-.04.46-.13.71-.25,1.35-.45,2.53-1.37,3.11-2.74.1-.23.18-.45.26-.67.25.47.56.9.96,1.17.5.34.98.69,1.53.94.4.23.83.41,1.29.51.78.16,1.56.13,2.32-.1,1.91-.59,3.33-2.46,3.18-4.45-.03-.46-.07-.93-.1-1.39Z"/>
        <path class="st16" d="M65.43,35.24c.05-.05.1-.1.15-.15,1.05-1.09,1.48-2.68,1.04-4.2-.33-1.12-.92-1.86-1.69-2.71-.97-1.07-2.89-1.3-4.21-.89-1.61.49-2.97,2.05-3.05,3.75-.03.24-.03.49,0,.73.05.34.12.69.21,1.03,0,0-.02,0-.03,0,.02.04.04.08.06.12.01.05.03.09.04.14.16.57.39,1.12.75,1.71.95,1.58,3.08,2.25,4.82,1.71.67-.21,1.26-.59,1.75-1.08.06-.05.11-.11.16-.17Z"/>
        <path class="st16" d="M77.69,32.39c-1.25-2.5-4.81-2.97-7.03-1.58-1.45.91-2.16,2.36-2.3,3.92-.42,1.24-.34,2.62.51,3.77,1.78,2.41,4.66,2.76,7.19,1.37,1.14-.63,2.08-2.02,2.32-3.27.29-1.55,0-2.82-.69-4.21Z"/>
        <path class="st16" d="M66.26,37.39c-2.17-1.13-5.05-.7-6.66,1.15-.87,1-1.27,2.22-1.21,3.43-.21.93-.16,1.94.09,2.73.59,1.84,2.01,2.82,3.79,3.39,3.21,1.03,6.03-1.59,6.85-4.36.73-2.45-.6-5.16-2.86-6.34Z"/>
        <path class="st16" d="M91.37,34.61c-.2-.62-.46-1-.79-1.39.07.08.13.15.2.23-.06-.06-.11-.13-.16-.2-.05-.07-.11-.12-.17-.19-.14-.16-.29-.33-.46-.52.07.07.13.15.2.22-1.52-1.58-3.87-2.11-5.87-.85-1.98,1.25-2.84,4.22-1.36,6.17.58.76,1.15,1.41,2.05,1.82.71.35,1.46.51,2.25.48,1.32-.06,2.23-.65,3.18-1.48.76-.66,1.3-2.11,1.16-3.09-.06-.4-.13-.8-.21-1.19Z"/>
        <path class="st16" d="M84.03,44.56c-.74-.95-1.58-1.65-2.81-1.9-1.15-.24-2.1.02-3.1.48.21-.1.42-.19.63-.29-.07.04-.14.07-.22.09-.22.08-.44.19-.66.3,0,0,0,0-.01,0l-.17.08c.05-.02.1-.05.16-.07-1.1.61-2.06,1.66-2.27,2.89-.45.74-.69,1.59-.63,2.44.18,2.26,1.59,3.78,3.76,4.41,1.65.48,3.69-.23,4.79-1.47,1.63-1.82,2.1-4.96.54-6.97Z"/>
        <path class="st16" d="M60.19,47.22c-.49-1.52-1.79-2.69-3.38-3.02-1.58-.34-3.27.2-4.35,1.38-1.29,1.41-1.61,3.79-.43,5.38.03.04.05.07.08.11.71.96,1.6,1.65,2.8,1.9,1.43.3,3.36-.13,4.26-1.36.02-.03.05-.06.07-.09.96-1.29,1.46-2.7.95-4.3Z"/>
        <path class="st16" d="M94.32,22.17c-.95-1.82-3.31-2.63-5.25-2.59-2.62.04-4.89,2.46-4.7,5.03.1,1.42.26,3.21,1.25,4.35.46.69,1.06,1.22,1.8,1.59,1.07.53,2.34.64,3.49.28.71-.22,1.37-.62,1.9-1.15.73-.48,1.31-1.06,1.8-1.92.48-.83.6-1.85.6-2.78,0-1.08-.42-1.88-.9-2.81Z"/>
        <path class="st16" d="M73.58,48.95c-.66-.85-1.39-1.65-2.42-2.08-1.77-.75-3.86-.84-5.52.28-2.27,1.52-3.33,4.42-2.35,6.99.27.71.69,1.39,1.21,2.01.21.29.46.57.76.85.36.34.77.58,1.2.78.88.48,1.86.72,2.88.63.09,0,.18.02.27.02.96-.04,1.84-.32,2.65-.83,1.26-.8,1.89-1.91,2.32-3.28.53-1.7.09-3.94-.99-5.35Z"/>
        <path class="st5" d="M69.81,21.65c.05.35.06.38.05.09-.02-.43-.15-.82-.39-1.19-.36-.55-.85-.81-1.47-1.02-.02,0-.04-.01-.06-.02-.84-.28-1.74.2-2.33.74-1.38,1.27-1.52,3.6.04,4.82,1.23.96,3.11.75,3.85-.71.43-.86.52-1.79.3-2.72Z"/>
        <path class="st5" d="M78.39,20.06c-.14-.17-.28-.33-.43-.48-.42-.59-1.24-.8-2.08-.42.04-.25-.13-.19-.51.16-.19.15-.37.31-.56.46-.81.67-.61,1.87-.21,2.66.03.05.05.1.08.15.32.64,1.21.99,1.9.96.81-.03,1.42-.49,1.83-1.15.03-.05.07-.11.1-.16.36-.59.35-1.65-.12-2.19Z"/>
        <path class="st5" d="M60.68,28.78c-.93.53-1.34,1.22-1.41,2.26-.1,1.47,2.13,1.78,2.74.58.18-.35.31-.65.32-1.05,0-.13,0-.28.02-.3.49-1.05-.66-2.06-1.67-1.48Z"/>
        <path class="st5" d="M64.8,40.65c.1-.57-.02-1.04-.43-1.48-.95-1.03-2.89-.17-3.42.86-.57,1.12-.99,3.05.29,3.91.74.5,1.46.62,2.28.17.56-.3.91-.88,1.05-1.47.05-.18.1-.36.13-.55.02-.18.03-.36.05-.54-.02.22-.01.22.02-.02.05-.28.09-.55.08-.84,0-.13.02-.48-.05-.06Z"/>
        <path class="st5" d="M72.18,33.08c-.31.39-.62.79-.86,1.23.19-.34-.23.37-.29.47-.2.33-.22.74-.18,1.11.09.82.61,1.51,1.46,1.69,1.06.23,1.88-.45,2.2-1.39.09-.21.12-.43.1-.66,0-.08-.01-.12-.02-.14.06-.11.22-.41.27-.51.86-1.59-1.52-3.24-2.69-1.8Z"/>
      </g>
    </g>
    <g>
      <g>
        <circle class="st9" cx="36.8" cy="61.68" r="4.16"/>
        <path class="st10" d="M38.41,61.97c-.05-.28-.11-.49-.2-.73.26-.53.11-1.28-.2-1.73-.5-.71-1.36-.93-2.16-.69-.93.28-1.72,1.15-1.79,2.14-.09,1.27.4,2.37,1.5,3.04,1.38.84,3.14-.5,2.85-2.03Z"/>
        <path class="st22" d="M36.7,61.17c-.03-.16-.06-.31-.1-.47,0-.02,0-.02-.01-.04-.02-.13-.05-.26-.09-.38-.15-.32-.19-.38-.11-.19-.15-.3-.36-.54-.71-.59-1.97-.32-2.47,2.91-.5,3.29.61.12,1.08-.25,1.38-.74.16-.27.18-.58.14-.88Z"/>
      </g>
      <g>
        <circle class="st9" cx="55.09" cy="60.52" r="4.16"/>
        <g>
          <path class="st10" d="M55.58,57.81c.07.05.12.09.16.12.01,0-.03-.03-.16-.12Z"/>
          <path class="st10" d="M55.99,60.35c.02-.06.03-.1.04-.13.07-.19.16-.36.19-.58-.1.26-.08.18.06-.25.02-.11.02-.22,0-.33.13-.42-.04-.97-.48-1.12.09.1.06.11-.07,0-.02,0-.12-.07-.35-.22-.35-.16-.7-.13-1.06-.12-.91.02-1.64.85-2.05,1.55-.4.68-.31,1.62-.14,2.34.2.86.86,1.52,1.6,1.94.55.31,1.34.18,1.84-.17.74-.52.89-1.34.69-2.17-.06-.25-.17-.49-.27-.74Z"/>
        </g>
        <g>
          <path class="st22" d="M54.63,59.51s0,0,0,0c-.03-.25-.02-.17,0,0Z"/>
          <path class="st22" d="M54.74,60.24s.01.05.02.08c-.04-.19-.03-.17-.02-.08Z"/>
          <path class="st22" d="M54.84,60.79c-.01-.07-.07-.41-.1-.55-.01-.1-.04-.2-.06-.3-.01-.09-.04-.29-.05-.42-.08-.58-.58-1.03-1.18-.98-1.85.17-2.17,2.76-.94,3.85.79.7,2.24.21,2.35-.88.03-.25.02-.47-.02-.72Z"/>
        </g>
      </g>
      <g>
        <circle class="st9" cx="9.71" cy="73.94" r="4.16"/>
        <path class="st10" d="M10.53,71.21c-1.31-1.21-3.25-.34-3.99,1.06-.71,1.35-.21,3,.78,4.04.59.62,1.72.56,2.37.1.76-.53.96-1.42.72-2.28-.02-.06-.1-.3-.15-.45.09-.13.15-.22.13-.2.19-.26.37-.5.48-.82.18-.55.1-1.05-.33-1.45Z"/>
        <path class="st22" d="M8.67,70.81s-.38.01-.08.03c-.36-.02-.67,0-.98.22-.32.22-.51.54-.7.87-.46.77-.41,1.76.07,2.5.45.69,1.71.84,2.2.09.19-.3.39-.56.45-.92,0-.13,0-.22.01-.29.01-.16.02-.33.02-.49,0-.06,0-.29-.01-.31.02-.08.04-.16.05-.24,0,0,0-.01,0-.02.44-.73-.36-1.43-1.02-1.44Z"/>
      </g>
      <g>
        <circle class="st9" cx="19.13" cy="104.59" r="4.16"/>
        <g>
          <path class="st10" d="M19.99,101.49s.03.03.05.04c.15.09.13.08-.05-.04Z"/>
          <path class="st10" d="M20.06,104.41c0-.06.04-.21.05-.25.23-.56.59-1.09.52-1.69-.01-.4-.23-.76-.59-.95-.05-.03-.13-.08-.23-.14-.23-.1-.47-.14-.72-.12-.28.03-.55.08-.8.2-.72.34-1.21.8-1.58,1.51-.73,1.37-.26,3.51,1.43,3.83.79.15,1.37-.32,1.76-.94.24-.39.25-.93.18-1.37,0-.04-.01-.06-.02-.08Z"/>
        </g>
        <path class="st22" d="M18.94,103.78c.02-.06.04-.09,0-.04.47-.66.04-1.53-.79-1.5-.14,0-.46.02-.69.13-.27.13-.48.27-.67.51-.41.51-.4,1.18-.15,1.76.63,1.44,2.78.68,2.3-.84,0-.01,0,0,0-.02Z"/>
      </g>
      <g>
        <circle class="st9" cx="50.94" cy="94.73" r="4.16"/>
        <path class="st10" d="M52.43,95.42c.11.25-.21-.62-.25-.74-.05-.15-.08-.22-.09-.1.03-.47.02-.95.11-1.64.11-.91-.83-1.97-1.8-1.49-1.09.53-2.06,1.38-2.15,2.69-.11,1.54.52,2.7,1.89,3.42,1.27.67,2.87-.8,2.29-2.12Z"/>
        <path class="st22" d="M51.32,92.61c0-.39-.32-.75-.65-.91-.87-.41-1.69.03-2.3.67-.37.4-.45,1.01-.44,1.52.01.61.28,1.07.71,1.48.86.84,2.21.11,2.43-.91.05-.21.06-.41.05-.63.01.39.04-.07.07-.18,0-.08,0-.15.02-.23-.09.28-.07.21.06-.2.03-.21.04-.41.04-.62Z"/>
      </g>
      <g>
        <circle class="st9" cx="44.03" cy="112.91" r="4.16"/>
        <path class="st10" d="M45.06,113.19c-.04-.11-.08-.21-.12-.32,0-.02,0-.03,0-.06-.02-.1-.04-.17-.06-.24,0-.02,0-.03,0-.05.02-.16.01-.32.04-.47.13-.9-.57-1.5-1.41-1.51-2.43-.04-2.9,3.58-1.33,4.88.96.8,2.9.33,2.96-1.1.02-.4.06-.75-.08-1.13Z"/>
        <path class="st22" d="M43.69,112.12s0,0,0,0c0-.02,0-.02,0-.03,0-.01.01-.02.02-.04.07-.14.1-.27.12-.41.18-.54-.12-1.07-.71-1.16-.15-.05-.31-.08-.47-.07-.25.02-.42.12-.63.24-.33.17-.67.49-.81.84-.35.86-.28,1.9.49,2.52,1.15.93,2.48-.37,2.07-1.62,0,0-.05-.18-.08-.24Z"/>
      </g>
      <g>
        <circle class="st9" cx="78.49" cy="73.94" r="4.16"/>
        <path class="st10" d="M78.23,70.77c-.77-.07-1.24.06-1.9.45-.52.31-.91.97-1.16,1.5-.68,1.49-.38,3.54,1.41,3.98.57.14,1.14-.17,1.52-.57.39-.42.52-.98.51-1.54.01.4.01-.09.01-.38,0,.12.02-.08.04-.2,0-.02.01-.03.02-.06.02-.03.03-.06.05-.09.04-.07.1-.17.19-.31-.23.38.04-.02.09-.08.24-.27.31-.57.39-.9-.02.04-.03.08-.05.11.22-.83-.09-1.82-1.12-1.92Z"/>
        <path class="st22" d="M77.13,71.43s-.02.02-.03.02c-.34.1-.68.32-.89.58-.43.53-.59,1.03-.58,1.7,0,.6.56,1.12,1.13,1.21.77.13,1.38-.4,1.56-1.12.11-.44.18-.92.12-1.39.34-.79-.64-1.43-1.31-1.01Z"/>
      </g>
      <g>
        <circle class="st9" cx="104.63" cy="69.6" r="4.16"/>
        <path class="st10" d="M106.09,66.76c-1.27-1.51-3.45-.34-4.2,1.08-.8,1.51-.32,3.48.91,4.59,1.4,1.26,3.77-.38,3.03-2.13-.07-.17-.14-.34-.21-.51-.01-.03-.08-.24-.11-.31,0-.03,0-.06,0-.08.04-.08.08-.16.11-.25.01-.03.25-.52.07-.22.15-.24.28-.45.4-.69.15-.31.38-1.04.02-1.47Z"/>
        <g>
          <path class="st22" d="M102.28,70.81s-.03,0-.04-.01c.11.05.1.05.04.01Z"/>
          <path class="st22" d="M103.8,68.55c-.05-.11-.08-.23-.12-.35.1.31-.08-.61-.04-.3-.1-.76-.92-1.14-1.56-.73.15-.06.08-.03-.21.12-.17.12-.27.25-.37.42-.22.33-.33.59-.44.97-.1.35-.01.79.11,1.12.1.26.3.54.52.72-.02-.02.45.22.6.3.84.36,1.73-.35,1.67-1.23v-.04c.03-.33-.02-.65-.16-.99Z"/>
        </g>
      </g>
      <g>
        <circle class="st9" cx="121.81" cy="80.02" r="4.16"/>
        <path class="st10" d="M122.02,79.68s0-.04,0-.05c0,0,.03-.04.09-.11.22-.25.34-.51.42-.81.21-.48.2-1.08-.28-1.41.48.33-.65-.46-.62-.45-.51-.23-1.06-.14-1.58,0-.8.22-1.35.8-1.76,1.49-.81,1.35-.11,3.47,1.09,4.33.81.58,2.04.79,2.76-.07.62-.75.36-1.72.02-2.52-.03-.06-.11-.3-.15-.4Z"/>
        <path class="st22" d="M120.91,79.36c-.15-.41-.27-.79-.58-1.07-.44-.55-1.36-.58-1.68.16-.01.03-.03.07-.04.1-.73,1-.58,2.83.66,3.28.7.25,1.36.01,1.71-.65.32-.6.15-1.24-.07-1.83Z"/>
      </g>
      <g>
        <circle class="st9" cx="138.66" cy="65.78" r="4.16"/>
        <path class="st10" d="M139.14,65.64c-.11-.79.03-1.61,0-2.41-.03-.93-1.1-1.22-1.78-.83-2.55,1.45-2.33,5.7.2,7.04,1,.53,2.35-.43,2.18-1.55-.12-.78-.49-1.47-.61-2.25Z"/>
        <path class="st22" d="M137.73,65.97c-.08-.28-.26-.58-.24-.87.05-.8-.81-1.21-1.39-.64-1.07,1.06-1.38,2.76-.27,3.91.74.76,1.87.06,2.08-.78.14-.55-.04-1.1-.18-1.63Z"/>
      </g>
      <g>
        <circle class="st9" cx="114.12" cy="105.56" r="4.16"/>
        <g>
          <path class="st10" d="M114.84,103.94s0,.06,0,.09c0-.12,0-.13,0-.09Z"/>
          <path class="st10" d="M115.19,104.95c-.12-.15-.24-.3-.37-.44,0-.03.01-.06.02-.09-.05.18-.01-.37,0-.49,0-.81-.53-1.54-1.43-1.45-1.41.13-2.31,1.36-2.28,2.73.01.49.27,1.08.57,1.46.28.36.54.57.94.79.41.23.82.21,1.27.22,1.28.02,2.05-1.77,1.27-2.73Z"/>
        </g>
        <path class="st22" d="M115.16,106.13c-.11-.4-.38-.73-.6-1.08-.03-.05-.29-.49-.16-.21-.05-.11-.1-.21-.16-.31-.18-.69-.92-.78-1.47-.53l.05-.03c-.78.24-1.1,1.22-1.05,1.96.06.87.58,1.7,1.37,2.06,1.24.57,2.35-.67,2.01-1.87Z"/>
      </g>
      <g>
        <circle class="st9" cx="155.84" cy="90.57" r="4.16"/>
        <path class="st10" d="M156.54,90.6c.06.3.04.2-.07-.31-.08-.2-.18-.39-.32-.56-.05-.07-.21-.34-.24-.35.23-.92-.34-1.74-1.34-1.72-1.12.02-2.07.9-2.19,2.02-.08.72.11,1.34.52,1.94.18.26.42.51.66.71.26.21.55.34.87.4.53,0,.63,0,.3.04,1.2.32,2.22-1.1,1.81-2.17Z"/>
        <path class="st22" d="M155.45,89.27s0,0,0-.01c.22-.75-.99-1.3-1.41-.64-.03.05-.06.11-.1.16-.31.18-.55.5-.67.82-.24.7-.19,1.46.25,2.06.75,1.03,2.45.45,2.33-.85-.04-.44-.17-1.07-.41-1.53Z"/>
      </g>
    </g>
  </g>
</svg>