<?xml version="1.0" encoding="UTF-8"?>
<svg id="Objects" xmlns="http://www.w3.org/2000/svg" version="1.1" xmlns:xlink="http://www.w3.org/1999/xlink" viewBox="0 0 180.79 225.18">
  <!-- Generator: Adobe Illustrator 30.1.0, SVG Export Plug-In . SVG Version: 2.1.1 Build 136)  -->
  <defs>
    <style>
      .st0 {
        fill: #caf4ff;
      }

      .st1 {
        fill: #eb9696;
      }

      .st2 {
        fill: #700000;
      }

      .st3 {
        fill: #f0fcff;
      }

      .st4 {
        fill: #fff;
      }

      .st5 {
        fill: #daf5ff;
      }

      .st6 {
        fill: #a0e4f9;
      }

      .st7 {
        fill: #ffd0d0;
      }

      .st8 {
        fill: #a61313;
      }

      .st9 {
        fill: #ffd2d2;
      }

      .st10 {
        fill: #1c7482;
      }

      .st11 {
        fill: #51a4b7;
      }

      .st12 {
        fill: #ffaeae;
      }

      .st13 {
        fill: #fee;
      }

      .st14 {
        fill: #ccf5ff;
      }

      .st15 {
        fill: #4e7534;
      }

      .st16 {
        fill: #6ab5c6;
      }

      .st17 {
        fill: #e04242;
      }

      .st18 {
        fill: #69944b;
      }

      .st19 {
        fill: #fffffd;
      }

      .st20 {
        fill: #d67979;
      }

      .st21 {
        clip-path: url(#clippath);
      }

      .st22 {
        fill: #380000;
      }
    </style>
    <clipPath id="clippath">
      <path class="st6" d="M12.92,128.93s14.71,41.4,20.34,60.82c0,0,8.81,25.29,55.95,23.51,40.53-1.53,48.29-24.4,48.29-24.4,0,0,20.02-55.73,19.67-58.39s-21.57-16.87-67.96-15.84c-46.4,1.02-66.26-.26-76.28,14.31Z"/>
    </clipPath>
  </defs>
  <g>
    <g>
      <path class="st6" d="M12.92,128.93s14.71,41.4,20.34,60.82c0,0,8.81,25.29,55.95,23.51,40.53-1.53,48.29-24.4,48.29-24.4,0,0,20.02-55.73,19.67-58.39s-21.57-16.87-67.96-15.84c-46.4,1.02-66.26-.26-76.28,14.31Z"/>
      <g class="st21">
        <path class="st14" d="M18.89,172.81s24.96,13.6,41.76,10.11,25.19-33.82,15.15-52.69c-10.04-18.87-65.45-25.34-69.96-16.88-4.51,8.46,2.15,37.44,13.05,59.46Z"/>
        <path class="st16" d="M120.89,117.22s-5.11,61.69-16.11,78.72c-11,17.03-50.59,12.19-71.71.36-21.12-11.84,34.57,47.57,78.35,22.76,43.78-24.81,64.33-84.83,58.79-107.72s-40.2-14.33-49.32,5.88Z"/>
      </g>
    </g>
    <path class="st22" d="M12.95,126.6s-1.72,7.91,8.07,6.14c0,0-.26,10.74,9.66,4.87,0,0,2.56,8.35,12.12,4.18,0,0,4,9.45,13.39,3.02,0,0,5.69,9.81,15.98,1.94,0,0,6.02,8.08,15.01.37,0,0,9.02,8.9,13.78-.81,0,0,9.04,8.02,12.66-1.61,0,0,10.78,7.22,13.68-2.87,0,0,15.14,4.53,12.57-4.06,0,0,12.28,4.43,8.94-4.24,0,0,10.46,2.21,7.99-5.73,0,0-3.37-21.41-65.43-20.78-58.57.59-73.75,2.69-78.43,19.58Z"/>
    <g>
      <path class="st10" d="M78.11,185.96c-.7-7.15-1.43-13.82-2.26-19.5-1.57-11.37-2.88-18.92-2.88-18.92.02.41.05.83.07,1.25-.1-.8-.15-1.24-.15-1.24l.17,1.46c.32,6.19.89,12.74,1.58,19.17.77,6.93,1.48,13.71,2.27,19.67,1.12,8.7,2.18,15.63,2.67,18.74l.2,1.8c-.03-.33-.05-.68-.08-1.05.11.67.17,1.04.17,1.04-.43-7.64-1.05-15.28-1.75-22.43Z"/>
      <path class="st10" d="M87.27,149.37c-.02.38-.04.78-.07,1.16l-.02-1.16s0,.43.02,1.21c-.7,12.44-.47,26.65-.06,37.86.3,8.12.69,14.65.9,17.84.02.94.04,1.66.06,2.12l-.02-1.55c.07,1,.11,1.55.11,1.55.56-14.79.33-29.53-.04-40.59-.37-11.06-.88-18.43-.88-18.43Z"/>
      <path class="st10" d="M101.86,149.37s-.05.44-.14,1.25c-2.23,12.59-3.77,27.1-4.76,38.58-.7,8.15-1.12,14.77-1.31,18.12-.1,1.05-.17,1.86-.21,2.36l.17-1.59c-.06,1.03-.09,1.59-.09,1.59,2.39-15.01,4-30.07,5-41.39,1.01-11.32,1.41-18.91,1.41-18.91-.07.39-.14.79-.21,1.18l.13-1.19Z"/>
      <path class="st10" d="M113.44,148.64l.18-1.08s-.08.43-.22,1.21c-3.15,12.63-5.72,27.26-7.44,38.88-.45,3-.85,5.79-1.19,8.29-.29,2.52-.55,4.74-.76,6.59-.12,1.09-.22,2.04-.3,2.85-.19,1.32-.33,2.36-.4,3.02l.22-1.31c-.09.85-.14,1.32-.14,1.32.78-3.79,1.51-7.57,2.19-11.3.7-3.73,1.39-7.4,2.06-10.95,1.28-7.11,2.38-13.77,3.29-19.49,1.8-11.43,2.77-19.1,2.77-19.1-.09.35-.18.71-.26,1.06Z"/>
      <path class="st10" d="M126.87,143.29c-.11.34-.21.68-.32,1.02l.24-1.04s-.11.44-.3,1.24c-4.02,12.92-7.57,27.96-10.07,39.92-.62,3.09-1.19,5.97-1.71,8.55-.46,2.59-.87,4.88-1.21,6.79-.26,1.41-.41,2.63-.53,3.59-.21,1.11-.35,1.96-.41,2.5l.19-.84c-.07.55-.11.85-.11.85,1.73-7.82,3.85-15.56,5.54-22.88,1.76-7.31,3.31-14.15,4.6-20.03,2.58-11.76,4.07-19.65,4.07-19.65Z"/>
      <path class="st10" d="M140.09,140.67c-.12.31-.24.63-.36.95l.28-.98s-.13.43-.37,1.2c-4.75,12.43-9.14,26.98-12.29,38.58-.78,3-1.52,5.79-2.17,8.3-.6,2.52-1.12,4.75-1.56,6.6-.33,1.32-.53,2.47-.69,3.39-.27,1.13-.46,2-.54,2.54l.22-.75c-.09.49-.14.77-.14.77.57-1.9,1.01-3.8,1.63-5.67.58-1.88,1.16-3.74,1.74-5.59,1.16-3.7,2.3-7.35,3.36-10.89,2.16-7.07,4.09-13.7,5.71-19.39,3.24-11.39,5.18-19.05,5.18-19.05Z"/>
      <path class="st10" d="M151.17,137.65c-.15.34-.31.7-.46,1.05.25-.69.39-1.08.39-1.08l-.39,1.09c-8.89,20.09-17.02,46.42-18.97,52.9l-.52,1.46c.13-.35.29-.8.48-1.33-.26.87-.41,1.36-.41,1.36,11.43-27.14,19.89-55.45,19.89-55.45Z"/>
      <path class="st10" d="M61.78,166.31c-3.11-11.32-5.51-18.77-5.51-18.77.08.42.17.85.25,1.27-.21-.8-.33-1.25-.33-1.25l.46,1.88c1.2,6.1,2.62,12.52,4.16,18.8,1.71,6.93,3.37,13.7,4.98,19.63.4,1.48.79,2.91,1.16,4.28.34,1.38.67,2.69.98,3.93.63,2.48,1.19,4.68,1.65,6.5.15.57.29,1.09.42,1.59l1.03,4.24c-.06-.33-.12-.68-.19-1.03.17.65.27,1.02.27,1.02-2.37-15.53-6.22-30.76-9.32-42.08Z"/>
      <path class="st10" d="M50.66,163.58c-3.34-11.42-5.83-18.96-5.83-18.96.07.37.15.75.23,1.13-.2-.71-.31-1.11-.31-1.11l.33,1.21c2.69,13.16,6.74,27.88,10.16,39.45,2.63,8.9,4.9,15.92,5.88,18.93l.44,1.61c-.09-.37-.19-.76-.3-1.17.24.74.38,1.15.38,1.15-3.44-15.51-7.65-30.82-10.99-42.24Z"/>
      <path class="st10" d="M44.23,178.15c-1.93-6.9-3.84-13.31-5.45-18.82-3.27-11-5.71-18.25-5.71-18.25.07.36.15.73.23,1.1l-.31-1.07s.12.42.33,1.2c2.61,12.67,6.54,26.87,10.06,37.96,2.36,7.57,4.42,13.7,5.54,17,.32,1.06.61,1.97.84,2.7l-.41-1.43c.31.9.49,1.4.49,1.4-1.75-7.48-3.69-14.88-5.61-21.79Z"/>
      <path class="st10" d="M36.74,182.68c-.43-1.69-.84-3.38-1.3-5.03-.47-1.65-.93-3.27-1.39-4.87-1.85-6.39-3.79-12.28-5.51-17.3-3.46-10.04-6.1-16.61-6.1-16.61.09.35.18.71.27,1.06-.22-.67-.35-1.03-.35-1.03l.51,1.68c2.94,11.46,7.05,24.13,10.31,34.19.44,1.32.86,2.59,1.26,3.81.16.49.31.97.46,1.44l3.98,13.06c-.08-.36-.16-.73-.25-1.11.21.7.33,1.09.33,1.09-.66-3.49-1.33-7-2.23-10.37Z"/>
    </g>
  </g>
  <g>
    <g>
      <path class="st2" d="M11.05,114.2c-9.25,4.36-10.69,15.55,3.82,20.35,14.5,4.79,43.12,9.06,77.99,9.7,34.88.64,75.92-13.34,78.22-24.63,2.3-11.29-16.16-12.92-28.69-14.55s-92.42-9.2-131.34,9.13Z"/>
      <path class="st8" d="M35.42,135.75c-1.23-2.56-4.85-2.8-7.63-2.94-2.75-.14-4.84-.88-7.4-1.61-3.63-1.05-7.32-.45-10.98-1.72-.76-.27-1.34.69-.59,1.06,3.93,1.97,8.47,5.38,13.29,4.48,4.37-.81,9,3.33,13.1,1.25.18-.09.29-.35.21-.52Z"/>
      <path class="st8" d="M101.39,135.18c-4.2-1.1-7.86.72-12.05.93-6.2.31-12.22,1.46-18.46.96-2.03-.17-3.85-.6-5.96-.62-2.51-.02-5.01.88-7.55.95-5.81.18-11.69-1.09-17.5-1.41-.71-.04-.71.93-.1,1.09,4.57,1.2,9.07,1.46,13.78,1.61,5.8.18,11.14,2.68,16.97,2.26,4.97-.36,10.07-.11,15.08-.47,5.09-.37,10.28.84,15.28.11,3.28-.48,3.87-4.51.5-5.4Z"/>
      <path class="st8" d="M160.01,125.18c-8.35,1.82-15.65,5.23-23.69,7.88-5.33,1.76-10.49,2.68-16.17,2.01-4.11-.49-8.77-.62-12.71.61-1.48.46-1.05,2.41.46,2.42,10.48.09,21.16,1.57,31.35-1.68,5.1-1.62,9.57-4.7,14.72-6.06,2.92-.77,6.22-1.37,6.9-4.46.1-.48-.37-.83-.86-.72Z"/>
      <path class="st17" d="M19.3,131.58c-.9-.53-2.33-.89-3.4-.66-.57.13-1.35-.14-1.91-.26-.67-.15-1.52-.19-2.15-.47-.61-.27-1.07.44-.64.86,1.01,1,1.84,1.54,3.26,2.03,1.46.51,2.53,1.28,4.2,1.17,1.63-.11,1.89-1.93.63-2.68Z"/>
      <path class="st17" d="M26.79,133.01c-.27-.11-.52-.2-.82-.24-.28-.03-.4-.09-.7-.24-1.48-.72-2.7,1.52-1.17,2.13.79.31,1.69.57,2.52.24.83-.33,1.14-1.48.17-1.89Z"/>
      <path class="st17" d="M56.04,137.78c-1.79-1.13-4.2-1.07-6.32-1.18-2.91-.15-5.52-.46-8.42-.06-.36.05-.48.58-.06.64,2.21.31,4.22.21,6.44.24,2.78.04,5.44,1.3,8.17,1.18.52-.02.56-.59.19-.82Z"/>
      <path class="st17" d="M67.95,137.59c-1.39-.65-2.88-.76-4.41-.86-1.98-.13-3.66,1.07-5.6,1.31-.16.02-.2.25-.03.27,1.7.23,2.97,1.57,4.59,1.81,1.57.23,3.15.62,4.74.5,1.7-.13,2.31-2.28.71-3.02Z"/>
      <path class="st17" d="M100.18,136.99c-2.88-1.13-5.66-.42-8.71-.04-4.42.55-8.92.93-13.36,1.32-.33.03-.29.44.02.46,3.94.3,7.83.46,11.79.44,3.36-.02,6.96.88,10.1-.4.75-.31,1.1-1.41.16-1.78Z"/>
      <path class="st17" d="M116.94,135.85c-1.35-1.59-4.42-.94-6.32-.65-1.14.18-1.51,1.79-.18,2,1.07.17,2.09.28,3.18.3,1.23.02,2.42.14,3.25-.84.18-.22.27-.56.07-.8Z"/>
    </g>
    <g>
      <g>
        <path class="st11" d="M118.79,126.96s15.34,1.96,21.87,0,15.34-8.49,15.34-10.77-30.35-3.92-37.21,10.77Z"/>
        <path class="st6" d="M118.79,126.96s15.69.59,22.22-1.37,14.99-7.11,14.99-9.4-30.35-3.92-37.21,10.77Z"/>
        <path class="st11" d="M87.45,132.64s15.67,5.7,25.13,2.14,24.8-14.01,25.78-15.97-26.09-5.71-32.03-3.92-20.47,17.22-18.88,17.75Z"/>
        <path class="st5" d="M87.45,132.64s15.95,4.33,25.41.76,24.53-12.64,25.51-14.6-26.09-5.71-32.03-3.92-20.47,17.22-18.88,17.75Z"/>
        <path class="st11" d="M10.75,93.02c-2.07-5.39-3.59-6.53-5.87-5.55s-5.55,14.69-3.92,18.28,24.15,30.68,45.37,26.44c-11.42-6.53-22.97-13.67-35.58-39.17Z"/>
        <path class="st6" d="M10.75,93.02c-2.07-5.39-3.59-6.53-5.87-5.55s-5.55,14.69-3.92,18.28,25.57,28.82,46.79,24.58c-11.42-6.53-24.39-11.81-37-37.31Z"/>
        <path class="st11" d="M15.97,82.58c-4.9-4.24-6.85-5.22-8.49-2.28s2.05,24,11.42,36.56c9.37,12.55,33.62,22.44,47.98,15.79,14.36-6.65-18.33-6.32-29.89-19.71-11.56-13.38-21.03-30.35-21.03-30.35Z"/>
        <path class="st5" d="M15.97,82.58c-4.9-4.24-6.85-5.22-8.49-2.28s2.05,24,11.42,36.56c9.37,12.55,33.2,20.53,47.56,13.88,14.36-6.65-17.91-4.42-29.47-17.8-11.56-13.38-21.03-30.35-21.03-30.35Z"/>
        <path class="st11" d="M26.09,75.4c-4.62-1.47-11.42-3.26-13.06-2.61s0,23.74,8.81,33.9,37.21,32.03,56.14,31.05c18.93-.98,34.27-10.77,34.6-13.71s-46.02-6.4-56.47-14.13c-10.44-7.74-26.39-33.34-30.03-34.5Z"/>
        <path class="st6" d="M26.09,75.4c-4.62-1.47-11.42-3.26-13.06-2.61s0,23.74,8.81,33.9,37.7,29.92,56.63,28.94c18.93-.98,33.78-8.66,34.11-11.6s-46.02-6.4-56.47-14.13c-10.44-7.74-26.39-33.34-30.03-34.5Z"/>
        <path class="st11" d="M32.62,69.85c-2.94-.98-8.6-.65-9.2,0s3.32,16.32,6.26,21.22,14.03,15.99,25.46,23.17c11.42,7.18,33.62,12.4,51.9,10.44,18.28-1.96,24.15-4.9,24.15-4.9,0,0-39.17-5.98-52.55-14.58-13.38-8.6-46.02-35.36-46.02-35.36Z"/>
        <path class="st5" d="M32.62,69.85c-2.94-.98-8.6-.65-9.2,0s3.32,16.32,6.26,21.22,14.63,14.29,26.05,21.47c11.42,7.18,33.11,11.96,51.39,10,18.28-1.96,24.07-2.75,24.07-2.75,0,0-39.17-5.98-52.55-14.58-13.38-8.6-46.02-35.36-46.02-35.36Z"/>
        <path class="st11" d="M28.05,58.42c-2.34,2,4.57,15.88,7.51,20.18,2.94,4.3,28.07,24.86,38.51,29.43,10.44,4.57,43.74,15.67,67.56,13.38,23.83-2.28,32.97-12.48,33.62-14.73s-5.22-5.51-10.44-5.18-54.83,4.04-73.44-4.34c-18.6-8.38-47.71-34.82-52.58-36.45s-8.46-4.24-10.74-2.28Z"/>
        <path class="st6" d="M28.05,58.42c-2.34,2,4.57,15.88,7.51,20.18,2.94,4.3,28.07,24.86,38.51,29.43,10.44,4.57,43.62,13.62,67.45,11.34s33.08-10.44,33.73-12.69-5.22-5.51-10.44-5.18-54.83,4.04-73.44-4.34c-18.6-8.38-47.71-34.82-52.58-36.45s-8.46-4.24-10.74-2.28Z"/>
        <path class="st11" d="M30.01,51.24c-2.22,1.66,5.55,16.7,11.75,21.4,6.2,4.71,37.79,31.8,67.56,37.25s51.72-2.72,61.6-7.35c9.88-4.63,11.01-12.79,0-17.36-11.01-4.57-49.19,3.34-72.69-3.71s-49.94-26.31-53.53-27.62c-3.59-1.31-12.08-4.57-14.69-2.61Z"/>
        <path class="st5" d="M30.01,51.24c-2.22,1.66,5.55,16.7,11.75,21.4,6.2,4.71,38.73,30.1,68.5,35.55,29.77,5.45,51.09-3.35,60.97-7.98,9.88-4.63,10.69-10.47-.31-15.03-11.01-4.57-49.19,3.34-72.69-3.71s-49.94-26.31-53.53-27.62c-3.59-1.31-12.08-4.57-14.69-2.61Z"/>
        <path class="st11" d="M38.79,47.33c-4.07,1.09,1.01,6.53,7.53,11.75,6.53,5.22,37.21,23.17,45.37,26.11s40.47,14.69,60.71,9.79c20.24-4.9,21.54-10.77,21.22-12.4s-10.12-9.14-22.85-7.83c-12.73,1.31-41.45,1.36-50.92-2.1s-56.19-26.63-61.06-25.32Z"/>
        <path class="st6" d="M38.79,47.33c-4.07,1.09,1.01,6.53,7.53,11.75,6.53,5.22,38.52,22.01,46.68,24.94s39.5,13.16,59.73,8.27c20.24-4.9,21.21-8.08,20.88-9.71s-10.12-9.14-22.85-7.83c-12.73,1.31-41.45,1.36-50.92-2.1s-56.19-26.63-61.06-25.32Z"/>
        <path class="st5" d="M70.47,54.51s1.97,7.18,8.49,11.42,18.13,8.81,26.53,10.44c8.39,1.63,38.75,1.49,45.28-1.63,6.53-3.13,6.37-9.46,5.22-10.44-1.81-1.56-8.49-4.24-13.38-2.61-4.9,1.63-49.93,7.18-61.03,0-11.11-7.18-9.81-9.47-11.11-7.18Z"/>
        <path class="st0" d="M143.08,81.96c-3.79-1.57-7.53-.99-11.54-.8-5.02.24-10.06.23-15.08-.05-9.32-.52-18.33-2.96-27.04-6.2-8.61-3.2-17.05-7.14-25.21-11.32-3.99-2.05-7.94-4.04-11.76-6.4-3.29-2.04-6.19-4.89-9.83-6.26-.65-.24-1.18.48-.93,1.06,1.45,3.29,4.44,5.43,7.18,7.63,3.86,3.1,8.13,5.98,12.43,8.41,8.45,4.76,17.18,9.1,26.22,12.61,8.55,3.33,17.53,5.55,26.62,6.81,5.61.78,11.32.82,16.96.58,4.55-.2,8.76-.32,12.62-2.92,1.27-.86.49-2.68-.64-3.15Z"/>
        <path class="st0" d="M97.95,109.51c-5.37-5.21-14.09-6.33-20.57-9.79-5.85-3.12-11.64-6.3-17.2-9.92-5.91-3.85-11.46-8.23-16.64-13.01-2.44-2.26-4.63-4.76-6.67-7.38-1.95-2.51-3.23-5.65-5.57-7.81-.52-.48-1.52-.31-1.54.53-.12,5.71,4.7,11.6,7.99,15.95,4.56,6.03,10.45,10.95,16.6,15.28,6.21,4.37,12.88,8.09,19.63,11.57,6.76,3.48,15.62,7.73,23.43,6.19.68-.13,1.09-1.07.54-1.6Z"/>
        <path class="st0" d="M68.28,127.05c-3.36-4.6-10.18-6.6-15.18-8.93-6.1-2.84-11.32-6.83-16.11-11.53-4.48-4.4-8.59-9.44-11.19-15.19-2.3-5.09-2.78-12.39-7.9-15.55-1.23-.76-2.57.06-2.78,1.39-.88,5.46,2.42,12.19,4.45,17.19,2.59,6.37,7.48,11.88,12.2,16.75,4.43,4.56,9.54,8.53,15.01,11.74,2.83,1.66,5.96,2.96,8.94,4.34,3.48,1.61,6.82,3.55,10.74,3.47,2.01-.04,2.98-2.07,1.81-3.68Z"/>
        <path class="st0" d="M12.19,110.88c-1.41-3.41-3.23-6.04-3.93-9.81-.64-3.41-.14-6.83-1.5-10.05-.32-.77-1.32-.85-1.91-.38-5.7,4.55-2.23,20.17,3.66,23.49,2.22,1.25,4.66-.87,3.68-3.24Z"/>
        <path class="st0" d="M157.57,111.03c-3.15-2.07-6.62-.61-10.12.09-4.7.94-9.41,1.49-14.18,1.92-5.14.46-10.28.49-15.43.06-4.22-.36-8.56-1.77-12.77-1.13-.84.13-1.23,1.27-.64,1.88,5.85,6.07,17.91,5.25,25.6,4.89,5-.23,10.06-.68,14.99-1.51,3.92-.66,9.92-.65,12.73-3.68.69-.75.75-1.91-.18-2.52Z"/>
        <path class="st0" d="M88.57,127.59c-4.3.74-9.42-.38-13.47,1.21-1.17.46-1.29,2.02-.58,2.89,3.52,4.32,12.85,3.94,17.61,2.36,1.08-.36,2.35-1.02,2.59-2.28.79-4.08-2.86-4.76-6.15-4.19Z"/>
        <path class="st0" d="M141.63,122.36c-1.48-.87-2.76-.46-4.29-.02-1.1.32-2.73.88-3.33,1.91-.41.71-.3,1.36.14,2.01.75,1.11,2.59,1.18,3.79,1.05,1.69-.18,3.2-.5,4.34-1.84.77-.91.31-2.55-.65-3.12Z"/>
        <path class="st0" d="M155.97,77.23c-1.34-.21-2.6.45-3.84.9-1.02.37-1.98.83-2.95,1.28-2.03.95-1.13,3.59.77,3.92,2.61.45,6.36.24,7.96-2.21,1.11-1.69-.13-3.61-1.95-3.89Z"/>
        <path class="st19" d="M87.39,78.69c-2.72-2.6-6.34-3.72-9.68-5.37-3.68-1.81-6.98-4.08-10.28-6.5-6.36-4.67-12.89-7.97-20.03-11.14-.37-.16-.7.37-.43.65,5.4,5.53,11.94,9.36,18.4,13.64,5.91,3.92,13.97,9.84,21.26,10.29.76.05,1.37-.97.76-1.55Z"/>
        <path class="st19" d="M69.61,99.49c-3.45-6.26-11.9-10.44-17.37-14.86-6.43-5.2-13.02-10.31-17.85-17.08-.5-.7-1.73.12-1.26.84,4.42,6.75,9.05,13.08,15.05,18.51,2.97,2.68,6.1,5.25,9.38,7.54,3.51,2.45,6.87,5.64,11.21,6.32.65.1,1.15-.71.85-1.26Z"/>
        <path class="st19" d="M45.33,117.55c-.91-2.71-3.28-4.37-5.35-6.25-2.9-2.62-5.45-5.61-7.86-8.67-5.27-6.7-8.23-14.33-12.21-21.75-.41-.77-1.6-.57-1.67.33-.63,8,4.32,15.67,8.65,22.01,2.51,3.67,5.43,7.05,8.56,10.21,2.31,2.33,5.31,5.51,8.82,5.33.57-.03,1.29-.53,1.06-1.21Z"/>
        <path class="st19" d="M8.57,102.8c-1.28-2.39-1.42-5.25-2.26-7.8-.34-1.04-1.86-1.36-2.25-.14-.78,2.45-.9,4.97-.32,7.5.41,1.8,1.82,5.39,4.27,4.92,2.28-.44,1.28-3.12.56-4.46Z"/>
        <path class="st19" d="M80.67,103.49c-.4-.83-1.29-1.12-2.11-1.36-1.23-.36-2.51-.56-3.72-1.03-1.32-.51-2.01,1.11-1.36,2.06,1.19,1.76,5.41,4.83,7.15,2.18.36-.55.33-1.27.04-1.86Z"/>
        <path class="st19" d="M51.84,118.64c-.49-.18-.97-.3-1.49-.35-.43-.04-.85-.04-1.25.17-.1.05-.18.09-.28.13-.6.23-.98,1.04-.82,1.65,0,.02.01.05.02.07-.02-.45-.01-.39.02.17.04.45.29.78.54,1.12.35.47.77.85,1.29,1.11,1.11.57,2.43.47,3.17-.66.83-1.26.19-2.92-1.19-3.42Z"/>
        <path class="st19" d="M82.12,129.15c-1.63.11-3.08.74-4.76.41-1.53-.3-2.8,1.67-1.27,2.63,2.09,1.31,5.58,1.88,7.54,0,1.36-1.3.19-3.17-1.5-3.05Z"/>
        <path class="st19" d="M138.32,115.59c-3.97-1.67-8.59-1.15-12.82-1.42-5.39-.34-10.83-1.83-16.23-1.62-.91.04-1.65,1.36-.63,1.89,4.5,2.36,9.81,2.74,14.8,3.22,4.79.47,10.47,1.37,14.97-.74.62-.29.47-1.11-.09-1.34Z"/>
        <path class="st19" d="M141.05,121.17c-1.01.08-1.96.54-2.88.95-1.06.47-2.01.89-2.98,1.53-.74.49-.83,1.61.13,1.94,2.25.78,5.47.29,7.18-1.5,1.21-1.27.25-3.06-1.44-2.93Z"/>
        <path class="st19" d="M135.86,82.08c-2.6-.59-4.72-.23-7.44-.07-3.64.21-7.23-.07-10.85-.44-6.1-.63-12.26-2.1-18.28-.38-.57.16-.65.92-.07,1.14,5.72,2.19,12.03,2.71,18.08,3.43,5.65.68,13.49,1.77,18.73-.96,1.05-.55,1.16-2.42-.18-2.72Z"/>
        <path class="st19" d="M154.93,78.06c-.4,0-.88.02-1.24.23-.21.12-.41.24-.6.38.31-.22-.2.12-.22.13-.27.15-.54.3-.82.44-.11.05-.22.1-.34.15-.05.02-.08.04-.11.05-.03,0-.08.02-.16.04-.95.28-1.64,1.09-1.43,2.13.2,1.02,1.15,1.57,2.13,1.43,1.78-.24,4.14-1.18,4.32-3.24.07-.85-.66-1.76-1.54-1.75Z"/>
        <path class="st3" d="M51.52,45.23c-.82-1.52-.9-3.42-2.09-4.71-.33-.36-.93-.43-1.3-.08-1.58,1.48-.88,3.47-.23,5.26.67,1.84,1.87,4.2,3.97,4.59.36.07.75-.25.85-.58.49-1.56-.49-3.15-1.21-4.49Z"/>
        <path class="st3" d="M137.96,70.66c-4.75-.84-9.63,1.01-14.41,1.2-5.16.21-10.14-.11-15.25-.8-9.93-1.35-21.12-4.16-29.68-9.52-.43-.27-.97.31-.6.69,3.23,3.29,6.61,5.07,10.91,6.73,5.62,2.17,10.99,4.57,16.87,6.01,10.22,2.51,22.83,2.55,32.84-.9,1.91-.66.86-3.14-.67-3.41Z"/>
        <path class="st3" d="M132.01,99.79c-3.06-1.79-6.44-2.2-9.91-2.69-5.16-.74-10.24-1.74-15.28-3.05-8.99-2.33-17.83-4.95-26.44-8.45-8.77-3.56-16.88-8.26-24.64-13.64-7.16-4.96-15.51-10.32-20.13-17.87-.67-1.1-2.44-.63-2.19.73,1.46,8.24,9.69,14.62,15.57,19.88,7.24,6.48,15.71,11.23,24.5,15.26,9.47,4.35,19.5,7.42,29.59,9.95,8.5,2.13,20.19,6.2,28.75,3.11,1.32-.48,1.35-2.55.2-3.22Z"/>
        <path class="st3" d="M80.17,115.76c-1.22-2.34-2.94-3.19-5.31-4.25-3.68-1.65-7.34-3.02-10.88-5-4.51-2.52-8.91-5.21-13.16-8.14-4.76-3.29-9.31-6.89-13.23-11.16-1.99-2.18-3.58-4.61-4.83-7.28-1.07-2.29-1.38-4.89-2.61-7.09-.47-.85-1.85-1.13-2.39-.15-5.46,9.85,8.58,22.87,15.08,28.28,5.04,4.19,10.76,7.61,16.42,10.87,5.28,3.04,13.89,8.87,20.11,6.26.86-.36,1.22-1.52.8-2.33Z"/>
        <path class="st3" d="M36.42,123.11c-2.58-3.44-6.91-5.44-10.13-8.26-3.13-2.74-5.5-6.2-7.59-9.76-2.23-3.81-3.97-7.95-5.27-12.16-1-3.24-1.1-6.71-2.27-9.87-.29-.8-1.5-.62-1.73.12-2.3,7.22,2.45,17.34,5.78,23.61,3.85,7.25,11.2,16.84,19.6,18.75,1.48.34,2.54-1.19,1.61-2.43Z"/>
        <path class="st4" d="M13.69,96.27c-1.17-2.53-1.89-5.31-2.49-8.02-.16-.7-1.31-.68-1.29.08.08,2.7.51,5.26,1.28,7.86.63,2.11,1.36,4.94,3.55,5.85.43.18.93-.2.95-.64.08-1.87-1.24-3.47-2-5.12Z"/>
        <path class="st4" d="M20.8,110.27c-.48-.51-.87-1.09-1.32-1.62-.57-.68-1.83.12-1.33.88.65.99,1.52,3.32,3.04,2.94.26-.06.49-.28.49-.56,0-.7-.44-1.16-.9-1.64Z"/>
        <path class="st4" d="M50.46,100.25c-1.96-3.67-6.88-5.64-10.06-8.15-5.2-4.11-8.15-9.36-9.98-15.63-.21-.7-1.27-.91-1.51-.1-1.7,5.77,1.33,10.83,5.1,15.07,3.42,3.84,10.16,10.26,15.66,9.99.58-.03,1.11-.58.79-1.18Z"/>
        <path class="st4" d="M55.66,104.51c-.81-1.21-2.04-1.9-3.27-2.64-.92-.56-1.85.84-.92,1.41.65.4,1.29.82,1.92,1.24.63.42,1.2.58,1.94.66.39.04.5-.4.33-.67Z"/>
        <path class="st4" d="M48.18,69.15c-.91-2.77-3.77-4.62-5.8-6.58-1.22-1.18-2.31-2.45-3.34-3.8-1.04-1.37-1.67-3-2.97-4.14-.64-.56-1.79-.38-1.84.63-.14,3.15,2.54,6.06,4.55,8.24,2.15,2.32,5.32,5.78,8.53,6.42.43.08,1.04-.23.87-.76Z"/>
        <path class="st4" d="M56.99,74.98c-1.54-1.07-3.02-2.1-4.68-2.98-1.31-.69-2.34.95-1.24,1.89,1.31,1.11,2.56,2.26,3.9,3.34.83.67,2.86,2.29,3.81.84.83-1.27-.94-2.5-1.78-3.09Z"/>
        <path class="st4" d="M95.88,94.4c-3.27-2.41-7.78-3.22-11.56-4.61-4.63-1.7-9.57-3.78-13.89-6.16-.79-.43-1.43.59-.75,1.15,3.82,3.22,7.55,5.43,12.15,7.4,4.13,1.78,9.22,4.12,13.81,3.47.64-.09.7-.92.25-1.25Z"/>
        <path class="st4" d="M100.59,71.46c-.16.03-.32.05-.47.08-.23.04-.18.35.02.38.16.03.32.05.48.08.37.06.37-.59-.03-.53Z"/>
        <path class="st4" d="M106.21,72.57c-1.62-1.53-3.88-2.2-5.99-2.82-2.27-.67-4.72-1.51-7.03-.68-.6.21-.52,1.05-.09,1.36,1.76,1.26,4.12,1.57,6.17,2.18,2.12.63,4.4,1.47,6.61.91.38-.1.66-.62.32-.94Z"/>
        <path class="st4" d="M78.59,114.26c-3.07-1.51-6.38-1.68-9.7-2.04-1.11-.12-1.67,1.51-.69,2.07,2.69,1.54,5.52,3.05,8.58,3.74,2.15.49,4.12-2.63,1.82-3.77Z"/>
        <path class="st4" d="M36.08,122.31c-1.4-1.4-3.49-2.05-5.29-2.85-1.15-.51-2.27,1.2-1.36,2.06.81.78,1.59,1.58,2.52,2.22,1.1.75,1.99,1.11,3.32.98,1.09-.11,1.57-1.66.82-2.41Z"/>
        <path class="st4" d="M131.57,72.93c-2.75-1.46-6.3-.7-9.32-.65-3.22.06-6.69-.29-9.72.93-.7.28-.5,1.24.1,1.48,3.29,1.32,7.24.82,10.72.73,2.79-.08,5.98.19,8.3-1.52.3-.22.27-.79-.07-.97Z"/>
        <path class="st3" d="M119.54,125.53c-.11-1.02-1.36-1.85-2.34-1.57-2.07.59-3.79,3.17-5.56,4.45-1.23.88-2.43,2-3.8,2.64-1.02.48-2.2.56-3.03,1.37-.48.47-.43,1.19.11,1.58,1.04.75,2.18.44,3.33.13,1.77-.47,3.57-.99,5.2-1.82,2.36-1.2,6.4-3.8,6.08-6.79Z"/>
        <path class="st4" d="M114.38,128.06c-1.2-.1-2.09.47-3.07,1.13-1.09.73-2.07,1.35-3.03,2.25-.48.46-.1,1.27.57,1.16,2.14-.37,5.71-1.5,5.96-4.06.02-.25-.19-.47-.43-.49Z"/>
      </g>
      <g>
        <path class="st6" d="M73.85,55.95c-.24,1.41,5.81,8.39,23.8,10.35,17.99,1.96,43.33.91,46.76-.77s8.57-7.31,8.32-10.49-9.42-11.14-12.73-11.38-21.78,10.89-27.41,13.1-31.64,1.6-34.52.97-3.91-3.56-4.22-1.78Z"/>
        <path class="st5" d="M72.52,54.71c-.24,1.24,4.69,4.36,12.89,4.85s28.56-1.06,33.37-2.43c4.81-1.37,21.83-11.29,22.56-13.49s.37-6.97-.61-8.07-9.91.49-12.97,2.45-23.26,11.75-27.05,12.61c-3.79.86-27.87,2.41-28.19,4.08Z"/>
        <path class="st6" d="M73.84,61.05c-3.37.33-8.26-4.25-8.26-8.5s5.39-6.69,14.52-8.16c9.14-1.47,29.54-5.39,31.82-7.83s5.06-14.2,4.41-16.16,2.12-1.96,3.59-1.96,7.67,5.39,8.81,7.67-.49,12.4-3.92,16.16-18.11,10.12-24.81,10.61-24.6,1.43-26.66,2.63,1.98,5.4.48,5.54Z"/>
        <path class="st5" d="M70.47,60.1c-.27,1.35-5.94-2.65-7.94-11.14-2-8.49,2.73-13.71,5.83-14.85s29.37-8.16,31.17-10.77-.33-15.18-.65-16.65,4.43-.49,6.62,0,10.19,7.51,11.49,11.75-.98,16.32-2.61,18.44-23.17,7.67-31.5,8.98-14.66,4.31-14.77,7.8,2.51,5.67,2.36,6.44Z"/>
        <path class="st5" d="M62.05,55.5s-1.2.35-4.14,0c-2.94-.35-6.1-1.18-7.56-2.52-2.56-2.35-5.01-9.87-4.03-13.23s5.06-5.64,6.2-5.64,9.9,19.95,9.52,21.4Z"/>
        <path class="st6" d="M67.85,58.93c.24,1.17-5.2-1.83-7.65-3.28s-9.3-10.94-9.79-17.47,2.48-9.47,3.69-10.44,31.89-8.16,34.34-9.95,6.85-11.1,3.1-17.79c0,0,10.28,4.57,11.59,12.73,1.31,8.16-1.96,11.1-3.1,12.57s-31.5,8.51-35.74,14.46c-4.24,5.94,3.27,17.75,3.57,19.18Z"/>
        <path class="st0" d="M97.14,9.35c-.23-.38-.83-.32-.87.17-.59,7.86-6.28,9.66-12.88,11.87-5.61,1.87-11.4,3.09-16.93,5.22-8.18,3.16-15.69,12.57-8.4,20.78.48.54,1.4.36,1.63-.33.61-1.84.61-3.65.79-5.57.37-3.91,2.7-6.07,6.04-7.79,5.65-2.9,12.12-3.92,18.13-5.82,7.6-2.4,17.95-9.57,12.48-18.53Z"/>
        <path class="st0" d="M121.84,30.91c-.39-.71-1.28-1.11-2.05-.71-1.7.9-2.13,1.98-3.12,3.62-1.53,2.54-2.71,4.65-5.07,6.56-4.18,3.38-10.57,4.06-15.71,4.69-9.54,1.17-19.43,1.37-26.79,8.46-1.12,1.08.1,3.11,1.55,2.33,10.02-5.34,22.42-3.89,33.33-6.18,4.99-1.05,9.77-3.13,13.48-6.66,2.83-2.69,6.52-8.22,4.37-12.11Z"/>
        <path class="st0" d="M137.03,52.64c-8.07,4.97-17.23,7.16-26.55,8.46-5,.7-10.04.8-15.07.58-4.5-.2-9.23-1.45-13.68-1.06-.33.03-.34.47-.12.63,3.71,2.72,9.1,3.35,13.57,4.03,5.71.86,11.59.85,17.35.64,9.72-.36,20.62-.92,28.6-7.12,3.3-2.56-.51-8.37-4.1-6.15Z"/>
        <path class="st19" d="M74.19,25.82c-2.78-1.76-7.95,1.91-10.26,3.41-3.46,2.24-5.38,5.08-6.23,9.09-.09.45.52.68.69.23,1.42-3.77,5.72-5.62,9.23-6.98,2.39-.92,6.62-1.61,7.16-4.56.08-.44-.23-.96-.59-1.19Z"/>
        <path class="st19" d="M94.4,17.5c-1.86.45-3.31,2.07-4.81,3.2-2.11,1.6-4.42,3.03-6.97,3.79-.91.27-.67,1.66.29,1.46,2.59-.52,5.14-1.38,7.38-2.79,1.81-1.14,4.36-3.1,4.94-5.28.12-.43-.35-.5-.84-.38Z"/>
        <path class="st19" d="M109.54,42.63c-4.35.25-8.35,2.21-12.62,3.01-3.52.66-7.18.47-10.74.85-5.51.6-12.11,1.7-14.54,7.41-.24.57.59,1.12,1.02.67,4.51-4.77,12.47-3.87,18.46-4.01,6.53-.16,14.07-1.13,19.27-5.42.9-.74.42-2.58-.86-2.51Z"/>
        <path class="st19" d="M126.41,59.39c-4.81-.23-9.95,1.99-14.83,2.48-6,.6-12,.6-18.01.62-.48,0-.62.65-.16.82,5.85,2.22,12.22,2.57,18.41,2.2,4.98-.3,11.43-.64,15.24-4.24.66-.62.32-1.83-.64-1.87Z"/>
        <path class="st3" d="M107.72,19.38c-.16-.14-.35-.13-.49.03-1.76,2.12-1.11,5.04-3.26,7.06-1.86,1.75-4.55,2.97-6.94,3.75-4.89,1.6-10.13,2.03-15.17,2.97-8.38,1.56-16.97,7.24-16.02,16.89.07.67,1.11.87,1.43.28,3.09-5.71,5.46-8.63,11.9-10.55,5.01-1.49,10.44-1.67,15.55-2.74,3.85-.81,9.68-2.19,12.14-5.6,2.23-3.09,4.12-9.13.86-12.11Z"/>
        <path class="st3" d="M107.25,18.07c-.06,0-.07.1,0,.1s.07-.1,0-.1Z"/>
        <path class="st3" d="M130.93,42.75c-3.19.48-5.73,2.97-8.44,4.61-3.88,2.35-8.36,3.79-12.56,5.46-4.78,1.9-9.88,2.41-14.95,2.86-5.29.47-10.4-.6-15.62-.29-.47.03-.62.63-.16.82,4.31,1.78,9.58,1.71,14.19,1.93,5.31.25,10.74-.71,15.96-1.54,7.34-1.17,20.23-3.97,23.38-11.79.47-1.16-.71-2.22-1.81-2.06Z"/>
        <path class="st4" d="M50.37,43.84c-.18-.32-.31-.78-.38-1.2-.17-.91-1.34-1.07-1.84-.36-.5.7-.65,1.45-.51,2.3.15.94.83,1.97,1.8,2.19.94.22,1.68-.44,1.59-1.4-.05-.56-.37-1.05-.64-1.54Z"/>
        <path class="st4" d="M96.51,33c-5.97-.31-12.7,1.41-18.49,2.81-4.59,1.11-7.4,2.81-9.27,7.17-.16.36.37.54.58.28,6.73-8.24,19.15-4.33,27.38-9.24.44-.26.37-.99-.2-1.02Z"/>
        <path class="st4" d="M102.79,29.94c-.47.09-.74.39-1.11.66-.07.06-.14.12-.21.17.17-.11.1-.06-.21.14-.05.03-.06.04-.08.05-.06.03-.08.04-.02.03-.47.15-.84.47-.88,1-.03.46.27.99.75,1.1.74.18,1.4.12,2.03-.33.62-.45,1.07-1.22.97-1.99-.07-.57-.7-.94-1.24-.84Z"/>
        <path class="st4" d="M117.21,51.97c-2.85.38-5.67,1.11-8.43,1.92-2.66.78-5.49.65-8.22,1.15-5.65,1.02-11.1,1.51-16.79.74-.34-.05-.39.44-.11.56,10.22,4.31,24.4,1.59,33.81-3.57.43-.23.21-.85-.26-.79Z"/>
      </g>
    </g>
    <g>
      <path class="st15" d="M23.73,62.09s-16.69,1.28-20.3,5.48C-.17,71.77,0,81.77,0,81.77c0,0,12.36.1,19.36-4.76s8.19-13.38,8.19-13.38l-3.82-1.54Z"/>
      <path class="st15" d="M62.05,54.55s-1.64-10.21,5.93-17.98c7.57-7.76,19.14-6.32,19.14-6.32,0,0-2.33,16.37-6.77,20.98-4.44,4.61-11.88,5.9-18.3,3.31Z"/>
      <path class="st12" d="M21.51,44.94s-16.65-16.31-1.45-24.94c15.19-8.62,35.19-4.4,39.63,1.43s1.63,17.94.96,18.23-33.79,9.38-39.14,5.28Z"/>
      <path class="st1" d="M47.1,36.13s5.78-4.51,10.4-4.45c4.62.06,14.7,9.7,11.58,21.27-3.12,11.57-21.61,21.91-32.68,11.59-11.07-10.32,7.29-26.2,10.7-28.41Z"/>
      <path class="st1" d="M32.79,39.05s-6.64-4.35-16.3-1.29c-9.66,3.06-11.22,12.94-7.45,19.43,3.77,6.49,16.34,18.56,24.64,14.49,8.31-4.07,12.22-14.81,12.77-18.5s-11.95-8.47-13.67-14.13Z"/>
      <path class="st12" d="M47.1,36.13s5.78-4.51,10.4-4.45c4.62.06,13.72,7.74,10.6,19.31s-20.63,23.87-31.7,13.55c-11.07-10.32,7.29-26.2,10.7-28.41Z"/>
      <path class="st12" d="M32.79,39.05s-6.64-4.35-16.3-1.29c-9.66,3.06-11.22,12.94-7.45,19.43,3.77,6.49,16.17,16.43,24.47,12.35,8.31-4.07,12.4-12.67,12.95-16.37s-11.95-8.47-13.67-14.13Z"/>
      <path class="st20" d="M38.14,41.82c-5.26,2.24-10.8,4.44-9.85,6.34s4.3,3.34,6.27,5.77,5.37,5.38,12.65,2.9c7.28-2.48,10.74-9.34,7.86-16.07s-10.64-7.31-12.82-4.6-2.16,4.83-4.12,5.66Z"/>
      <path class="st20" d="M29.33,38.65s-2.51-5.48-.04-7.78c2.47-2.3,16.32-5.2,21.63.16,5.31,5.36,3.18,10.35,3.18,10.35,0,0-2.59,5.71-5.19,6.83-2.6,1.12-10.14,1.89-13.15-.04s-6.79-7.44-6.44-9.52Z"/>
      <path class="st12" d="M35.22,49.12s1.19-13.13,2.17-13.9,4.81,4.46,5.41,3.79,3.24-2.52,4.76-2.63,2.97,9.91,2.7,11.98-6.04,4.35-8.48,4.87-4.88-1.42-6.55-4.1Z"/>
      <path class="st7" d="M33.63,34.17c.3-2.2-8.92,4.88-8.48,9.84s11.82,11.66,17.15,10.43c5.33-1.23.17-5.41-1.76-6.18-1.93-.77-8.59-1.83-6.91-14.08Z"/>
      <path class="st7" d="M45.8,50.97s4.87-3.5,6.59-7.79c1.72-4.28.28-5.98,1.59-7.07s3.97,3.48,2.69,8.36c-1.29,4.88-10.43,9.14-10.87,6.49Z"/>
      <path class="st9" d="M19.07,39.74c-2.58-1.98-8.13,6.14-9.08,11.79s9.34,12.6,15.71,13.33,10.09-6.08,7.53-8.06c-2.56-1.98-9.41-13.42-14.16-17.07Z"/>
      <path class="st9" d="M57.5,31.68c4.22.92.12-7.85-3.63-11.58s-26.64-4.12-34.34,4c-5.51,5.82,1.1,14.04,2.8,13.31,1.7-.73,4.27-7.96,6.62-9.17,2.35-1.21,11.25-3.32,18.11-1.33,4.07,1.18,8.27,4.29,10.45,4.76Z"/>
      <path class="st9" d="M44.86,65.48c-5.27,1.1-6.02-4-1.53-5.13,4.49-1.13,14.79-7.24,15.45-10.93.66-3.69-1.96-9.5,0-11.31s8.69,3.06,7.03,11.73c-1.66,8.67-7.87,12.91-20.95,15.63Z"/>
      <path class="st13" d="M29.61,38.6c-2.03,2.37-1.83,6.3.19,8.67.89,1.04,2.79.63,2.65-.94-.21-2.39-1.71-4.35-.94-6.83.33-1.07-1.24-1.67-1.9-.9Z"/>
      <path class="st13" d="M17.5,41.22c-1.23.51-2.13.79-3.1,1.79-1.06,1.08-1.52,2.64-1.93,4.06-.78,2.69-.82,6.64,1.23,8.73,1.28,1.3,3.3.22,3.67-1.3.47-1.93-.39-4-.07-6.02.14-.86.46-1.62.84-2.4.45-.93.59-2.06,1.07-2.96.56-1.04-.61-2.34-1.7-1.89Z"/>
      <path class="st13" d="M43.34,21.54c-6.63-3.45-22.57-1.03-23.29,8.3-.05.58.4.94.96.81,3.52-.81,6.41-3.55,9.86-4.83,4.02-1.49,8.4-1.36,12.4-2.87.64-.24.67-1.1.07-1.41Z"/>
      <path class="st13" d="M54.76,57.48c-1.43-.08-2.49.73-3.68,1.47-1.68,1.05-3.57,1.86-5.46,2.43-1.28.39-.82,2.41.49,2.26,2.8-.31,9.07-1.45,9.46-5.01.05-.49-.24-1.12-.81-1.15Z"/>
      <path class="st13" d="M53.2,43.57c-.98.27-1.37,1.15-1.93,2-.53.8-1.22,1.46-1.84,2.18-.74.87-.01,2.02,1.03,2.02,2.21,0,5.83-2.82,4.74-5.25-.26-.9-1.13-1.36-2-.94Z"/>
      <path class="st9" d="M44.55,38.67c-1,.32-1.84,1.08-2.59,1.01-1.13-.11-1.98-1.17-3.12-1.54-.5-.16-1.15.23-1.34.69-1.03,2.48,1.61,4.6,3.69,5.2,2.61.76,5.67-1.06,5.7-3.85.01-1.17-1.34-1.83-2.34-1.51Z"/>
      <path class="st18" d="M13.93,66.67c-2.87-1.62-6.81,1.51-8.71,3.5-1.98,2.08-3.58,5.51-1.9,8.19.67,1.06,2.23.83,2.77-.21,1-1.96,1.52-3.53,3.41-4.86,1.85-1.31,4.25-1.66,5.48-3.66.67-1.08-.08-2.41-1.05-2.96Z"/>
      <path class="st18" d="M80.82,32.76c-5.31-.06-10.66,4.79-12.02,9.67-.41,1.46,1.64,2.82,2.81,1.82,1.57-1.35,2.98-2.84,4.74-3.95,1.94-1.22,4.28-1.55,6.13-2.84,2.25-1.57.82-4.67-1.66-4.7Z"/>
    </g>
    <g>
      <path class="st15" d="M139.77,69.29s-7.86-6.35-11.18-6-7.39,4.81-7.39,4.81c0,0,5.39,5.16,10.47,5.93,5.08.76,9.14-2.48,9.14-2.48l-1.04-2.26Z"/>
      <path class="st15" d="M159.72,81.86s3.51-5.16,10.05-5.43c6.54-.27,11.02,5.15,11.02,5.15,0,0-7.81,6.22-11.66,6.41s-7.66-2.33-9.41-6.13Z"/>
      <path class="st12" d="M145.9,60.84s-.55-14.06,9.69-11.55c10.24,2.51,17.27,12.65,16.81,17.05s-6.71,8.55-7.13,8.4-18.72-9.88-19.37-13.89Z"/>
      <path class="st1" d="M160.79,67.58s4.41.42,6.41,2.36,2.44,10.35-3.73,14.13c-6.16,3.79-18.56.67-19.15-8.45-.58-9.12,14.06-8.48,16.47-8.04Z"/>
      <path class="st1" d="M153.29,62.93s-1.11-4.66-6.62-7.32c-5.51-2.66-10.28,1.03-11.32,5.44s-.52,14.92,4.82,16.57c5.33,1.65,11.5-1.44,13.27-2.83s-1.74-8.67-.15-11.86Z"/>
      <path class="st12" d="M160.79,67.58s4.41.42,6.41,2.36,2.82,9.08-3.34,12.87c-6.16,3.79-18.94,1.93-19.53-7.18-.58-9.12,14.06-8.48,16.47-8.04Z"/>
      <path class="st12" d="M153.29,62.93s-1.11-4.66-6.62-7.32c-5.51-2.66-10.28,1.03-11.32,5.44s.29,13.91,5.63,15.56c5.33,1.65,10.69-.43,12.46-1.82s-1.74-8.67-.15-11.86Z"/>
      <path class="st20" d="M154.49,66.37c-3.23-1.19-6.58-2.53-6.95-1.3s.5,3.25.37,5.13.13,4.59,4.35,6.52,8.58.35,10.11-3.8c1.52-4.14-1.64-7.62-3.72-7.33s-2.95,1.23-4.15.78Z"/>
      <path class="st20" d="M151.94,61.32s1.17-3.45,3.21-3.43,9.32,4.48,9.43,9.03c.11,4.55-2.89,5.86-2.89,5.86,0,0-3.5,1.43-5.11.85-1.6-.59-5.23-3.37-5.76-5.46s.1-6.08,1.12-6.85Z"/>
      <path class="st12" d="M150.19,68.36s5.96-5.27,6.71-5.21.26,3.95.8,3.9,2.46.24,3.18.82-2.8,5.58-3.78,6.38-4.45-.59-5.74-1.38-1.55-2.65-1.18-4.51Z"/>
      <path class="st7" d="M155.68,61.13c1.04-.84-5.94-1.55-7.8.8s.36,10.01,3.21,11.68,2.32-2.3,1.79-3.44-3.01-4.36,2.8-9.05Z"/>
      <path class="st7" d="M154.07,73.55s3.59.48,6.12-.69,2.6-2.51,3.63-2.44.3,3.17-2.28,4.78-8.37-.31-7.46-1.65Z"/>
      <path class="st9" d="M146.98,57.55c-.31-1.94-6.11-.67-8.87,1.41s-1.12,9.4,1.38,12.36,6.95,1.51,6.64-.42,1.43-9.79.85-13.36Z"/>
      <path class="st9" d="M167.19,69.93c1.47,2.15,3.3-3.4,3.2-6.59s-9.99-12.84-16.73-12.47c-4.83.27-5.34,6.62-4.29,7s5.17-1.73,6.7-1.29,6.32,3.2,8.5,6.92c1.3,2.2,1.85,5.31,2.61,6.42Z"/>
      <path class="st9" d="M147.64,79.53c-2.77-1.7-.99-4.25,1.45-2.89s9.49,2.95,11.31,1.6,3.07-4.98,4.68-4.96,2.55,4.94-1.77,8.06-8.8,2.4-15.67-1.82Z"/>
      <path class="st13" d="M152.08,61.42c-1.87.2-3.42,2.01-3.51,3.88-.04.83.96,1.43,1.55.69.9-1.14,1.05-2.62,2.41-3.39.59-.33.14-1.25-.46-1.18Z"/>
      <path class="st13" d="M145.68,57.55c-.75-.29-1.26-.53-2.1-.5-.91.04-1.76.53-2.53.98-1.46.86-3.11,2.57-3.08,4.34.02,1.1,1.36,1.46,2.15.95,1.01-.66,1.49-1.92,2.46-2.67.42-.32.87-.52,1.36-.71.58-.22,1.11-.66,1.7-.86.68-.23.7-1.28.04-1.54Z"/>
      <path class="st13" d="M165.18,59.61c-1.48-4.26-9.48-9.8-13.66-6.01-.26.24-.21.58.08.75,1.88,1.1,4.29,1.09,6.33,1.96,2.38,1.01,4.25,2.88,6.63,3.88.38.16.75-.21.62-.59Z"/>
      <path class="st13" d="M155.31,80.12c-.6-.63-1.4-.71-2.23-.88-1.17-.23-2.33-.66-3.4-1.2-.72-.36-1.36.72-.72,1.2,1.36,1.02,4.58,3.12,6.23,1.72.22-.19.36-.59.12-.84Z"/>
      <path class="st13" d="M160.38,73.37c-.54-.29-1.08-.07-1.67.08-.56.13-1.14.13-1.71.2-.69.07-.84.88-.39,1.31.97.92,3.73,1.18,4.26-.34.26-.5.07-1.07-.49-1.24Z"/>
      <path class="st9" d="M158.61,67.64c-.57-.27-1.25-.29-1.56-.63-.45-.51-.38-1.33-.73-1.97-.15-.28-.6-.37-.87-.25-1.48.66-1.2,2.68-.54,3.81.83,1.42,2.93,1.89,4.1.67.49-.51.17-1.36-.4-1.63Z"/>
      <path class="st18" d="M133.57,67.25c-.59-1.9-3.62-2.16-5.27-2.07-1.73.09-3.86.94-4.23,2.81-.15.74.64,1.29,1.3,1.05,1.25-.44,2.13-.92,3.51-.72,1.35.19,2.56,1.03,3.92.66.74-.2.96-1.09.76-1.73Z"/>
      <path class="st18" d="M176.99,80.07c-2.31-2.22-6.66-2.31-9.28-.74-.78.47-.45,1.92.48,1.96,1.25.06,2.48-.01,3.72.23,1.36.27,2.52,1.09,3.87,1.29,1.64.24,2.3-1.71,1.22-2.75Z"/>
    </g>
  </g>
</svg>